<?xml version="1.0" encoding="UTF-8" standalone="no"?>
<!-- Created with Inkscape (http://www.inkscape.org/) -->

<svg
   width="3500"
   height="1440"
   viewBox="0 0 926.04165 381"
   version="1.1"
   id="svg1"
   xml:space="preserve"
   sodipodi:docname="cover_light_green_monochrome.svg"
   inkscape:version="1.3 (0e150ed6c4, 2023-07-21)"
   xmlns:inkscape="http://www.inkscape.org/namespaces/inkscape"
   xmlns:sodipodi="http://sodipodi.sourceforge.net/DTD/sodipodi-0.dtd"
   xmlns:xlink="http://www.w3.org/1999/xlink"
   xmlns="http://www.w3.org/2000/svg"
   xmlns:svg="http://www.w3.org/2000/svg"><sodipodi:namedview
     id="namedview1"
     pagecolor="#ffffff"
     bordercolor="#000000"
     borderopacity="0.25"
     inkscape:showpageshadow="false"
     inkscape:pageopacity="0.0"
     inkscape:pagecheckerboard="0"
     inkscape:deskcolor="#d1d1d1"
     inkscape:document-units="px"
     inkscape:zoom="0.18062044"
     inkscape:cx="1663.7098"
     inkscape:cy="301.73772"
     inkscape:window-width="1824"
     inkscape:window-height="1046"
     inkscape:window-x="-11"
     inkscape:window-y="-11"
     inkscape:window-maximized="1"
     inkscape:current-layer="layer1" /><defs
     id="defs1" /><g
     inkscape:label="Layer 1"
     inkscape:groupmode="layer"
     id="layer1"><g
       id="g1"
       transform="matrix(2.1746059,0,0,2.1746059,-815.37788,-550.34471)"><path
         id="path196"
         style="display:inline;mix-blend-mode:normal;fill:#00aec7;fill-opacity:1;stroke:none;stroke-width:10.5513;stroke-linejoin:round;stroke-dasharray:none;stroke-opacity:1"
         inkscape:transform-center-x="0.36978452"
         inkscape:transform-center-y="-186.53585"
         d="m 462.96138,289.98333 a 50.756886,50.756886 0 0 0 -6.8136,0.48812 l 6.51322,69.11338 c 0.099,0.0587 0.20316,0.10816 0.30163,0.16771 0.10179,-0.0615 0.20678,-0.11714 0.30913,-0.17773 l 6.3843,-69.13466 a 50.756886,50.756886 0 0 0 -6.69468,-0.45682 z m -11.32304,1.40803 a 50.756886,50.756886 0 0 0 -12.5433,4.69842 l 22.45956,62.87927 c 0.28705,0.15786 0.57554,0.31309 0.85859,0.4781 z m 24.32067,0.29787 -12.36935,67.70286 c 0.30055,-0.17416 0.59988,-0.34949 0.90489,-0.51565 l 23.84632,-62.07702 a 50.756886,50.756886 0 0 0 -12.38186,-5.11019 z m -41.50858,7.15276 a 50.756886,50.756886 0 0 0 -9.80987,8.62087 l 34.88773,50.46488 c 0.53115,0.25344 1.0576,0.51414 1.57699,0.79099 z m 58.40864,0.89238 -27.89517,58.89676 c 0.55644,-0.2936 1.11993,-0.57414 1.68963,-0.84106 l 35.66872,-49.08815 a 50.756886,50.756886 0 0 0 -9.46318,-8.96755 z m -71.37249,11.92879 a 50.756886,50.756886 0 0 0 -5.83486,11.04517 l 39.26201,33.3483 c 1.25117,0.41609 2.47666,0.89993 3.68089,1.43681 z m 83.9083,1.24282 -37.73634,44.42851 c 1.30246,-0.56704 2.63364,-1.06694 3.98878,-1.49313 l 39.24448,-31.77631 a 50.756886,50.756886 0 0 0 -5.49692,-11.15907 z m -91.33391,14.44821 a 50.756886,50.756886 0 0 0 -1.72593,11.55832 l 31.94027,15.12782 c 2.80616,0.14376 5.59698,0.58301 8.31173,1.30791 z m 98.21884,1.42054 -38.15687,26.37826 c 0.30644,-0.0753 0.61179,-0.15477 0.91991,-0.22279 2.58269,-0.5767 5.22026,-0.88467 7.86367,-0.93492 l 30.80009,-13.71104 a 50.756886,50.756886 0 0 0 -1.4268,-11.50951 z m -99.87968,14.69603 a 50.756886,50.756886 0 0 0 1.62455,10.48697 l 14.11655,2.57575 c 3.78536,-1.41435 7.78163,-2.26249 11.81615,-2.48313 z m 101.02362,1.37298 -26.07913,9.3155 c 4.09868,0.37299 8.13876,1.36904 11.9338,2.96624 l 12.33555,-1.95372 a 50.756886,50.756886 0 0 0 1.80978,-10.32802 z m -98.10745,13.02893 a 50.756886,50.756886 0 0 0 2.00003,4.76476 c 1.87271,-1.48902 3.88251,-2.79996 5.99381,-3.9237 z m 94.8596,1.15271 -6.13148,0.49938 c 1.59373,0.93372 3.12408,1.97207 4.56326,3.12769 a 50.756886,50.756886 0 0 0 1.56822,-3.62707 z"
         inkscape:label="SKY" /><g
         id="g178"
         transform="matrix(1.0088189,0,0,1.0212914,116.99471,61.743416)"
         style="display:inline"><path
           id="path183"
           style="display:inline;opacity:1;fill:#ffffff;fill-opacity:1;fill-rule:nonzero;stroke:none;stroke-width:47.4127;stroke-linejoin:round;stroke-dasharray:none;stroke-opacity:1"
           d="m 343.00146,245.91187 a 32.429564,32.429564 0 0 0 -1.53279,0.10859 32.429115,32.429546 0 0 1 3.02216,-0.0707 32.429564,32.429564 0 0 0 -1.48937,-0.0379 z m 1.55813,0.0399 a 32.429115,32.429546 0 0 1 4.4989,0.53568 32.429564,32.429564 0 0 0 -4.4989,-0.53568 z m -5.40914,0.23526 a 32.429564,32.429564 0 0 0 -2.2784,0.38366 32.429115,32.429546 0 0 1 2.2784,-0.38366 z m 10.02203,0.32031 a 32.429115,32.429546 0 0 1 4.29801,1.15098 32.429564,32.429564 0 0 0 -4.29801,-1.15098 z m -14.55892,0.55558 a 32.429564,32.429564 0 0 0 -2.19696,0.70216 32.429115,32.429546 0 0 1 2.19696,-0.70216 z m 7.98072,0.23527 a 29.699724,12.837355 73.622637 0 1 -5.83986,8.4295 29.699724,12.837355 73.622637 0 1 -9.42665,-3.90168 29.699549,12.83743 43.622891 0 1 -0.84149,10.22111 29.699549,12.83743 43.622891 0 1 -10.14329,1.3265 29.699384,12.837503 13.622591 0 1 4.41382,9.28369 29.699384,12.837503 13.622591 0 1 -8.09291,6.22531 12.837498,29.699393 73.622037 0 1 8.43313,5.82539 12.837498,29.699393 73.622037 0 1 -3.89807,9.44112 12.837422,29.699569 43.621783 0 1 10.2193,0.82704 12.837422,29.699569 43.621783 0 1 1.34459,10.12516 12.837351,29.699735 13.622083 0 1 9.26379,-4.39209 12.837351,29.699735 13.622083 0 1 6.2217,8.12369 29.699724,12.837355 73.622637 0 1 5.83081,-8.46572 29.699724,12.837355 73.622637 0 1 9.44835,3.92339 29.699549,12.83743 43.622891 0 1 0.8198,-10.24462 29.699549,12.83743 43.622891 0 1 10.14329,-1.32469 29.699384,12.837503 13.622591 0 1 -4.41201,-9.28369 29.699384,12.837503 13.622591 0 1 8.12366,-6.21808 12.837498,29.699393 73.622037 0 1 -8.46568,-5.83442 12.837498,29.699393 73.622037 0 1 3.92519,-9.44836 12.837422,29.699569 43.621783 0 1 -10.24643,-0.8198 12.837422,29.699569 43.621783 0 1 -1.33555,-10.11252 12.837351,29.699735 13.622083 0 1 -9.27102,4.38307 12.837351,29.699735 13.622083 0 1 -6.21447,-8.0893 z m 11.08976,0.4307 a 32.429115,32.429546 0 0 1 4.04284,1.73005 32.429564,32.429564 0 0 0 -4.04284,-1.73005 z m -23.43181,0.84332 a 32.429564,32.429564 0 0 0 -2.08294,1.01342 32.429115,32.429546 0 0 1 2.08294,-1.01342 z m 27.69,0.99532 a 32.429115,32.429546 0 0 1 3.737,2.27478 32.429564,32.429564 0 0 0 -3.737,-2.27478 z m -31.7998,1.12382 a 32.429564,32.429564 0 0 0 -1.90197,1.28849 32.429115,32.429546 0 0 1 1.90197,-1.28849 z m 35.76482,1.31202 a 32.429115,32.429546 0 0 1 3.3461,2.76157 32.429564,32.429564 0 0 0 -3.3461,-2.76157 z m -39.5362,1.37535 a 32.429564,32.429564 0 0 0 -1.68482,1.53281 32.429115,32.429546 0 0 1 1.68482,-1.53281 z m 43.3094,1.7934 a 32.429115,32.429546 0 0 1 0.5248,0.52661 32.429564,32.429564 0 0 0 -0.5248,-0.52661 z m 1.06952,1.09667 a 32.429115,32.429546 0 0 1 0.54471,0.60262 32.429564,32.429564 0 0 0 -0.54471,-0.60262 z m -47.7196,0.2986 a 32.429564,32.429564 0 0 0 -1.45137,1.75902 32.429115,32.429546 0 0 1 1.45137,-1.75902 z m 48.79455,0.91751 a 32.429115,32.429546 0 0 1 0.49044,0.59901 32.429564,32.429564 0 0 0 -0.49044,-0.59901 z m 0.98086,1.22697 a 32.429115,32.429546 0 0 1 0.48317,0.65148 32.429564,32.429564 0 0 0 -0.48317,-0.65148 z m 0.92113,1.27402 a 32.429115,32.429546 0 0 1 0.4687,0.70035 32.429564,32.429564 0 0 0 -0.4687,-0.70035 z m -53.55042,0.21173 a 32.429564,32.429564 0 0 0 -1.198,1.96893 32.429115,32.429546 0 0 1 1.198,-1.96893 z m 54.42811,1.13649 a 32.429115,32.429546 0 0 1 0.4126,0.68948 32.429564,32.429564 0 0 0 -0.4126,-0.68948 z m 0.79988,1.37355 a 32.429115,32.429546 0 0 1 0.38727,0.72568 32.429564,32.429564 0 0 0 -0.38727,-0.72568 z m 0.73293,1.41155 a 32.429115,32.429546 0 0 1 0.34565,0.7293 32.429564,32.429564 0 0 0 -0.34565,-0.7293 z m -58.26646,0.0742 a 32.429564,32.429564 0 0 0 -0.91027,2.12637 32.429115,32.429546 0 0 1 0.91027,-2.12637 z m 58.92518,1.3645 a 32.429115,32.429546 0 0 1 0.32212,0.77636 32.429564,32.429564 0 0 0 -0.32212,-0.77636 z m 0.59719,1.49119 a 32.429115,32.429546 0 0 1 0.26421,0.74196 32.429564,32.429564 0 0 0 -0.26421,-0.74196 z m -61.23976,1.43688 a 32.429564,32.429564 0 0 0 -0.59718,2.23315 32.429115,32.429546 0 0 1 0.59718,-2.23315 z m 61.76096,0.0796 a 32.429115,32.429546 0 0 1 0.22802,0.75102 32.429564,32.429564 0 0 0 -0.22802,-0.75102 z m 0.43794,1.50928 a 32.429115,32.429546 0 0 1 0.19906,0.79626 32.429564,32.429564 0 0 0 -0.19906,-0.79626 z m 0.36918,1.55996 a 32.429115,32.429546 0 0 1 0.15563,0.78539 32.429564,32.429564 0 0 0 -0.15563,-0.78539 z m -63.65569,1.33553 a 32.429564,32.429564 0 0 0 -0.27508,2.30374 32.429115,32.429546 0 0 1 0.27508,-2.30374 z m 63.94342,0.20632 a 32.429115,32.429546 0 0 1 0.12126,0.81797 32.429564,32.429564 0 0 0 -0.12126,-0.81797 z m 0.22078,1.62691 a 32.429115,32.429546 0 0 1 0.0707,0.72205 32.429564,32.429564 0 0 0 -0.0707,-0.72205 z m 0.13571,1.59431 a 32.429115,32.429546 0 0 1 0.0344,0.72569 32.429564,32.429564 0 0 0 -0.0344,-0.72569 z m -64.73968,1.17811 a 32.429564,32.429564 0 0 0 -0.0543,0.76549 32.429564,32.429564 0 0 0 0.10858,1.53281 32.429115,32.429546 0 0 1 -0.0543,-2.2983 z m 64.79579,0.38548 a 32.429115,32.429546 0 0 1 -0.002,0.52118 32.429564,32.429564 0 0 0 0.0106,-0.14117 32.429564,32.429564 0 0 0 -0.009,-0.38001 z m -64.57501,4.23284 a 32.429564,32.429564 0 0 0 0.38365,2.27116 32.429115,32.429546 0 0 1 -0.38365,-2.27116 z m 64.26193,0.64606 a 32.429115,32.429546 0 0 1 -0.0379,0.24973 32.429564,32.429564 0 0 0 0.0379,-0.24973 z m -63.38604,3.88902 a 32.429564,32.429564 0 0 0 0.70217,2.19695 32.429115,32.429546 0 0 1 -0.70217,-2.19695 z m 62.41786,0.64062 a 32.429115,32.429546 0 0 1 -0.0724,0.2407 32.429564,32.429564 0 0 0 0.0724,-0.2407 z m -60.90858,3.72072 a 32.429564,32.429564 0 0 0 1.01523,2.08839 32.429115,32.429546 0 0 1 -1.01523,-2.08839 z m 59.29073,0.65872 a 32.429115,32.429546 0 0 1 -0.0724,0.15203 32.429564,32.429564 0 0 0 0.0724,-0.15203 z m -57.17521,3.44383 a 32.429564,32.429564 0 0 0 1.30659,1.93094 32.429115,32.429546 0 0 1 -1.30659,-1.93094 z m 54.95652,0.63883 a 32.429115,32.429546 0 0 1 -0.0688,0.10493 32.429564,32.429564 0 0 0 0.0688,-0.10493 z m -52.27277,3.12894 a 32.429564,32.429564 0 0 0 1.54729,1.70291 32.429115,32.429546 0 0 1 -1.54729,-1.70291 z m 49.49311,0.5972 a 32.429115,32.429546 0 0 1 -0.0489,0.0543 32.429564,32.429564 0 0 0 0.0489,-0.0543 z m -2.18793,2.19333 a 32.429115,32.429546 0 0 1 -1.71376,1.55996 32.429564,32.429564 0 0 0 1.71376,-1.55996 z m -44.10745,0.56282 a 32.429564,32.429564 0 0 0 1.76625,1.4568 32.429115,32.429546 0 0 1 -1.76625,-1.4568 z m 40.53877,2.38516 a 32.429115,32.429546 0 0 1 -1.90379,1.2885 32.429564,32.429564 0 0 0 1.90379,-1.2885 z m -36.91577,0.46328 a 32.429564,32.429564 0 0 0 1.9834,1.20706 32.429115,32.429546 0 0 1 -1.9834,-1.20706 z m 32.97609,1.93817 a 32.429115,32.429546 0 0 1 -2.07571,1.008 32.429564,32.429564 0 0 0 2.07571,-1.008 z m -28.97849,0.36917 a 32.429564,32.429564 0 0 0 2.13361,0.9139 32.429115,32.429546 0 0 1 -2.13361,-0.9139 z m 24.72753,1.44957 a 32.429115,32.429546 0 0 1 -2.18428,0.70034 32.429564,32.429564 0 0 0 2.18428,-0.70034 z m -20.43135,0.26964 a 32.429564,32.429564 0 0 0 2.23496,0.59902 32.429115,32.429546 0 0 1 -2.23496,-0.59902 z m 15.98857,0.92114 a 32.429115,32.429546 0 0 1 -2.29649,0.38726 32.429564,32.429564 0 0 0 2.29649,-0.38726 z m -11.50778,0.16648 a 32.429564,32.429564 0 0 0 2.31278,0.27507 32.429115,32.429546 0 0 1 -2.31278,-0.27507 z m 6.9329,0.38366 a 32.429115,32.429546 0 0 1 -2.32545,0.056 32.429564,32.429564 0 0 0 0.76732,0.0543 32.429564,32.429564 0 0 0 1.55813,-0.11035 z"
           inkscape:label="SUN" /><path
           id="path176"
           style="display:inline;opacity:1;fill:#f6e500;fill-opacity:1;fill-rule:nonzero;stroke:none;stroke-width:40.2594;stroke-linejoin:round;stroke-dasharray:none;stroke-opacity:1"
           d="m 343.0014,250.8046 a 27.536844,27.536844 0 0 0 -1.30154,0.0922 27.536462,27.536828 0 0 1 2.5662,-0.06 27.536844,27.536844 0 0 0 -1.26466,-0.0322 z m 1.32305,0.0339 a 27.536462,27.536828 0 0 1 3.82014,0.45486 27.536844,27.536844 0 0 0 -3.82014,-0.45486 z m -4.59305,0.19977 a 27.536844,27.536844 0 0 0 -1.93465,0.32577 27.536462,27.536828 0 0 1 1.93465,-0.32577 z m 8.50998,0.27198 a 27.536462,27.536828 0 0 1 3.64956,0.97733 27.536844,27.536844 0 0 0 -3.64956,-0.97733 z m -12.36238,0.47176 a 27.536844,27.536844 0 0 0 -1.8655,0.59622 27.536462,27.536828 0 0 1 1.8655,-0.59622 z m 6.77665,0.19977 a 25.218861,10.900555 73.622637 0 1 -4.95879,7.15773 25.218861,10.900555 73.622637 0 1 -8.00443,-3.31303 25.218712,10.900618 43.622891 0 1 -0.71453,8.67903 25.218712,10.900618 43.622891 0 1 -8.61295,1.12637 25.218572,10.90068 13.622591 0 1 3.7479,7.88304 25.218572,10.90068 13.622591 0 1 -6.87192,5.28608 10.900676,25.21858 73.622037 0 1 7.16081,4.9465 10.900676,25.21858 73.622037 0 1 -3.30996,8.01672 10.900612,25.218729 43.621783 0 1 8.67749,0.70226 10.900612,25.218729 43.621783 0 1 1.14173,8.59756 10.900551,25.21887 13.622083 0 1 7.86614,-3.72945 10.900551,25.21887 13.622083 0 1 5.28302,6.89805 25.218861,10.900555 73.622637 0 1 4.9511,-7.18848 25.218861,10.900555 73.622637 0 1 8.02286,3.33146 25.218712,10.900618 43.622891 0 1 0.69611,-8.69899 25.218712,10.900618 43.622891 0 1 8.61295,-1.12483 25.218572,10.90068 13.622591 0 1 -3.74636,-7.88304 25.218572,10.90068 13.622591 0 1 6.89803,-5.27994 10.900676,25.21858 73.622037 0 1 -7.18845,-4.95417 10.900676,25.21858 73.622037 0 1 3.33299,-8.02287 10.900612,25.218729 43.621783 0 1 -8.70053,-0.69611 10.900612,25.218729 43.621783 0 1 -1.13405,-8.58682 10.900551,25.21887 13.622083 0 1 -7.87228,3.72178 10.900551,25.21887 13.622083 0 1 -5.27688,-6.86885 z m 9.41662,0.36572 a 27.536462,27.536828 0 0 1 3.43289,1.46904 27.536844,27.536844 0 0 0 -3.43289,-1.46904 z m -19.8966,0.71609 a 27.536844,27.536844 0 0 0 -1.76868,0.86052 27.536462,27.536828 0 0 1 1.76868,-0.86052 z m 23.51235,0.84515 a 27.536462,27.536828 0 0 1 3.17319,1.93158 27.536844,27.536844 0 0 0 -3.17319,-1.93158 z m -27.00209,0.95427 a 27.536844,27.536844 0 0 0 -1.61502,1.09409 27.536462,27.536828 0 0 1 1.61502,-1.09409 z m 30.3689,1.11407 a 27.536462,27.536828 0 0 1 2.84127,2.34493 27.536844,27.536844 0 0 0 -2.84127,-2.34493 z m -33.57129,1.16785 a 27.536844,27.536844 0 0 0 -1.43062,1.30155 27.536462,27.536828 0 0 1 1.43062,-1.30155 z m 36.77522,1.52283 a 27.536462,27.536828 0 0 1 0.44562,0.44716 27.536844,27.536844 0 0 0 -0.44562,-0.44716 z m 0.90816,0.93121 a 27.536462,27.536828 0 0 1 0.46253,0.5117 27.536844,27.536844 0 0 0 -0.46253,-0.5117 z m -40.52004,0.25355 a 27.536844,27.536844 0 0 0 -1.2324,1.49363 27.536462,27.536828 0 0 1 1.2324,-1.49363 z m 41.43281,0.77908 a 27.536462,27.536828 0 0 1 0.41644,0.50864 27.536844,27.536844 0 0 0 -0.41644,-0.50864 z m 0.83287,1.04186 a 27.536462,27.536828 0 0 1 0.41028,0.55319 27.536844,27.536844 0 0 0 -0.41028,-0.55319 z m 0.78216,1.0818 a 27.536462,27.536828 0 0 1 0.39799,0.59469 27.536844,27.536844 0 0 0 -0.39799,-0.59469 z m -45.47115,0.17979 a 27.536844,27.536844 0 0 0 -1.01725,1.67187 27.536462,27.536828 0 0 1 1.01725,-1.67187 z m 46.21642,0.96502 a 27.536462,27.536828 0 0 1 0.35035,0.58546 27.536844,27.536844 0 0 0 -0.35035,-0.58546 z m 0.6792,1.16632 a 27.536462,27.536828 0 0 1 0.32884,0.6162 27.536844,27.536844 0 0 0 -0.32884,-0.6162 z m 0.62235,1.19859 a 27.536462,27.536828 0 0 1 0.2935,0.61927 27.536844,27.536844 0 0 0 -0.2935,-0.61927 z m -49.47567,0.063 a 27.536844,27.536844 0 0 0 -0.77293,1.80556 27.536462,27.536828 0 0 1 0.77293,-1.80556 z m 50.03501,1.15863 a 27.536462,27.536828 0 0 1 0.27352,0.65923 27.536844,27.536844 0 0 0 -0.27352,-0.65923 z m 0.50709,1.26621 a 27.536462,27.536828 0 0 1 0.22435,0.63002 27.536844,27.536844 0 0 0 -0.22435,-0.63002 z m -52.00038,1.2201 a 27.536844,27.536844 0 0 0 -0.50708,1.89623 27.536462,27.536828 0 0 1 0.50708,-1.89623 z m 52.44295,0.0676 a 27.536462,27.536828 0 0 1 0.19361,0.63772 27.536844,27.536844 0 0 0 -0.19361,-0.63772 z m 0.37186,1.28158 a 27.536462,27.536828 0 0 1 0.16903,0.67612 27.536844,27.536844 0 0 0 -0.16903,-0.67612 z m 0.31348,1.3246 a 27.536462,27.536828 0 0 1 0.13215,0.6669 27.536844,27.536844 0 0 0 -0.13215,-0.6669 z m -54.05181,1.13404 a 27.536844,27.536844 0 0 0 -0.23358,1.95617 27.536462,27.536828 0 0 1 0.23358,-1.95617 z m 54.29613,0.17519 a 27.536462,27.536828 0 0 1 0.10297,0.69456 27.536844,27.536844 0 0 0 -0.10297,-0.69456 z m 0.18747,1.38145 a 27.536462,27.536828 0 0 1 0.06,0.61312 27.536844,27.536844 0 0 0 -0.06,-0.61312 z m 0.11524,1.35378 a 27.536462,27.536828 0 0 1 0.0292,0.6162 27.536844,27.536844 0 0 0 -0.0292,-0.6162 z m -54.97226,1.00036 a 27.536844,27.536844 0 0 0 -0.0461,0.65 27.536844,27.536844 0 0 0 0.0922,1.30155 27.536462,27.536828 0 0 1 -0.0461,-1.95155 z m 55.0199,0.32732 a 27.536462,27.536828 0 0 1 -0.002,0.44255 27.536844,27.536844 0 0 0 0.009,-0.11987 27.536844,27.536844 0 0 0 -0.008,-0.32268 z m -54.83243,3.59423 a 27.536844,27.536844 0 0 0 0.32577,1.9285 27.536462,27.536828 0 0 1 -0.32577,-1.9285 z m 54.56659,0.54858 a 27.536462,27.536828 0 0 1 -0.0322,0.21206 27.536844,27.536844 0 0 0 0.0322,-0.21206 z m -53.82285,3.30228 a 27.536844,27.536844 0 0 0 0.59623,1.86549 27.536462,27.536828 0 0 1 -0.59623,-1.86549 z m 53.00074,0.54397 a 27.536462,27.536828 0 0 1 -0.0615,0.20438 27.536844,27.536844 0 0 0 0.0615,-0.20438 z m -51.71917,3.15936 a 27.536844,27.536844 0 0 0 0.86206,1.77331 27.536462,27.536828 0 0 1 -0.86206,-1.77331 z m 50.34541,0.55934 a 27.536462,27.536828 0 0 1 -0.0615,0.12909 27.536844,27.536844 0 0 0 0.0615,-0.12909 z m -48.54906,2.92425 a 27.536844,27.536844 0 0 0 1.10946,1.63962 27.536462,27.536828 0 0 1 -1.10946,-1.63962 z m 46.66511,0.54245 a 27.536462,27.536828 0 0 1 -0.0584,0.0891 27.536844,27.536844 0 0 0 0.0584,-0.0891 z m -44.38626,2.65687 a 27.536844,27.536844 0 0 0 1.31384,1.44599 27.536462,27.536828 0 0 1 -1.31384,-1.44599 z m 42.02597,0.5071 a 27.536462,27.536828 0 0 1 -0.0415,0.0461 27.536844,27.536844 0 0 0 0.0415,-0.0461 z m -1.85783,1.86242 a 27.536462,27.536828 0 0 1 -1.4552,1.3246 27.536844,27.536844 0 0 0 1.4552,-1.3246 z m -37.45286,0.4779 a 27.536844,27.536844 0 0 0 1.49977,1.23701 27.536462,27.536828 0 0 1 -1.49977,-1.23701 z m 34.42259,2.02531 a 27.536462,27.536828 0 0 1 -1.61656,1.0941 27.536844,27.536844 0 0 0 1.61656,-1.0941 z m -31.3462,0.39338 a 27.536844,27.536844 0 0 0 1.68416,1.02495 27.536462,27.536828 0 0 1 -1.68416,-1.02495 z m 28.00091,1.64576 a 27.536462,27.536828 0 0 1 -1.76254,0.85592 27.536844,27.536844 0 0 0 1.76254,-0.85592 z m -24.60644,0.31347 a 27.536844,27.536844 0 0 0 1.81171,0.77602 27.536462,27.536828 0 0 1 -1.81171,-0.77602 z m 20.99683,1.23087 a 27.536462,27.536828 0 0 1 -1.85473,0.59468 27.536844,27.536844 0 0 0 1.85473,-0.59468 z m -17.34882,0.22896 a 27.536844,27.536844 0 0 0 1.89776,0.50864 27.536462,27.536828 0 0 1 -1.89776,-0.50864 z m 13.57634,0.78216 a 27.536462,27.536828 0 0 1 -1.95002,0.32884 27.536844,27.536844 0 0 0 1.95002,-0.32884 z m -9.77158,0.14137 a 27.536844,27.536844 0 0 0 1.96385,0.23357 27.536462,27.536828 0 0 1 -1.96385,-0.23357 z m 5.88692,0.32577 a 27.536462,27.536828 0 0 1 -1.97461,0.0476 27.536844,27.536844 0 0 0 0.65156,0.0461 27.536844,27.536844 0 0 0 1.32305,-0.0937 z"
           inkscape:label="SUN" /><path
           style="display:inline;fill:#ffffff;fill-opacity:1;stroke:none;stroke-width:0.19525;stroke-opacity:1"
           d="m 340.31966,294.64137 c -7.11087,-1.22727 -12.52252,-5.9957 -14.20287,-12.51474 -0.57863,-2.24482 -0.57092,-5.5837 0.0179,-7.7413 0.93115,-3.41217 3.39947,-7.02145 6.16196,-9.01023 3.20111,-2.30455 6.74127,-3.44169 10.72185,-3.44396 8.21849,-0.005 15.06846,5.19798 16.94569,12.87053 0.50857,2.07864 0.45657,5.51644 -0.11457,7.5704 -1.98867,7.15245 -8.52536,12.12517 -16.25415,12.36518 -1.26801,0.0394 -2.74212,-0.004 -3.27582,-0.0959 z"
           id="path180"
           inkscape:label="WHITE" /><path
           style="display:inline;fill:#ffcc00;fill-opacity:1;stroke:none;stroke-width:0.15783;stroke-opacity:1"
           d="m 340.89004,291.87006 c -5.59823,-1.01861 -9.85871,-4.97632 -11.18161,-10.387 -0.45554,-1.86316 -0.44947,-4.63437 0.0141,-6.42514 0.73307,-2.83204 2.67633,-5.82767 4.85118,-7.47832 2.52016,-1.91274 5.30725,-2.85654 8.44108,-2.85843 6.47024,-0.004 11.86307,4.31423 13.34097,10.68231 0.40039,1.72523 0.35945,4.57854 -0.0902,6.28329 -1.56563,5.9364 -6.71183,10.06367 -12.79654,10.26287 -0.99827,0.0327 -2.15881,-0.003 -2.57898,-0.0796 z"
           id="path179"
           inkscape:label="CORE" /></g><path
         id="path199"
         style="display:inline;fill:#ffffff;fill-opacity:1;stroke:none;stroke-width:0.0178789;stroke-opacity:1"
         inkscape:label="W"
         d="m 483.62431,353.95002 c -1.68405,0.0109 -3.3826,0.0754 -4.26538,0.18899 -5.43176,0.69893 -10.49372,2.43586 -14.90379,5.11269 -0.74042,0.44942 -1.3769,0.81326 -1.4243,0.81603 -5.3e-4,2e-5 -0.004,0.004 -0.005,0.004 h -0.001 c -0.0438,-5.3e-4 -0.55939,-0.29564 -1.1477,-0.65583 -4.70142,-2.8784 -9.78954,-4.61845 -15.59091,-5.33297 -1.62776,-0.2005 -6.78587,-0.16847 -8.44439,0.0525 -7.05915,0.94079 -13.27281,3.50121 -18.63099,7.67718 l -0.57823,0.45057 0.78098,1.41303 c 0.42892,0.77703 0.83181,1.49975 0.89613,1.60578 0.11026,0.18174 0.14756,0.16796 0.65708,-0.2378 1.58182,-1.25967 3.23544,-2.33983 4.95124,-3.28164 a 21.680484,10.568003 4.3064602 0 0 -1.63205,2.60078 c -0.7418,0.49244 -1.46504,1.0057 -2.14896,1.55446 l -0.88612,0.71089 1.06384,1.4243 c 0.58507,0.78335 1.09697,1.42368 1.13894,1.42304 0.042,-5.3e-4 0.41761,-0.27835 0.8348,-0.61578 0.12162,-0.0983 0.25577,-0.18984 0.38048,-0.2866 a 21.680484,10.568003 4.3064602 0 0 0.74219,1.189 c -0.12874,0.0998 -0.26726,0.20174 -0.38549,0.29912 l -0.72842,0.60076 1.22905,1.32292 c 1.20573,1.29833 1.23336,1.32071 1.44557,1.1527 0.35735,-0.28287 0.71483,-0.54168 1.0726,-0.80101 a 21.680484,10.568003 4.3064602 0 0 1.21779,0.82855 c -0.4296,0.29336 -0.81745,0.57198 -1.06884,0.78849 l -0.39301,0.33918 1.00002,0.96872 c 0.55031,0.5324 1.14821,1.0905 1.32793,1.24032 l 0.32665,0.27158 0.83606,-0.602 c 0.56081,-0.40362 1.14298,-0.75927 1.73469,-1.09263 a 21.680484,10.568003 4.3064602 0 0 1.74344,0.66334 c -0.15111,0.0733 -0.30484,0.13851 -0.45432,0.21652 -1.0279,0.53646 -2.64333,1.57495 -2.64333,1.69964 0,0.0737 2.34806,1.87202 2.79102,2.13769 0.18441,0.11062 0.30003,0.0748 0.9124,-0.28285 3.29598,-1.92495 7.5396,-2.354 11.26169,-1.13769 4.16155,1.35993 7.44783,4.64957 8.81487,8.82238 l 0.32166,0.98249 0.41427,0.0575 c 0.22809,0.0321 0.89278,0.0957 1.47686,0.14143 0.58408,0.0458 1.25097,0.0899 1.48187,0.0976 l 0.42053,0.0138 -0.15144,-0.6821 c -0.45596,-2.0616 -1.61193,-4.66961 -2.83483,-6.39682 -0.76698,-1.08328 -2.56475,-2.90607 -3.73721,-3.82608 a 21.680484,10.568003 4.3064602 0 0 1.88112,-0.26282 c 0.31751,0.2784 0.63517,0.55566 0.93619,0.85858 2.62628,2.64288 4.53931,6.24112 5.14273,9.67219 l 0.12891,0.72842 0.41427,0.0426 c 0.5874,0.0602 2.59796,0.031 3.07013,-0.0326 h 0.15394 l -0.003,-0.0163 c 0.003,-10e-4 0.0275,-0.003 0.0288,-0.004 0.12705,-0.1273 -0.45565,-2.72588 -0.93493,-4.16775 -1.0046,-3.02228 -2.63899,-5.75701 -4.761,-8.06768 a 21.680484,10.568003 4.3064602 0 0 1.40427,-0.52941 c 2.03064,2.32371 3.62729,5.04916 4.63459,8.08269 0.47798,1.43943 1.01522,3.73476 1.01754,4.34548 l 10e-4,0.18398 v 0.10263 l 1.18775,-0.0651 c 0.65361,-0.0361 1.495,-0.0954 1.86985,-0.13142 l 0.68212,-0.0651 -0.0576,-0.41553 c -0.70744,-5.14394 -2.86438,-9.87276 -6.03761,-13.74858 a 21.680484,10.568003 4.3064602 0 0 1.12517,-0.84857 c 1.84084,2.23357 3.26816,4.64424 4.41432,7.44314 0.76555,1.86948 1.57652,4.87816 1.82229,6.76352 0.0593,0.45527 0.10088,0.53123 0.28787,0.53067 0.2172,-5.3e-4 3.29977,-0.67146 3.35923,-0.73092 0.0632,-0.0632 -0.37427,-2.39 -0.67961,-3.61706 -1.07602,-4.32437 -3.03565,-8.33828 -5.87866,-12.0602 a 20.642547,9.5575989 0 0 0 2.56824,1.16646 c 2.68328,4.06224 4.47483,8.72728 5.30419,13.89377 l 0.0513,0.3204 0.93242,-0.25281 c 1.63257,-0.44412 3.40698,-1.04962 5.32422,-1.8173 1.02474,-0.41031 1.889,-0.77459 1.92117,-0.80977 0.0979,-0.10706 -1.53528,0.0565 -2.17399,0.21778 -0.32969,0.0833 -1.02408,0.35984 -1.5432,0.61452 -0.46352,0.22741 -0.77693,0.36062 -0.86734,0.38299 -0.0495,0.005 -0.0897,5.3e-4 -0.11514,-0.0138 -0.0428,-0.1189 -0.19061,-0.87954 -0.22404,-1.13769 0.002,-0.0718 0.0106,-0.12307 0.0226,-0.1602 0.12842,-0.17166 1.36694,-0.71921 2.18525,-0.95495 1.00892,-0.29067 2.89655,-0.37138 3.93621,-0.16772 l 0.75721,0.14894 1.06258,-0.53442 c 0.88945,-0.44682 2.80435,-1.50847 2.91618,-1.61704 0.0767,-0.0744 -0.9203,-0.58874 -1.85233,-0.95496 -1.92354,-0.75583 -4.39048,-1.03709 -6.33674,-0.72216 -0.8817,0.14267 -2.31509,0.56125 -3.04634,0.88863 -0.2539,0.11366 -0.39506,0.15385 -0.48812,0.17396 -0.0616,0.001 -0.11801,-0.004 -0.15519,-0.0275 h -0.001 c -0.0336,-0.072 -0.11325,-0.28626 -0.21527,-0.59326 l -0.20025,-0.60075 c 0.0108,-0.0155 0.0238,-0.0312 0.0575,-0.0525 l 0.75971,-0.29412 c 3.9457,-1.52468 8.39487,-1.23851 11.93505,0.76721 0.44081,0.24975 0.83673,0.45433 0.87986,0.45433 0.13058,0 2.92994,-2.12496 2.92994,-2.22406 0,-0.17427 -1.98844,-1.41489 -3.14271,-1.96122 -0.98707,-0.46718 -1.92608,-0.80638 -2.87613,-1.0676 a 20.642547,9.5575989 0 0 0 2.96123,-0.42302 c 1.28597,0.55321 2.51726,1.24891 3.66337,2.09263 0.61571,0.45325 0.63174,0.45841 0.84357,0.27785 0.11866,-0.10114 0.72743,-0.65877 1.35295,-1.23781 l 1.13644,-1.05257 -0.62955,-0.49187 c -0.41702,-0.32583 -0.85708,-0.63538 -1.30664,-0.93619 a 20.642547,9.5575989 0 0 0 1.52066,-0.61702 c 0.12945,0.0946 0.26327,0.17656 0.39174,0.27409 l 1.03381,0.78474 1.22404,-1.33168 c 1.17184,-1.27426 1.21534,-1.33648 1.0288,-1.48687 -0.0907,-0.0731 -0.18215,-0.13347 -0.27284,-0.20526 a 20.642547,9.5575989 0 0 0 1.1089,-0.98499 c 0.11258,0.0666 0.23126,0.13768 0.25156,0.12516 0.10191,-0.063 1.66164,-2.12255 1.95747,-2.58452 0.14622,-0.22835 0.12887,-0.27618 -0.4318,-0.72215 a 20.642547,9.5575989 0 0 0 0.10889,-0.77097 20.642547,9.5575989 0 0 0 -0.11514,-0.9875 c 0.1284,0.0962 0.26181,0.18207 0.38924,0.28035 0.57448,0.44308 1.05928,0.78981 1.07761,0.77097 0.1035,-0.10642 1.02518,-1.72994 1.36171,-2.39927 l 0.39425,-0.78474 -0.87735,-0.66834 c -5.42566,-4.12868 -11.60258,-6.59528 -18.72862,-7.47943 -0.82609,-0.10249 -2.49497,-0.14486 -4.17901,-0.13392 z m -7.40559,20.30435 a 20.642547,9.5575989 0 0 0 2.90992,0.40425 c -0.5812,0.16247 -1.15411,0.35714 -1.72217,0.58575 -0.53212,0.21413 -0.96705,0.37757 -0.98249,0.36921 -0.005,-0.004 -0.0138,-0.0176 -0.02,-0.0238 -0.0901,-0.12855 -0.49596,-0.99446 -0.5194,-1.10765 0.005,-0.0228 0.0365,-0.0518 0.0626,-0.0788 0.0406,-0.0327 0.1509,-0.0892 0.2716,-0.14894 z m -34.20438,4.79729 c -1.45317,0.0295 -2.91623,0.31788 -4.32545,0.88612 -0.48222,0.19445 -1.08232,0.47267 -1.33293,0.61953 l -0.45557,0.26784 0.59074,0.35795 c 0.32521,0.19716 1.22877,0.69032 2.00753,1.09514 l 1.41554,0.73592 0.75845,-0.15144 c 0.94315,-0.1882 2.89607,-0.12712 3.8436,0.12015 0.88309,0.23046 2.20616,0.85343 2.96749,1.39801 0.70173,0.50196 1.59094,1.40517 2.06135,2.0939 l 0.3154,0.46183 1.1965,0.27659 c 0.65815,0.15239 1.60578,0.36128 2.10641,0.46434 0.50064,0.10306 0.94832,0.19262 0.99375,0.19775 0.19921,0.0234 -0.51641,-1.67601 -1.14895,-2.72844 -2.37386,-3.94974 -6.63431,-6.18384 -10.99386,-6.09519 z m 0.23905,4.99505 c -0.38807,0.005 -0.33457,0.0395 0.79601,0.52191 0.39425,0.16824 1.00652,0.39784 1.58324,0.62204 0.1204,0.0467 0.22681,0.0907 0.34669,0.13642 0.26791,0.10249 0.52509,0.21169 0.75095,0.29412 0.47891,0.17478 0.64767,0.22158 0.94745,0.32041 0.045,0.0153 0.10509,0.0391 0.14893,0.0538 0.054,0.0181 0.0154,0.002 0.0588,0.0163 0.10659,0.0333 0.42082,0.14824 0.44055,0.14894 0.15692,0.005 -0.35507,-0.4466 -1.01252,-0.89237 -0.13158,-0.0892 -0.30544,-0.16683 -0.46059,-0.25032 -0.059,-0.0314 -0.0995,-0.0564 -0.16145,-0.0876 -0.16762,-0.0839 -0.33152,-0.16267 -0.51565,-0.2378 -0.0141,-0.006 -0.034,-0.0159 -0.0476,-0.0213 -0.0369,-0.0145 -0.0767,-0.0234 -0.11389,-0.0376 -0.62322,-0.24009 -1.28733,-0.42317 -1.91492,-0.51315 -0.009,-0.001 -0.0185,-0.005 -0.0276,-0.006 -0.0776,-0.0117 -0.20121,-0.0157 -0.31039,-0.0238 -0.17051,-0.0152 -0.35341,-0.0456 -0.50814,-0.0438 z" /><path
         id="path203"
         style="display:inline;fill:#44aa00;fill-opacity:1;stroke:none;stroke-width:0.0178789;stroke-opacity:1"
         d="m 446.82701,388.71277 c -1.1418,-0.38251 -2.71223,-0.98438 -3.95125,-1.51433 -0.5928,-0.25355 -0.8064,-0.3574 -0.81924,-0.39828 -0.0119,-0.0379 0.70127,-0.0159 1.01591,0.0314 0.67763,0.10191 1.39337,0.29606 2.05607,0.55775 0.33906,0.13389 0.86403,0.40013 1.11744,0.56673 0.51127,0.33611 1.09956,0.81833 1.09956,0.90131 0,0.0268 -0.0413,0.0152 -0.51849,-0.14461 z m -1.09697,-0.37335 c -0.80658,-0.29438 -2.01266,-0.76828 -2.68018,-1.05312 -1.13058,-0.48244 -1.18514,-0.51822 -0.79707,-0.5226 1.22873,-0.0139 3.04181,0.53203 4.06014,1.22249 0.65746,0.44578 1.17047,0.89757 1.01356,0.89259 -0.0715,-0.003 -0.78987,-0.24498 -1.59645,-0.53936 z m 7.43368,2.05602 c -0.50063,-0.10306 -1.44872,-0.31207 -2.10686,-0.46445 l -1.19663,-0.27708 -0.31512,-0.46135 c -0.47041,-0.68872 -1.35924,-1.59162 -2.06097,-2.09357 -0.76133,-0.54459 -2.08468,-1.1683 -2.96777,-1.39875 -0.94753,-0.24728 -2.90011,-0.30828 -3.84326,-0.12008 l -0.75854,0.15135 -1.41594,-0.73602 c -0.77877,-0.40482 -1.68203,-0.89734 -2.00724,-1.09451 l -0.59129,-0.35848 0.45566,-0.26702 c 0.2506,-0.14687 0.85019,-0.42613 1.33242,-0.62058 5.63689,-2.27298 12.15463,-0.0564 15.31979,5.20988 0.63254,1.05243 1.34788,2.75118 1.14867,2.72776 -0.0454,-0.005 -0.49228,-0.094 -0.99292,-0.1971 z m 4.50067,0.70226 c -0.58407,-0.0457 -1.24858,-0.10949 -1.47667,-0.14157 l -0.41473,-0.0583 -0.32177,-0.98217 c -1.36705,-4.17282 -4.65363,-7.46187 -8.81517,-8.8218 -3.72211,-1.21632 -7.96595,-0.78782 -11.26194,1.13714 -0.61237,0.35765 -0.72777,0.39343 -0.91218,0.28282 -0.44296,-0.26568 -2.79016,-2.06385 -2.79016,-2.13751 0,-0.12469 1.61496,-1.16342 2.64287,-1.69987 5.76771,-3.01013 12.7833,-2.48376 18.208,1.36613 1.13626,0.8064 3.22377,2.90884 4.05781,4.08683 1.2229,1.72722 2.37861,4.33542 2.83457,6.39702 l 0.15099,0.68269 -0.41983,-0.0141 c -0.2309,-0.008 -0.89771,-0.0515 -1.48179,-0.0973 z m 3.30122,0.0356 c -0.0275,-0.0974 -0.0818,-0.38181 -0.12057,-0.63212 -0.33256,-2.14493 -1.68225,-5.21783 -3.25489,-7.41052 -0.70988,-0.98978 -2.33823,-2.7152 -3.31794,-3.51576 -3.51195,-2.86971 -8.11417,-4.39701 -12.68885,-4.21091 -3.71217,0.151 -6.86602,1.17572 -9.93835,3.22907 l -1.18985,0.79523 -0.27612,-0.2172 c -0.6451,-0.50744 -2.24762,-2.14354 -2.19033,-2.23623 0.23339,-0.37765 2.84982,-2.05129 4.47523,-2.86268 6.17398,-3.08194 13.52175,-3.05811 19.78884,0.0642 2.3378,1.1647 4.23128,2.55443 6.12595,4.49618 2.2862,2.34302 3.85969,4.82078 4.99698,7.86871 0.4137,1.10873 1.03182,3.44731 1.13074,4.27807 l 0.0632,0.53098 h -1.77703 c -1.60594,0 -1.78184,-0.017 -1.82703,-0.17699 z m 4.99215,-0.47114 c 0,-0.59561 -0.49382,-2.69164 -0.97914,-4.15596 -2.79029,-8.41895 -10.25438,-14.62999 -19.20224,-15.97862 -1.17573,-0.1772 -5.11827,-0.20649 -6.61257,-0.0491 -1.92281,0.20251 -4.37386,0.87843 -6.48065,1.78715 -1.63918,0.70702 -2.79319,1.37288 -4.74067,2.73536 -0.57701,0.40368 -1.10819,0.73397 -1.1804,0.73397 -0.11873,0 -2.17938,-2.12598 -2.2504,-2.32174 -0.0392,-0.10812 1.98525,-1.59993 3.26624,-2.40685 6.26544,-3.94673 13.62427,-5.17024 20.83456,-3.46404 8.72686,2.06508 15.88705,8.30581 19.26896,16.79458 0.75126,1.88569 1.42091,4.38557 1.5728,5.87147 l 0.0683,0.668 -0.49287,0.0622 c -0.27108,0.0341 -1.07316,0.0929 -1.78239,0.1306 l -1.28952,0.0685 z m 5.15807,-0.19204 c 0,-0.0171 -0.0882,-0.50634 -0.19594,-1.08724 -1.22417,-6.59866 -4.15758,-11.96928 -9.05828,-16.58433 -3.35088,-3.15556 -8.1041,-5.64744 -12.99627,-6.81333 -2.41634,-0.57585 -2.77829,-0.6099 -6.52345,-0.6136 -2.87155,-0.003 -3.61932,0.027 -4.53378,0.18107 -4.79889,0.80835 -9.18339,2.68836 -13.20817,5.66349 l -1.05408,0.77917 -0.24985,-0.22883 c -0.26943,-0.24677 -1.53243,-1.91048 -1.72025,-2.26601 -0.10446,-0.19776 -0.0462,-0.26939 0.6671,-0.82053 3.49553,-2.70075 7.78327,-4.80609 11.9902,-5.88735 3.10063,-0.79692 4.15989,-0.91623 8.15941,-0.91907 2.99304,-0.002 4.20862,0.0972 6.19756,0.50646 6.5717,1.35218 11.84033,4.19202 16.6132,8.95464 4.67452,4.6645 7.58059,10.02768 8.94663,16.51108 0.39636,1.88118 0.3949,2.00427 -0.0251,2.136 -0.95041,0.29807 -3.00888,0.63218 -3.00888,0.48838 z m 4.70972,-1.90959 c -1.87157,-10.70474 -8.44478,-19.69794 -17.93645,-24.53991 -5.66159,-2.88815 -11.72281,-4.11315 -18.17681,-3.67363 -6.32529,0.43074 -12.66205,2.79617 -17.81398,6.6497 -0.71567,0.5353 -1.34673,0.99144 -1.40235,1.01362 -0.13633,0.0543 -1.8183,-2.99097 -1.7064,-3.08958 0.84599,-0.74556 3.7965,-2.71142 5.44852,-3.63022 4.24787,-2.36254 9.95428,-4.10429 14.64082,-4.46876 1.64502,-0.12794 5.61319,-0.12644 7.00285,0.003 2.38766,0.22178 5.555,0.89586 8.10013,1.72387 2.46385,0.80158 5.09444,2.00589 7.63462,3.4952 0.69957,0.41016 1.33328,0.74574 1.40824,0.74574 0.075,0 0.71456,-0.33932 1.42131,-0.75405 4.4521,-2.61251 9.08515,-4.25947 14.10346,-5.01352 1.82343,-0.27399 6.74034,-0.39156 8.69389,-0.20789 7.11146,0.66863 14.2536,3.53814 19.86991,7.9832 l 0.24498,0.19389 -0.74917,1.37317 c -0.41205,0.75525 -0.80447,1.4488 -0.87205,1.54122 -0.10925,0.14941 -0.27101,0.0582 -1.45829,-0.8216 -4.92711,-3.65141 -10.15815,-5.76004 -16.42451,-6.6207 -1.31371,-0.18044 -4.99499,-0.24061 -6.75955,-0.11048 -3.236,0.23862 -6.76408,1.04691 -9.82718,2.25142 -1.36647,0.53733 -4.62281,2.1542 -4.85479,2.41054 -0.18326,0.2025 -0.18048,0.21325 0.14096,0.54489 0.63997,0.66028 0.6395,0.66029 2.04187,-0.0764 2.63947,-1.3866 5.49643,-2.43041 8.35373,-3.05211 2.20933,-0.48071 3.02923,-0.56793 5.86268,-0.62359 3.74559,-0.0736 5.93541,0.12558 8.53156,0.77598 4.56782,1.14434 8.70181,3.12944 12.30897,5.91063 0.51197,0.39475 0.95104,0.76614 0.9757,0.82532 0.0388,0.0931 -1.52145,2.28137 -1.88806,2.64798 -0.10855,0.10855 -0.38227,-0.05 -1.54176,-0.89295 -4.07264,-2.9609 -8.3889,-4.77462 -13.09129,-5.50106 -1.42027,-0.21941 -5.63503,-0.31664 -7.24828,-0.16721 -2.21092,0.2048 -4.8642,0.81715 -7.16397,1.65338 -1.40399,0.51051 -3.69156,1.59009 -3.69156,1.74217 0,0.18116 0.84778,0.96635 1.04339,0.96635 0.0968,0 0.4502,-0.13839 0.78529,-0.30754 2.52058,-1.27239 5.77827,-2.19561 9.10979,-2.5817 1.89363,-0.21946 4.89234,-0.15223 6.89924,0.15467 4.71574,0.72115 8.6957,2.44129 12.81615,5.53916 0.49577,0.37273 0.90139,0.73276 0.90139,0.80006 0,0.11381 -1.65551,2.0034 -2.08399,2.37865 -0.18202,0.1594 -0.2494,0.12524 -1.3441,-0.6816 -3.58835,-2.64475 -7.45044,-4.16089 -11.72342,-4.60226 -1.53959,-0.15903 -5.42764,-0.0673 -6.64386,0.15679 -2.58087,0.47546 -6.52344,1.81058 -6.52344,2.2091 0,0.17425 0.56916,0.97211 0.74031,1.03779 0.0689,0.0265 0.57844,-0.13626 1.13222,-0.36159 2.96431,-1.20613 5.55855,-1.71875 8.69816,-1.71875 5.18143,0 9.51061,1.53316 14.15179,5.01182 l 0.27716,0.20774 -1.09654,1.00593 c -0.6031,0.55325 -1.19362,1.08784 -1.31227,1.18797 -0.21198,0.17889 -0.23573,0.16858 -1.36528,-0.59268 -2.34264,-1.57883 -5.03083,-2.62832 -7.92582,-3.09429 -1.2424,-0.19997 -4.41871,-0.17085 -5.7649,0.0529 -2.04938,0.34056 -4.90523,1.3003 -4.90523,1.64846 0,0.18717 0.48828,1.14632 0.58325,1.14573 0.0408,-2.6e-4 0.43825,-0.14235 0.88327,-0.31577 2.43163,-0.94757 3.58281,-1.14961 6.52343,-1.14487 2.67654,0.005 3.50202,0.12692 5.47643,0.81333 1.50627,0.52367 3.83088,1.73362 4.73857,2.46642 l 0.25285,0.20413 -0.25285,0.20593 c -0.81461,0.66348 -2.53561,1.91798 -2.63121,1.91798 -0.062,0 -0.53069,-0.22534 -1.04162,-0.50075 -1.23681,-0.66669 -3.07315,-1.26735 -4.51939,-1.47829 -1.39352,-0.20324 -3.56239,-0.1563 -4.80409,0.10399 -1.21083,0.25381 -3.287,0.96415 -3.287,1.1246 0,0.0748 0.0959,0.39242 0.21318,0.70579 0.24693,0.65998 0.0853,0.65458 1.80959,0.0604 1.62673,-0.56052 2.89836,-0.76257 4.31105,-0.68496 1.95814,0.10756 3.61706,0.52989 5.18273,1.31941 0.88872,0.44815 1.02659,0.29115 -1.38996,1.58266 l -1.73963,0.92973 -0.75494,-0.12913 c -1.10119,-0.18837 -3.22758,-0.0833 -4.14274,0.20479 -0.8801,0.27701 -1.92006,0.74222 -2.01973,0.90349 -0.0892,0.14436 0.0176,1.10766 0.14585,1.31517 0.0743,0.12015 0.2759,0.0619 1.16053,-0.3352 1.10358,-0.4954 2.13033,-0.7723 2.83726,-0.76519 l 0.40456,0.004 -0.55627,0.25334 c -1.4568,0.66347 -5.52504,2.07108 -6.98514,2.41685 -0.25755,0.061 -0.26075,0.0539 -0.44177,-0.9815 z m -14.47959,2.78215 -0.41455,-0.0426 -0.12806,-0.72819 c -0.60342,-3.43108 -2.51667,-7.02926 -5.14297,-9.67214 -6.47198,-6.51284 -16.91623,-7.37423 -24.3698,-2.00991 l -0.83632,0.6019 -0.32678,-0.2724 c -0.17972,-0.14981 -0.77703,-0.70799 -1.32734,-1.24038 l -1.00058,-0.968 0.39374,-0.33909 c 0.80855,-0.69634 2.83324,-1.97639 4.17954,-2.6424 6.24859,-3.09111 13.58836,-3.09385 19.82046,-0.007 5.46278,2.70545 9.5731,7.40105 11.46761,13.1005 0.47928,1.44187 1.06241,4.03974 0.93537,4.16704 -0.0788,0.0789 -2.59746,0.11998 -3.25032,0.053 z m 14.57922,-1.98724 c -1.29285,-8.05396 -4.90765,-14.90021 -10.62482,-20.12287 -5.45095,-4.97947 -11.95772,-7.90919 -19.51975,-8.7889 -1.61894,-0.18833 -5.8436,-0.15637 -7.48426,0.0566 -6.58856,0.85535 -12.28042,3.24022 -17.32946,7.26099 -0.50953,0.40576 -0.54715,0.41936 -0.6574,0.23762 -0.0643,-0.10602 -0.46788,-0.82851 -0.8968,-1.60553 l -0.77984,-1.41276 0.57756,-0.45013 c 5.35819,-4.17598 11.57165,-6.73633 18.63081,-7.67711 1.65853,-0.22104 6.81732,-0.2533 8.44508,-0.0528 5.80138,0.71452 10.88855,2.45481 15.58999,5.33322 0.58879,0.36049 1.10577,0.65543 1.14884,0.65543 0.0431,0 0.6864,-0.3691 1.42962,-0.82022 4.41008,-2.67684 9.4721,-4.41313 14.90388,-5.11207 1.76557,-0.22718 6.79289,-0.25983 8.44507,-0.0548 7.12605,0.88415 13.30238,3.35083 18.72804,7.47951 l 0.87707,0.66741 -0.39442,0.78446 c -0.33653,0.66933 -1.25777,2.29341 -1.36127,2.39984 -0.0183,0.0188 -0.50339,-0.32821 -1.07787,-0.77129 -4.86456,-3.75194 -10.44294,-6.02784 -16.82212,-6.86318 -1.81163,-0.23723 -6.04462,-0.23785 -7.93579,-10e-4 -2.76921,0.34659 -5.58601,1.03151 -8.04411,1.95597 -2.04723,0.76994 -5.57691,2.54331 -5.49175,2.75914 0.0167,0.0422 0.25108,0.2667 0.52096,0.49893 l 0.4907,0.42222 0.41955,-0.24563 c 2.2594,-1.3228 5.58974,-2.64947 8.29741,-3.30534 3.01548,-0.73044 5.2031,-0.95283 8.63602,-0.87793 3.56549,0.0778 5.96261,0.47896 9.17533,1.53558 3.80559,1.2516 7.09155,3.01037 10.1862,5.45204 0.77909,0.6147 0.78005,0.61605 0.61701,0.87067 -0.29582,0.46196 -1.85556,2.52062 -1.95747,2.5836 -0.0549,0.0339 -0.51324,-0.26443 -1.01855,-0.66303 -3.06997,-2.42167 -6.85171,-4.28652 -10.66987,-5.26155 -2.68956,-0.68682 -4.02899,-0.84324 -7.22061,-0.84324 -2.36108,0 -2.99525,0.0334 -4.19726,0.22111 -3.15363,0.49247 -6.09088,1.41851 -8.77973,2.76803 l -0.78979,0.39639 0.41993,0.50156 c 0.23097,0.27587 0.48511,0.50157 0.56475,0.50157 0.0797,0 0.47365,-0.16563 0.87555,-0.36807 3.97192,-2.00068 9.16359,-3.01123 13.72246,-2.67106 6.04017,0.4507 11.02931,2.47167 16.005,6.48321 0.18654,0.15039 0.14277,0.21368 -1.02907,1.48795 l -1.22391,1.33087 -1.03296,-0.7842 c -4.28798,-3.25533 -9.11083,-4.87186 -14.53497,-4.87186 -2.7148,0 -4.84732,0.32539 -7.32076,1.11706 -1.03701,0.33191 -3.05342,1.13325 -3.18771,1.26681 -0.0862,0.0858 0.71747,1.16985 0.83099,1.12088 2.19249,-0.94586 3.50136,-1.37744 5.24282,-1.72874 3.39571,-0.68501 6.84934,-0.57884 10.25013,0.31512 2.79642,0.7351 5.74987,2.21292 8.11377,4.0599 l 0.62952,0.49185 -1.13734,1.0528 c -0.62554,0.57904 -1.23444,1.13556 -1.35309,1.23672 -0.21183,0.18056 -0.22718,0.1755 -0.84288,-0.27775 -5.17486,-3.80953 -12.06114,-4.70737 -18.07759,-2.35701 -0.57018,0.22274 -1.03668,0.44582 -1.03668,0.49574 0,0.0703 0.46887,1.07089 0.54642,1.16612 0.009,0.0111 0.45504,-0.15639 0.99116,-0.37213 2.22698,-0.89619 4.52826,-1.27918 7.10977,-1.18326 2.46643,0.0917 4.46491,0.58206 6.7183,1.6486 1.15427,0.54633 3.14272,1.78771 3.14272,1.96199 0,0.0991 -2.79872,2.22307 -2.9293,2.22307 -0.0431,0 -0.43906,-0.20435 -0.87988,-0.45409 -3.54018,-2.00574 -7.98938,-2.29166 -11.93509,-0.76698 l -0.82633,0.3193 0.20867,0.62788 c 0.11478,0.34533 0.22398,0.64589 0.24268,0.66791 0.0187,0.022 0.29665,-0.0775 0.61766,-0.22125 0.73125,-0.32737 2.16484,-0.74514 3.04654,-0.88781 1.94627,-0.31493 4.41263,-0.034 6.33617,0.72187 0.93203,0.36622 1.92943,0.88006 1.85274,0.95451 -0.11183,0.10856 -2.02672,1.17072 -2.91617,1.61754 l -1.06343,0.53422 -0.75707,-0.14831 c -1.03966,-0.20366 -2.9272,-0.1235 -3.93613,0.16716 -0.86249,0.24848 -2.23185,0.85669 -2.23185,0.99128 0,0.12605 0.22697,1.27996 0.25993,1.3215 0.0147,0.0186 0.45157,-0.17455 0.9707,-0.42925 0.51912,-0.25468 1.2136,-0.5312 1.54329,-0.61448 0.63872,-0.16135 2.27191,-0.32527 2.174,-0.21821 -0.0322,0.0352 -0.89688,0.39963 -1.92163,0.80994 -1.91725,0.76768 -3.69153,1.37335 -5.3241,1.81747 l -0.93243,0.25365 z m -4.85655,1.12045 c -0.0225,-0.0695 -0.095,-0.46776 -0.16112,-0.88496 -0.45581,-2.87513 -1.5526,-6.14612 -2.97388,-8.86908 -1.68736,-3.23272 -4.53004,-6.70357 -7.36654,-8.99438 -3.20757,-2.59048 -7.22989,-4.58576 -11.30014,-5.60545 -2.57751,-0.64572 -3.49957,-0.74608 -6.87448,-0.7482 -2.45228,-0.001 -3.3232,0.0347 -4.24783,0.17698 -4.80908,0.73978 -9.43354,2.66493 -13.2387,5.51124 -0.70108,0.52442 -1.32827,0.97472 -1.39376,1.0007 -0.156,0.0618 -2.21712,-2.68225 -2.09645,-2.79113 1.22768,-1.10774 4.02605,-2.94756 6.01044,-3.95164 3.24226,-1.64055 6.18938,-2.61571 9.83231,-3.25337 1.75809,-0.30774 6.92503,-0.38922 8.8825,-0.14007 7.95117,1.01203 14.59295,4.43644 20.10049,10.36351 3.4842,3.74961 6.05309,8.34487 7.4427,13.31361 0.28008,1.00143 0.86808,3.80782 0.86949,4.14984 5.3e-4,0.1924 -0.14143,0.24404 -1.46215,0.53097 -1.60227,0.3481 -1.96127,0.38208 -2.02288,0.19143 z m -5.11207,0.304 c -0.001,-0.53815 -0.48295,-2.63291 -0.91251,-3.97028 -2.79262,-8.69426 -10.38287,-15.01232 -19.56686,-16.28729 -1.67873,-0.23305 -5.88965,-0.1556 -7.38311,0.13579 -3.9285,0.76649 -7.19102,2.19363 -10.23776,4.47832 -0.51315,0.38481 -0.99494,0.69964 -1.07063,0.69964 -0.0757,0 -0.65406,-0.55105 -1.28525,-1.22456 l -1.14763,-1.22456 0.24606,-0.19805 c 2.43323,-1.95844 5.39869,-3.7007 7.96165,-4.67759 10.87436,-4.14488 23.27164,-0.90177 30.77407,8.05046 2.46035,2.93579 4.41367,6.59835 5.4454,10.21035 0.40014,1.40088 0.71759,2.94578 0.74546,3.62792 l 0.0228,0.55626 -0.96082,0.0684 c -0.52845,0.0376 -1.33629,0.0947 -1.79521,0.12702 l -0.83439,0.0586 z m 10e-4,0.17937 c 0,-0.60471 -0.53924,-2.90938 -1.01825,-4.35192 -2.87633,-8.6621 -10.47786,-14.88328 -19.6445,-16.07728 -1.54926,-0.2018 -4.45812,-0.2018 -6.00739,0 -4.59535,0.59856 -8.45113,2.26579 -12.31644,5.32559 -0.21223,0.16801 -0.23992,0.14593 -1.44566,-1.1524 l -1.22928,-1.32369 0.72946,-0.60086 c 1.86937,-1.53981 5.12704,-3.42188 7.40461,-4.27789 5.58594,-2.09947 11.22488,-2.39995 16.92907,-0.9021 10.68312,2.80524 18.76768,11.95918 20.28113,22.9638 l 0.0571,0.41532 -0.68157,0.0655 c -0.37485,0.036 -1.21632,0.0951 -1.86993,0.1312 l -1.18838,0.0657 z m 5.00669,-0.78679 c -0.24577,-1.88537 -1.05628,-4.89465 -1.82184,-6.76415 -1.56238,-3.81533 -3.64021,-6.91171 -6.5879,-9.81726 -1.50172,-1.48025 -2.45344,-2.25361 -4.23292,-3.43965 -3.5091,-2.33883 -7.52181,-3.88485 -11.79345,-4.5438 -1.2041,-0.18574 -1.90147,-0.22584 -4.03474,-0.23197 -2.73493,-0.008 -3.85021,0.0863 -5.91809,0.49973 -4.37716,0.87508 -8.93131,2.98884 -12.28686,5.7028 -0.4172,0.33742 -0.79288,0.61427 -0.83485,0.61521 -0.042,5.2e-4 -0.55499,-0.63922 -1.14005,-1.42257 l -1.06374,-1.42427 0.8872,-0.71186 c 4.68958,-3.76274 10.84663,-6.24461 17.00424,-6.8543 1.49815,-0.14834 5.10654,-0.12618 6.58858,0.0404 6.23156,0.70068 11.6905,2.92208 16.68787,6.79076 1.4957,1.15787 4.35011,4.01277 5.50418,5.50512 2.91656,3.77143 4.91714,7.84495 6.01019,12.23777 0.30533,1.22706 0.74213,3.55484 0.67892,3.61805 -0.0595,0.0595 -3.14224,0.7296 -3.35945,0.73026 -0.18698,5.3e-4 -0.22794,-0.0751 -0.28729,-0.53033 z"
         inkscape:label="GREEN" /><use
         x="0"
         y="0"
         xlink:href="#path196"
         inkscape:transform-center-x="0.36978452"
         inkscape:transform-center-y="-186.53585"
         id="use207" /><use
         x="0"
         y="0"
         xlink:href="#g178"
         id="use208" /><use
         x="0"
         y="0"
         xlink:href="#path199"
         id="use209" /><use
         x="0"
         y="0"
         xlink:href="#path203"
         id="use210" /></g><g
       id="g24"
       transform="matrix(2.179558,0,0,2.179558,218.78409,92.419888)"><g
         data-v-423bf9ae=""
         id="2faa8fa5-323a-48de-9766-71be4383c051"
         fill="#6d6162"
         transform="matrix(5.469462,0,0,5.469462,61.415069,-0.2598003)"><path
           d="m 0.35,9.95 v 0 q 0,-1.68 1.18,-2.77 v 0 0 Q 2.7,6.09 4.21,6.09 v 0 0 q 1.52,0 2.68,1.09 v 0 0 q 1.16,1.08 1.16,2.76 v 0 0 q 0,1.16 -0.6,2.07 v 0 0 q -0.6,0.9 -1.46,1.33 v 0 0 Q 5.12,13.76 4.2,13.76 v 0 0 q -0.92,0 -1.79,-0.45 v 0 0 Q 1.54,12.85 0.95,11.96 v 0 0 Q 0.35,11.07 0.35,9.95 Z m 2.93,1.01 v 0 0 q 0.44,0.34 0.91,0.34 v 0 0 q 0.46,0 0.92,-0.35 v 0 0 Q 5.57,10.6 5.57,9.91 v 0 0 q 0,-0.68 -0.43,-1.02 v 0 0 Q 4.7,8.55 4.2,8.55 v 0 0 q -0.5,0 -0.94,0.35 v 0 0 Q 2.83,9.25 2.83,9.93 v 0 0 q 0,0.68 0.45,1.03 z m 5.68,1.44 v -4.91 0 q 0,-0.32 0.02,-0.48 v 0 0 Q 9,6.85 9.1,6.64 v 0 0 Q 9.3,6.27 10.19,6.27 v 0 0 q 0.67,0 0.95,0.24 v 0 0 q 0.24,0.2 0.26,0.6 v 0 0 q 0.01,0.14 0.01,0.41 v 0 4.9 0 q 0,0.32 -0.02,0.48 v 0 0 q -0.02,0.16 -0.13,0.37 v 0 0 q -0.19,0.37 -1.08,0.37 v 0 0 q -0.88,0 -1.08,-0.38 v 0 0 Q 9,13.05 8.98,12.89 v 0 0 Q 8.96,12.74 8.96,12.4 Z m 2.3,-7.51 v 0 0 q -0.1,0.21 -0.37,0.29 v 0 0 q -0.26,0.08 -0.7,0.08 v 0 0 q -0.45,0 -0.71,-0.08 v 0 0 Q 9.21,5.1 9.11,4.89 v 0 0 Q 9,4.68 8.98,4.52 v 0 0 Q 8.96,4.35 8.96,4.03 v 0 0 q 0,-0.32 0.02,-0.48 v 0 0 Q 9,3.39 9.1,3.19 v 0 0 Q 9.3,2.81 10.19,2.81 v 0 0 q 0.88,0 1.07,0.38 v 0 0 q 0.11,0.21 0.13,0.37 v 0 0 q 0.02,0.16 0.02,0.49 v 0 0 q 0,0.32 -0.02,0.48 v 0 0 q -0.02,0.16 -0.13,0.36 z m 1.27,5.79 v -6.66 0 q 0,-0.32 0.02,-0.48 v 0 0 q 0.02,-0.17 0.12,-0.38 v 0 0 q 0.2,-0.37 1.09,-0.37 v 0 0 q 0.86,0 1.07,0.37 v 0 0 q 0.11,0.21 0.13,0.38 v 0 0 q 0.02,0.17 0.02,0.49 v 0 6.48 0 q 0,0.51 0.08,0.64 v 0 0 q 0.09,0.13 0.38,0.13 v 0 0 q 0.28,0 0.38,0.03 v 0 0 q 0.1,0.02 0.24,0.11 v 0 0 q 0.28,0.19 0.28,1 v 0 0 q 0,0.88 -0.28,1.08 v 0 0 q -0.37,0.25 -1.74,0.08 v 0 0 q -1.08,-0.14 -1.4,-0.71 v 0 0 Q 12.53,12.18 12.53,10.68 Z M 23.06,7.24 v 0 0 q 0.66,-1 1.58,-1 v 0 0 q 1.43,0 2.13,1.22 v 0 0 q 0.15,-0.21 0.37,-0.44 v 0 0 q 0.22,-0.23 0.69,-0.5 v 0 0 q 0.48,-0.28 0.98,-0.28 v 0 0 q 1.12,0 1.88,0.87 v 0 0 q 0.75,0.86 0.75,2.84 v 0 2.45 0 q 0,0.33 -0.02,0.49 v 0 0 q -0.02,0.16 -0.13,0.37 v 0 0 q -0.18,0.38 -1.08,0.38 v 0 0 q -0.88,0 -1.08,-0.4 v 0 0 q -0.09,-0.21 -0.11,-0.37 v 0 0 q -0.03,-0.16 -0.03,-0.48 v 0 -2.45 0 q 0,-1.22 -0.86,-1.22 v 0 0 q -0.49,0 -0.67,0.32 v 0 0 q -0.17,0.33 -0.17,0.91 v 0 2.45 0 q 0,0.34 -0.02,0.49 v 0 0 q -0.03,0.16 -0.14,0.37 v 0 0 q -0.19,0.38 -1.09,0.38 v 0 0 q -0.88,0 -1.08,-0.4 v 0 0 q -0.1,-0.21 -0.12,-0.37 v 0 0 q -0.02,-0.16 -0.02,-0.48 v 0 -2.45 0 q 0,-1.22 -0.87,-1.22 v 0 0 q -0.84,0 -0.84,1.22 v 0 2.48 0 q 0,0.32 -0.02,0.48 v 0 0 q -0.02,0.16 -0.13,0.37 v 0 0 q -0.21,0.37 -1.09,0.37 v 0 0 q -0.88,0 -1.08,-0.38 v 0 0 q -0.1,-0.21 -0.12,-0.37 v 0 0 Q 20.65,12.74 20.65,12.4 v 0 -4.92 0 q 0,-0.33 0.02,-0.49 v 0 0 Q 20.69,6.83 20.8,6.64 v 0 0 q 0.21,-0.38 1,-0.38 v 0 0 q 0.78,0 1.02,0.25 v 0 0 q 0.24,0.25 0.24,0.73 z m 9.5,5.16 v -4.91 0 q 0,-0.32 0.03,-0.48 v 0 0 Q 32.61,6.85 32.7,6.64 v 0 0 q 0.2,-0.37 1.1,-0.37 v 0 0 q 0.67,0 0.95,0.24 v 0 0 q 0.24,0.2 0.25,0.6 v 0 0 q 0.01,0.14 0.01,0.41 v 0 4.9 0 q 0,0.32 -0.02,0.48 v 0 0 q -0.02,0.16 -0.13,0.37 v 0 0 q -0.18,0.37 -1.08,0.37 v 0 0 q -0.88,0 -1.08,-0.38 v 0 0 q -0.09,-0.21 -0.11,-0.37 v 0 0 Q 32.56,12.74 32.56,12.4 Z m 2.31,-7.51 v 0 0 Q 34.76,5.1 34.5,5.18 v 0 0 q -0.27,0.08 -0.71,0.08 v 0 0 q -0.44,0 -0.71,-0.08 v 0 0 Q 32.82,5.1 32.71,4.89 v 0 0 Q 32.61,4.68 32.59,4.52 v 0 0 Q 32.56,4.35 32.56,4.03 v 0 0 q 0,-0.32 0.03,-0.48 v 0 0 Q 32.61,3.39 32.7,3.19 v 0 0 q 0.2,-0.38 1.1,-0.38 v 0 0 q 0.88,0 1.06,0.38 v 0 0 q 0.11,0.21 0.13,0.37 v 0 0 q 0.02,0.16 0.02,0.49 v 0 0 q 0,0.32 -0.02,0.48 v 0 0 q -0.02,0.16 -0.12,0.36 z m 1.26,5.79 v -6.66 0 q 0,-0.32 0.03,-0.48 v 0 0 q 0.02,-0.17 0.11,-0.38 v 0 0 q 0.2,-0.37 1.1,-0.37 v 0 0 q 0.85,0 1.06,0.37 v 0 0 q 0.11,0.21 0.13,0.38 v 0 0 q 0.02,0.17 0.02,0.49 v 0 6.48 0 q 0,0.51 0.09,0.64 v 0 0 q 0.08,0.13 0.37,0.13 v 0 0 q 0.29,0 0.38,0.03 v 0 0 q 0.1,0.02 0.24,0.11 v 0 0 q 0.28,0.19 0.28,1 v 0 0 q 0,0.88 -0.28,1.08 v 0 0 q -0.36,0.25 -1.73,0.08 v 0 0 q -1.08,-0.14 -1.4,-0.71 v 0 0 q -0.4,-0.69 -0.4,-2.19 z m 4.58,0 v -6.66 0 q 0,-0.32 0.02,-0.48 v 0 0 q 0.02,-0.17 0.12,-0.38 v 0 0 q 0.2,-0.37 1.09,-0.37 v 0 0 q 0.86,0 1.07,0.37 v 0 0 q 0.11,0.21 0.13,0.38 v 0 0 q 0.02,0.17 0.02,0.49 v 0 6.48 0 q 0,0.51 0.09,0.64 v 0 0 q 0.08,0.13 0.37,0.13 v 0 0 q 0.28,0 0.38,0.03 v 0 0 q 0.1,0.02 0.24,0.11 v 0 0 q 0.28,0.19 0.28,1 v 0 0 q 0,0.88 -0.28,1.08 v 0 0 q -0.36,0.25 -1.74,0.08 v 0 0 q -1.07,-0.14 -1.4,-0.71 v 0 0 q -0.39,-0.69 -0.39,-2.19 z"
           id="path1"
           style="display:inline;fill:#9cd124;fill-opacity:1" /></g></g></g></svg>
