<?xml version="1.0" encoding="UTF-8" standalone="no"?>
<!-- Created with Inkscape (http://www.inkscape.org/) -->

<svg
   width="512"
   height="512"
   viewBox="0 0 135.46666 135.46667"
   version="1.1"
   id="svg1"
   sodipodi:docname="circle_logo.svg"
   inkscape:version="1.3 (0e150ed6c4, 2023-07-21)"
   xmlns:inkscape="http://www.inkscape.org/namespaces/inkscape"
   xmlns:sodipodi="http://sodipodi.sourceforge.net/DTD/sodipodi-0.dtd"
   xmlns="http://www.w3.org/2000/svg"
   xmlns:svg="http://www.w3.org/2000/svg">
  <sodipodi:namedview
     id="namedview1"
     pagecolor="#ffffff"
     bordercolor="#000000"
     borderopacity="0.25"
     inkscape:showpageshadow="2"
     inkscape:pageopacity="0.0"
     inkscape:pagecheckerboard="0"
     inkscape:deskcolor="#d1d1d1"
     inkscape:document-units="mm"
     inkscape:zoom="1.4449635"
     inkscape:cx="86.507374"
     inkscape:cy="238.41432"
     inkscape:window-width="1824"
     inkscape:window-height="1046"
     inkscape:window-x="-11"
     inkscape:window-y="-11"
     inkscape:window-maximized="1"
     inkscape:current-layer="g618" />
  <defs
     id="defs1" />
  <g
     inkscape:label="Layer 1"
     inkscape:groupmode="layer"
     id="layer1">
    <g
       id="g618"
       transform="matrix(0.58204076,0,0,0.58204076,-18.699858,6.6059416)"
       style="display:inline;stroke-width:1.7181"
       inkscape:label="circle logo">
      <path
         id="path615"
         style="color:#000000;display:inline;opacity:1;fill:#44aa00;fill-opacity:1;stroke:none;stroke-width:1.23159;stroke-linecap:round;stroke-linejoin:round;stroke-opacity:1;-inkscape-stroke:none"
         d="m 122.53423,75.097197 c -7.09477,0 -13.71945,2.02796 -19.33683,5.525965 0.008,0.0043 0.0134,0.0094 0.0203,0.01374 -5.621969,-3.506232 -12.254266,-5.539713 -19.358079,-5.539713 -10.433295,0 -19.851749,4.379576 -26.535028,11.389089 a 49.26345,49.26345 0 0 0 1.707681,3.812224 c 6.015177,-6.949825 14.897351,-11.347303 24.827256,-11.347303 18.15132,0 32.82451,14.673088 32.82451,32.824411 0,1.28265 -0.0812,2.5456 -0.22373,3.78957 a 49.26345,49.26345 0 0 0 5.33321,-1.93312 c -0.74369,-0.28695 -1.25547,-0.99519 -1.25547,-1.85636 0,-1.12543 0.87064,-1.99686 1.99606,-1.99686 1.12544,0 1.99649,0.87137 1.99649,1.9968 0,0.25159 -0.0495,0.48769 -0.12964,0.70696 a 49.26345,49.26345 0 0 0 3.8039,-2.06924 c -0.62337,-2.55758 -2.93327,-4.48779 -5.67066,-4.48779 -0.84908,0 -1.65587,0.18951 -2.38716,0.52118 -0.0644,-0.44078 -0.14249,-0.87685 -0.22243,-1.31243 0.80771,-0.31458 1.68582,-0.49342 2.60975,-0.49342 3.26579,1e-5 5.98937,2.156 6.84837,5.13159 a 49.26345,49.26345 0 0 0 3.21983,-2.37391 c -1.69965,-3.88097 -5.57744,-6.61095 -10.06848,-6.61095 -1.22605,0 -2.40271,0.21197 -3.50598,0.58648 -0.12277,-0.41474 -0.25382,-0.82529 -0.39073,-1.23379 1.22449,-0.407423 2.53178,-0.637358 3.89686,-0.637358 4.94959,0 9.18362,2.905198 11.12827,7.104918 a 49.26345,49.26345 0 0 0 2.98866,-2.60468 c -2.75182,-4.972255 -8.04964,-8.353507 -14.11684,-8.353507 -1.86096,0 -3.64208,0.333962 -5.30755,0.918171 -0.1805,-0.394719 -0.36616,-0.786222 -0.56012,-1.173302 1.8347,-0.654728 3.80365,-1.029539 5.86745,-1.029539 6.45462,0 12.05869,3.494996 15.06574,8.692447 a 49.26345,49.26345 0 0 0 2.76231,-2.82951 c -3.79566,-5.837818 -10.36403,-9.716205 -17.82796,-9.716205 -2.75312,0 -5.37784,0.543097 -7.79519,1.500686 -0.24135,-0.375945 -0.48756,-0.748266 -0.74209,-1.114688 2.63248,-1.074424 5.51328,-1.670668 8.53744,-1.670668 7.77569,0 14.61563,3.91416 18.66747,9.88273 a 49.26345,49.26345 0 0 0 2.39429,-3.188303 c -4.823,-6.39096 -12.45603,-10.547695 -21.06167,-10.547695 -3.9137,0 -7.62766,0.862184 -10.9716,2.396624 -0.29797,-0.343441 -0.60122,-0.682089 -0.91154,-1.014193 3.59933,-1.709006 7.6268,-2.667102 11.88292,-2.667101 8.91343,0 16.80918,4.209018 21.87004,10.732693 a 49.26345,49.26345 0 0 0 1.99381,-3.637525 c -5.78722,-6.698481 -14.33403,-10.949178 -23.86376,-10.949178 -5.35485,0 -10.3994,1.344522 -14.82024,3.707143 -0.35491,-0.304566 -0.71529,-0.602274 -1.08176,-0.893328 4.7095,-2.608827 10.12824,-4.097744 15.90178,-4.097744 9.76885,0 18.52567,4.254497 24.53453,11.009495 a 49.26345,49.26345 0 0 0 1.65036,-3.841431 c -6.66017,-6.796103 -15.9337,-11.022073 -26.1848,-11.022073 z m -38.674802,5.137928 c -9.69178,0 -18.370216,4.393463 -24.159643,11.290188 a 49.26345,49.26345 0 0 0 2.045443,3.623088 c 5.048068,-6.708589 13.053955,-11.059266 22.114108,-11.059266 15.313675,0 27.686814,12.372936 27.686814,27.686605 0,1.69004 -0.15871,3.34146 -0.44743,4.9472 a 49.26345,49.26345 0 0 0 4.0291,-0.87016 c 0.17315,-1.33578 0.27234,-2.69463 0.27234,-4.07695 0,-17.396273 -14.14446,-31.540705 -31.540732,-31.540705 z m 1.25e-4,5.13868 c -8.748084,0 -16.49307,4.294026 -21.29996,10.866059 a 49.26345,49.26345 0 0 0 2.408716,3.22766 c 4.01923,-6.165731 10.964026,-10.240451 18.891154,-10.240451 12.476028,0 22.548747,10.072776 22.548747,22.548787 0,1.90191 -0.25957,3.73759 -0.70056,5.50061 a 49.26345,49.26345 0 0 0 4.03374,-0.28227 c 0.3397,-1.68761 0.52009,-3.43239 0.52009,-5.21862 0,-14.558609 -11.843312,-26.401775 -26.401927,-26.401775 z m 1.27e-4,5.137938 c -7.605195,0 -14.2743,4.030855 -18.033676,10.054347 a 49.26345,49.26345 0 0 0 2.784646,2.79336 c 2.960848,-5.367381 8.66758,-8.994438 15.24894,-8.994438 9.63839,0 17.41069,7.772238 17.41069,17.410608 0,1.93106 -0.32452,3.78137 -0.90099,5.51511 a 49.26345,49.26345 0 0 0 2.50867,0.18358 49.26345,49.26345 0 0 0 1.47301,-0.1029 c 0.48895,-1.7864 0.77258,-3.65676 0.77258,-5.5957 0,-11.72097 -9.542902,-21.263967 -21.26387,-21.263967 z m -2.44e-4,5.137938 c -6.196854,0 -11.586479,3.529356 -14.284941,8.676629 a 49.26345,49.26345 0 0 0 3.031004,2.54407 c 1.885993,-4.34291 6.200386,-7.36743 11.253847,-7.36743 6.800723,0 12.272992,5.47207 12.272992,12.2728 0,1.78856 -0.38678,3.48061 -1.068379,5.00995 a 49.26345,49.26345 0 0 0 3.963393,0.407 c 0.609019,-1.69655 0.958255,-3.51493 0.958255,-5.41686 0,-8.88333 -7.24284,-16.126159 -16.126171,-16.126159 z m 1.27e-4,5.137939 c -4.596696,0 -8.549275,2.86023 -10.18291,6.88716 a 49.26345,49.26345 0 0 0 3.278434,2.32034 c 0.784846,-3.08954 3.558144,-5.35422 6.904386,-5.35423 3.963076,1e-5 7.134927,3.17193 7.134927,7.13498 0,1.43162 -0.418829,2.75649 -1.134388,3.86928 a 49.26345,49.26345 0 0 0 3.90009,0.85476 c 0.68945,-1.43448 1.087567,-3.03316 1.087567,-4.72432 0,-6.04566 -4.942442,-10.98797 -10.988106,-10.98797 z m 1.26e-4,5.13794 c -2.818537,0 -5.196867,2.04057 -5.733547,4.7115 a 49.26345,49.26345 0 0 0 4.046878,2.21782 c -0.19462,-0.30921 -0.309851,-0.67665 -0.309851,-1.07919 0,-1.12543 0.871021,-1.99686 1.99643,-1.99686 1.125439,0 1.996863,0.87137 1.996863,1.9968 0,0.95757 -0.633739,1.72526 -1.515138,1.93464 a 49.26345,49.26345 0 0 0 4.167921,1.56234 c 0.74199,-0.98073 1.200485,-2.18472 1.200485,-3.49689 0,-3.20803 -2.642004,-5.85016 -5.850041,-5.85016 z"
         transform="matrix(1.3950189,-0.00217833,0.00217833,1.3950189,4.7273856,9.9459878)" />
      <path
         id="path176-9"
         style="display:inline;fill:#f6e500;fill-opacity:1;fill-rule:nonzero;stroke:none;stroke-width:70.2094;stroke-linejoin:round;stroke-dasharray:none;stroke-opacity:1"
         inkscape:label="sun"
         d="m 142.07298,73.947941 a 38.910662,38.910662 0 0 0 -0.45217,0.04754 37.897776,16.211944 65.175496 0 1 -3.61011,9.569442 34.41795,14.723341 80.639243 0 1 -3.78892,-3.692798 35.337831,35.337831 0 0 0 -0.18552,0.0801 34.2316,14.803489 50.87818 0 1 0.27492,5.600175 37.897776,16.211944 65.175496 0 1 -10.42572,-3.431315 38.910662,38.910662 0 0 0 -0.17363,0.139526 37.692586,16.300196 35.414433 0 1 1.73168,10.568864 34.2316,14.803489 50.87818 0 1 -5.52835,-1.428337 34.053519,14.880906 20.602513 0 1 3.24218,4.977474 37.692586,16.300196 35.414433 0 1 -11.07012,2.177645 37.4965,16.385439 5.138766 0 1 7.11791,8.601023 34.053519,14.880906 20.602513 0 1 -5.58829,1.61489 14.876437,34.063746 80.082621 0 1 5.29787,2.7032 37.4965,16.385439 5.138766 0 1 -0.28888,0.51883 c 2.49721,-0.14898 5.0037,-0.10623 7.49877,0.0889 0.06,-5.04203 1.82246,-10.07914 5.05034,-13.965039 4.17749,-5.224885 10.88217,-8.115039 17.52503,-8.030518 2.21428,0.02817 4.42148,0.386805 6.52621,1.099675 0.40542,0.144027 0.80826,0.295154 1.20717,0.455786 0.39894,0.16062 0.79456,0.33058 1.18494,0.511597 6.52267,2.944779 11.28902,9.313069 12.4628,16.349909 0.22011,1.19042 0.32213,2.39491 0.32763,3.59874 1.27144,-0.13324 2.54597,-0.23431 3.82354,-0.27698 1.50924,-0.0534 3.01949,-0.0314 4.52634,0.0481 a 37.4965,16.385439 5.138766 0 1 7.73854,-6.68538 38.910662,38.910662 0 0 0 -0.0723,-0.28319 16.380519,37.507761 64.618874 0 1 -9.72086,-3.67006 14.876437,34.063746 80.082621 0 1 3.54501,-3.836458 35.337831,35.337831 0 0 0 -0.16589,-0.385506 14.79474,34.251847 49.850794 0 1 -5.41775,0.224275 16.380519,37.507761 64.618874 0 1 3.21169,-10.028845 38.910662,38.910662 0 0 0 -0.28991,-0.360185 16.290562,37.71488 34.387047 0 1 -9.86916,1.634009 14.79474,34.251847 49.850794 0 1 1.11156,-4.910294 35.337831,35.337831 0 0 0 -0.38086,-0.256832 l -5.1e-4,5.16e-4 a 14.719054,34.427972 20.131536 0 1 -4.46071,2.815333 16.290562,37.71488 34.387047 0 1 -2.28875,-10.242786 38.910662,38.910662 0 0 0 -0.48008,-0.160714 16.207223,37.908812 4.667789 0 1 -7.64863,6.243547 14.719054,34.427972 20.131536 0 1 -1.44849,-4.849833 35.337831,35.337831 0 0 0 -0.40772,-0.0677 34.41795,14.723341 80.639243 0 1 -2.47169,4.7625 16.207223,37.908812 4.667789 0 1 -7.16907,-7.86877 z" />
      <path
         id="circle510"
         style="display:inline;opacity:1;fill:#ffcc00;stroke-width:25.7714;stroke-linecap:round;stroke-linejoin:round"
         inkscape:label="core"
         d="m 148.49998,93.577751 a 18.655999,18.655999 0 0 0 -18.65623,18.656229 18.655999,18.655999 0 0 0 0.0196,0.27285 c 6.67784,0.98788 13.17276,3.19159 18.99781,6.6182 5.62239,-3.29761 11.85971,-5.51077 18.28674,-6.581 a 18.655999,18.655999 0 0 0 0.008,-0.31005 18.655999,18.655999 0 0 0 -18.65571,-18.656229 z" />
      <path
         id="path609"
         style="display:none;opacity:1;fill:#00defe;fill-opacity:1;stroke:none;stroke-width:0.154628;stroke-linecap:round;stroke-linejoin:round;stroke-dasharray:none;stroke-opacity:1"
         d="m 164.87521,39.570194 c -0.15633,-0.0203 -0.30988,0.03819 -0.46457,0.05219 -0.84112,0.24847 -1.31616,1.106589 -1.30328,1.947684 -1.85037,11.045026 -3.74588,22.086913 -5.56814,33.133895 0.0893,1.382108 2.148,1.708479 2.84065,0.596863 0.65471,-0.608406 0.94112,-1.700007 1.85157,-1.970939 0.53662,-0.03633 0.96947,0.480751 0.79427,1.000972 0.0885,2.15289 -0.14,4.524244 1.11983,6.403227 0.99435,1.24063 3.29361,0.497017 3.42149,-1.072803 4.08199,-11.086817 8.19809,-22.163991 12.25869,-33.256884 0.18188,-1.210721 -1.03818,-1.945426 -2.03554,-2.246892 -4.09357,-2.054772 -8.46844,-3.523741 -12.91497,-4.587317 z m -32.91376,0.451136 c -4.84988,1.122721 -9.5582,2.865744 -13.98364,5.146456 -0.94468,0.706599 -0.60026,2.03366 -0.12764,2.918168 3.59509,9.699355 7.21582,19.391879 10.82931,29.085046 0.50037,1.217599 0.87202,2.504211 1.45263,3.678845 0.88056,1.117446 2.84939,0.282789 2.86546,-1.076936 0.20134,-0.957008 -0.54521,-1.973302 -0.009,-2.867009 0.52934,-0.416463 1.07206,0.235276 1.3162,0.67076 0.75691,1.017515 2.5098,1.450398 3.37809,0.338998 0.91597,-1.578172 1.34586,-3.420789 1.42834,-5.227588 -1.82058,-10.564283 -3.60765,-21.137254 -5.44928,-31.696257 -0.24668,-0.679515 -1.01321,-1.016735 -1.69964,-0.970483 z m 18.74305,6.65179 c -1.20624,6.01e-4 -2.41316,0.01981 -3.61839,0.0083 -0.0733,2.15e-4 -0.14636,2.89e-4 -0.21962,5.17e-4 -1.61741,0.02263 -3.24704,0.05235 -4.84725,0.244946 -0.9497,0.335271 -0.90717,1.324425 -0.71314,2.02675 0.74492,6.770189 1.53559,13.536648 2.30787,20.304704 0.54674,0.870221 1.247,1.678538 1.83348,2.535246 0.6644,0.838685 1.45052,1.752171 2.63343,2.092378 1.12798,0.158689 1.97456,-0.767673 2.14199,-1.602486 0.11861,-0.450834 0.79492,-0.758301 1.23972,-0.395841 0.83273,0.406967 1.83657,-0.299975 1.84588,-1.029912 0.81495,-7.515476 1.67008,-15.128969 2.50062,-22.682853 0.23885,-0.757951 -0.64816,-1.367089 -1.49086,-1.399398 -1.20192,-0.08507 -2.40749,-0.10292 -3.61373,-0.102319 z m 34.84128,5.98103 c -0.55502,0.02487 -1.02706,0.366809 -1.22628,0.887285 -2.5773,5.708518 -5.20675,11.397317 -7.80314,17.098698 -0.92601,2.046099 -1.88333,4.080383 -2.7895,6.133992 -0.1875,0.616028 0.41165,1.08509 0.41858,1.662948 -0.29963,0.81961 -0.53262,1.948848 0.26717,2.569352 0.92248,0.709311 2.08245,0.157419 3.07733,-0.04754 0.76588,-0.200473 1.44713,-0.645877 2.22622,-0.803052 0.58294,0.377355 1.49212,0.720728 2.01383,0.06098 2.36358,-3.175715 4.5818,-6.455903 6.88899,-9.672278 2.13803,-3.048822 4.32439,-6.069342 6.43216,-9.135876 0.32912,-0.932862 -0.50158,-1.68982 -1.14411,-2.224671 -2.36633,-2.47368 -5.07569,-4.609997 -7.93337,-6.482291 -0.13796,-0.04484 -0.28331,-0.06242 -0.42788,-0.04754 z m -69.51152,9.976136 c -0.75267,0.138098 -1.25635,0.780184 -1.89549,1.14825 -2.05566,1.491953 -3.95106,3.20936 -5.67252,5.072559 -0.37399,0.701812 0.17947,1.411668 0.6227,1.922363 3.58358,5.088757 7.20779,10.148912 10.81588,15.220259 0.36764,0.448621 0.63448,1.00093 1.06763,1.382862 0.64294,0.322099 1.37072,0.667026 2.10323,0.544153 0.84605,-0.271993 1.10474,-1.335073 0.82476,-2.101164 -0.16369,-1.094994 -0.70889,-2.079973 -0.97979,-3.145545 0.1029,-0.305091 0.49193,-0.321178 0.68782,-0.101802 0.43415,0.272692 0.96601,0.711721 1.49241,0.378271 0.56033,-0.261526 0.71831,-1.03475 0.34468,-1.514636 -0.91364,-1.890489 -1.76017,-3.814589 -2.65151,-5.716447 -1.96388,-4.242884 -3.9009,-8.500261 -5.8813,-12.734106 -0.20261,-0.267625 -0.55269,-0.379354 -0.8785,-0.355017 z m -19.837031,3.327445 c -0.08745,-0.0031 -0.174982,-8.34e-4 -0.260449,0.0052 -0.994839,-0.0063 -1.360412,1.111224 -1.926498,1.736328 -2.133058,2.996882 -4.056443,6.164437 -5.534546,9.535335 -0.197614,1.067373 0.806072,1.762452 1.552877,2.30787 6.064667,5.030512 12.142027,10.065271 18.233517,15.069364 0.66517,0.411321 1.43497,-0.01742 1.9451,-0.478007 2.17519,0.02569 4.52336,0.321777 6.50399,-0.789099 1.08196,-0.782468 0.7261,-2.445755 -0.1881,-3.211174 -0.42722,-0.379279 -0.64551,-0.90405 -0.86765,-1.404048 C 109.429,81.206643 103.19358,73.686846 96.926383,66.199577 96.721667,66.027353 96.459572,65.967074 96.197229,65.957731 Z m 104.657691,0.638204 c -1.05182,0.107183 -1.4777,1.192725 -2.11873,1.83503 -6.22979,7.548916 -12.47881,15.083663 -18.69653,22.641512 -0.64316,1.038481 0.41006,2.352447 1.53944,2.288749 0.71854,0.08702 1.61258,-0.564358 2.18901,0.100253 0.34653,0.63906 -0.45649,1.060046 -0.80563,1.470194 -0.9265,0.71436 -0.8975,2.261384 0.0785,2.916618 0.81988,0.63092 2.06576,0.511044 2.72955,-0.290938 4.25637,-3.590574 8.56253,-7.122499 12.83643,-10.693404 3.13412,-2.626205 6.31169,-5.208156 9.41855,-7.862053 0.63904,-0.951518 -0.0637,-2.031691 -0.53434,-2.879927 -1.5236,-3.278104 -3.48842,-6.338524 -5.66012,-9.220626 -0.26547,-0.232509 -0.6281,-0.329338 -0.97617,-0.305408 z M 91.559269,89.561975 c -0.04429,-1.62e-4 -0.0887,0.0029 -0.132291,0.0083 -0.499368,0.0462 -0.934115,0.362088 -1.065052,0.858863 -0.908579,2.919169 -1.637325,5.91602 -1.911511,8.966377 0.120613,0.866555 1.061192,1.127865 1.74563,1.421615 6.306461,2.90644 12.630335,5.77669 18.943545,8.66924 0.77865,0.15874 1.56643,-0.0997 2.33836,-0.17725 0.87392,-0.37268 0.68096,-1.76113 -0.1757,-2.0314 -0.51692,-0.30345 -1.17748,-0.35037 -1.63504,-0.74104 -0.19065,-0.30889 0.046,-0.70675 0.41289,-0.66249 0.73431,-0.11838 1.68054,-0.24251 1.96371,-1.0573 0.23405,-0.81553 -0.52656,-1.42824 -1.16479,-1.76372 -6.30134,-4.480629 -12.626662,-8.929908 -18.937345,-13.398662 -0.116471,-0.06489 -0.249549,-0.09202 -0.382406,-0.0925 z m 110.217041,3.353284 c -0.0502,-6.5e-4 -0.10032,0.0017 -0.14986,0.0078 -0.78869,0.19466 -1.32808,0.860977 -2.01279,1.257288 -4.93311,3.518814 -9.88578,7.015463 -14.80685,10.548193 -0.61759,0.68397 0.13391,1.83457 0.99839,1.70067 0.36841,0.0658 0.52475,0.72201 0.0806,0.80771 -1.47328,0.89392 -3.15337,1.74106 -3.97702,3.33829 -0.24346,0.81805 0.64318,1.48271 1.39733,1.40405 0.80066,0.1089 1.71102,0.29876 2.41019,-0.23358 6.15009,-2.84192 12.31339,-5.66031 18.45521,-8.51679 0.66452,-0.50823 0.45518,-1.42059 0.31522,-2.12028 -0.33426,-2.625676 -0.97148,-5.210059 -1.81849,-7.714262 -0.18368,-0.306768 -0.54026,-0.474493 -0.89194,-0.47904 z m 12.74858,10.754381 c -1.43853,0.33644 -2.77317,1.01324 -4.17597,1.47123 -6.19949,2.32141 -12.41774,4.60416 -18.60559,6.94945 -1.06787,0.70932 -0.44278,2.50875 0.76223,2.63239 3.71668,0.99023 7.22913,2.62966 10.55078,4.54236 1.69561,0.24886 3.35179,-0.4285 5.02708,-0.59789 2.04658,-0.37939 4.12595,-0.63618 6.14691,-1.1188 1.12147,-0.65982 0.92322,-2.0972 1.18856,-3.18378 0.47878,-3.21797 0.82157,-6.48642 0.63149,-9.73894 -0.20512,-0.62543 -0.88851,-0.99707 -1.52549,-0.95602 z M 85.234591,105.5827 c -0.642199,0.0889 -1.158364,0.73634 -1.037146,1.38855 -0.07546,2.70996 0.254836,5.41801 0.737939,8.07961 0.111826,0.62531 0.67725,1.042 1.293978,1.07487 2.633601,0.39518 5.244363,0.94047 7.887891,1.27279 1.085032,-0.30282 2.01107,-1.03361 3.029789,-1.48105 1.798931,-0.9116 3.697178,-1.55091 5.640998,-2.11666 0.84484,-0.46102 0.48414,-1.84395 -0.40876,-2.00712 -5.62328,-2.03589 -11.223813,-4.1386 -16.841349,-6.18825 -0.100059,-0.0193 -0.201399,-0.0305 -0.30334,-0.0227 z m 0.605647,15.54789 c -0.07173,1.8e-4 -0.143762,0.001 -0.21549,0.004 -0.611459,0.19642 -0.935179,0.98692 -0.613916,1.55236 0.281655,0.89279 0.509143,1.81468 0.906921,2.66288 0.500638,0.62862 1.479055,0.31101 1.859318,-0.28628 0.729923,-0.80381 1.62729,-1.43519 2.396753,-2.19263 0.410695,-0.71396 -0.344594,-1.58715 -1.104842,-1.49345 -1.077102,-0.0448 -2.152814,-0.24922 -3.228744,-0.2465 z m 125.480192,0.0527 c -0.0677,-0.001 -0.13474,0.003 -0.2005,0.0129 -0.93489,0.14161 -1.93533,0.12774 -2.88665,0.33745 -0.7096,0.3538 -0.56478,1.4507 0.0858,1.78748 0.75769,0.52458 1.35012,1.26274 2.10219,1.78336 0.72142,0.2717 1.36639,-0.45555 1.43144,-1.12758 0.16602,-0.66894 0.52593,-1.31166 0.52762,-2.00815 -0.0949,-0.48826 -0.58612,-0.7752 -1.05989,-0.78548 z" />
      <path
         id="path597"
         style="display:inline;opacity:1;fill:#00aec7;fill-opacity:1;stroke:none;stroke-width:0.110843;stroke-linecap:round;stroke-linejoin:round;stroke-dasharray:none;stroke-opacity:1"
         inkscape:label="skyy"
         d="m 107.47003,19.162754 -7.516135,1.18e-4 a 49.26345,49.26345 0 0 0 -3.079024,0.21523 l 2.386161,25.501162 c 0.07172,0.05141 0.14485,0.101027 0.207558,0.163687 0.99406,1.473295 1.68886,3.258978 3.17268,4.332009 0.62955,0.186221 0.77323,-0.586613 0.95766,-1.002384 0.1572,-0.954655 1.11574,-1.688527 2.08021,-1.557767 0.37624,0.02544 0.67082,0.192994 0.90096,0.435187 l 2.60993,-27.891559 a 49.26345,49.26345 0 0 0 -1.72,-0.195683 z m 6.66836,1.085046 -4.76493,28.009326 c 0.4594,-0.479625 0.88023,-0.998134 1.27557,-1.529758 0.63315,-1.26122 2.73665,-1.040692 3.20908,0.238756 0.15611,1.170833 -1.9e-4,2.377517 0.16633,3.555698 0.10273,0.610507 0.15401,1.31254 0.4954,1.819982 0.23944,0.254604 0.49274,0.199572 0.73559,0.0556 L 125.60824,24.478672 A 49.26345,49.26345 0 0 0 114.13839,20.2478 Z M 91.939203,20.31908 A 49.26345,49.26345 0 0 0 80.47733,24.500808 l 10.47219,28.241304 c 0.122543,-0.04509 0.233646,-0.130409 0.3242,-0.281395 0.109133,-0.363723 -0.05134,-0.833968 -0.06735,-1.233655 -0.337559,-0.894303 0.106083,-1.990319 1.013454,-2.335864 0.853684,-0.379441 1.648581,0.301006 2.153749,0.924635 0.265651,0.427758 0.606221,0.650243 1.103575,0.444023 0.503673,-1.044922 0.757567,-2.185635 0.955724,-3.322053 -0.0039,-0.06165 0.0019,-0.126403 0.0025,-0.189659 z m 37.945527,6.653372 -11.3926,24.821013 c 0.64541,0.559667 0.57648,1.532659 0.31502,2.278669 -0.21909,0.416007 -0.16507,0.773065 0.2102,1.078666 1.33753,-0.08464 2.6075,-0.556118 3.83419,-1.064942 0.69514,-0.475108 1.58493,-0.215732 2.14279,0.349703 L 139.0158,34.665465 a 49.26345,49.26345 0 0 0 -9.13107,-7.693013 z M 76.162839,26.89264 a 49.26345,49.26345 0 0 0 -9.104019,7.719363 l 15.976892,22.527044 c 0.531797,0.107967 1.071118,0.386383 1.572071,0.510692 0.432763,-0.08031 0.672147,-0.516591 0.507133,-0.95345 -0.134989,-1.431432 -0.740807,-2.741515 -1.224222,-4.075959 -0.591503,-1.096787 0.596162,-2.450694 1.756707,-2.200607 0.602559,0.28434 1.179835,0.630115 1.759904,0.971066 z m 65.945191,11.440518 -18.73339,22.601014 c 0.17933,0.536557 0.86573,0.3008 1.29537,0.267255 0.91162,-0.355091 2.02016,0.112572 2.3992,1.016887 0.42624,0.876705 -0.22671,1.748637 -0.86708,2.301272 -0.41444,0.274044 -0.64087,0.614398 -0.43328,1.107296 0.24477,0.125784 0.49665,0.233502 0.75146,0.332713 l 21.43261,-17.76447 a 49.26345,49.26345 0 0 0 -5.84489,-9.861967 z m -78.128815,-0.0505 a 49.26345,49.26345 0 0 0 -5.937746,9.750959 l 17.835603,14.783772 c 0.22705,-0.330997 0.552243,-0.591249 0.947878,-0.669008 1.626122,0.03361 3.301261,0.237435 4.89639,-0.222024 0.417793,-0.08213 0.796117,-0.230008 0.812004,-0.717377 -0.09757,-0.397413 -0.498731,-0.734714 -0.726563,-1.097252 -0.370425,-0.256131 -0.568269,-0.652043 -0.624729,-1.074127 z M 149.61508,52.449211 129.56307,66.67077 c 0.11252,0.01462 0.22499,0.03398 0.33739,0.0472 1.33497,-0.130623 2.27008,1.684739 1.44306,2.711617 -1.33868,0.983493 -2.96515,1.592231 -4.12624,2.821831 -0.37572,0.303 -0.63164,0.730976 -0.89344,1.149548 0.77534,0.07853 1.54917,0.171873 2.31847,0.296634 l 23.29151,-10.690697 a 49.26345,49.26345 0 0 0 -2.31874,-10.557694 z m -93.181704,-0.12476 a 49.26345,49.26345 0 0 0 -2.35498,10.516687 l 23.664231,10.861444 c 0.672266,-0.105618 1.34718,-0.19195 2.024097,-0.261331 -0.510867,-0.327359 -1.117941,-0.533262 -1.661657,-0.786435 -1.020914,-0.09218 -1.623648,-1.259353 -1.363109,-2.194365 0.224133,-0.959542 1.32951,-1.083359 2.137099,-1.222804 0.371338,-0.0073 0.647328,-0.146503 0.785264,-0.436999 z m -2.664988,14.757318 a 49.26345,49.26345 0 0 0 -0.07684,1.052286 49.26345,49.26345 0 0 0 0.901427,8.914083 l 9.533214,1.621834 c 0.56651,-0.335684 1.137674,-0.6627 1.716633,-0.971934 2.536023,-1.38444 5.234985,-2.426154 8.014499,-3.166932 z m 98.426592,0.192219 -19.6159,7.273984 c 3.4668,0.942329 6.80037,2.367733 9.87588,4.222826 l 8.8187,-1.500199 a 49.26345,49.26345 0 0 0 0.94493,-8.982693 49.26345,49.26345 0 0 0 -0.0236,-1.013918 z M 55.417523,80.86861 a 49.26345,49.26345 0 0 0 1.175495,3.729156 c 1.113571,-1.189664 2.32848,-2.280922 3.61872,-3.280482 z m 95.018917,0.2232 -4.07317,0.381115 c 1.07428,0.848271 2.10336,1.752904 3.07741,2.717133 a 49.26345,49.26345 0 0 0 0.99576,-3.098248 z"
         inkscape:transform-center-y="-89.539458"
         transform="matrix(1.3950189,-0.00217833,0.00217833,1.3950189,4.7273856,9.9459878)" />
    </g>
  </g>
</svg>
