<?xml version="1.0" encoding="UTF-8" standalone="no"?>
<!-- Created with Inkscape (http://www.inkscape.org/) -->

<svg
   width="3500"
   height="1440"
   viewBox="0 0 926.04165 381"
   version="1.1"
   id="svg1"
   xml:space="preserve"
   sodipodi:docname="logo_seed.svg"
   inkscape:version="1.3 (0e150ed6c4, 2023-07-21)"
   xmlns:inkscape="http://www.inkscape.org/namespaces/inkscape"
   xmlns:sodipodi="http://sodipodi.sourceforge.net/DTD/sodipodi-0.dtd"
   xmlns="http://www.w3.org/2000/svg"
   xmlns:svg="http://www.w3.org/2000/svg"><sodipodi:namedview
     id="namedview1"
     pagecolor="#ffffff"
     bordercolor="#000000"
     borderopacity="0.25"
     inkscape:showpageshadow="false"
     inkscape:pageopacity="0.0"
     inkscape:pagecheckerboard="0"
     inkscape:deskcolor="#d1d1d1"
     inkscape:document-units="px"
     inkscape:zoom="0.72248176"
     inkscape:cx="878.22286"
     inkscape:cy="746.73166"
     inkscape:window-width="1824"
     inkscape:window-height="1046"
     inkscape:window-x="-11"
     inkscape:window-y="-11"
     inkscape:window-maximized="1"
     inkscape:current-layer="layer1"
     showguides="true"><sodipodi:guide
       position="95.565273,129.73021"
       orientation="0,-1"
       id="guide6"
       inkscape:locked="false" /><sodipodi:guide
       position="80.248422,230.80738"
       orientation="1,0"
       id="guide7"
       inkscape:locked="false" /><sodipodi:guide
       position="-39.360824,64.559687"
       orientation="0,-1"
       id="guide8"
       inkscape:locked="false" /><sodipodi:guide
       position="138.28079,310.43811"
       orientation="0,-1"
       id="guide9"
       inkscape:locked="false" /><sodipodi:guide
       position="300.02368,232.69035"
       orientation="1,0"
       id="guide10"
       inkscape:locked="false" /><sodipodi:guide
       position="356.81415,154.67941"
       orientation="1,0"
       id="guide11"
       inkscape:locked="false" /><sodipodi:guide
       position="429.93588,255.88674"
       orientation="0,-1"
       id="guide12"
       inkscape:locked="false" /><sodipodi:guide
       position="873.4217,279.74167"
       orientation="1,0"
       id="guide13"
       inkscape:locked="false" /><sodipodi:guide
       position="67.031582,196.49006"
       orientation="0,-1"
       id="guide14"
       inkscape:locked="false" /></sodipodi:namedview><defs
     id="defs1" /><g
     inkscape:label="Layer 1"
     inkscape:groupmode="layer"
     id="layer1"><g
       id="g24"
       transform="matrix(2.179558,0,0,2.179558,208.84065,92.419893)"
       style="fill:#ffffff"><g
         data-v-423bf9ae=""
         id="2faa8fa5-323a-48de-9766-71be4383c051"
         fill="#6d6162"
         transform="matrix(5.469462,0,0,5.469462,61.415069,-0.2598003)"
         style="display:inline;fill:#ffffff"><path
           d="m 0.35,9.95 v 0 q 0,-1.68 1.18,-2.77 v 0 0 Q 2.7,6.09 4.21,6.09 v 0 0 q 1.52,0 2.68,1.09 v 0 0 q 1.16,1.08 1.16,2.76 v 0 0 q 0,1.16 -0.6,2.07 v 0 0 q -0.6,0.9 -1.46,1.33 v 0 0 Q 5.12,13.76 4.2,13.76 v 0 0 q -0.92,0 -1.79,-0.45 v 0 0 Q 1.54,12.85 0.95,11.96 v 0 0 Q 0.35,11.07 0.35,9.95 Z m 2.93,1.01 v 0 0 q 0.44,0.34 0.91,0.34 v 0 0 q 0.46,0 0.92,-0.35 v 0 0 Q 5.57,10.6 5.57,9.91 v 0 0 q 0,-0.68 -0.43,-1.02 v 0 0 Q 4.7,8.55 4.2,8.55 v 0 0 q -0.5,0 -0.94,0.35 v 0 0 Q 2.83,9.25 2.83,9.93 v 0 0 q 0,0.68 0.45,1.03 z m 5.68,1.44 v -4.91 0 q 0,-0.32 0.02,-0.48 v 0 0 Q 9,6.85 9.1,6.64 v 0 0 Q 9.3,6.27 10.19,6.27 v 0 0 q 0.67,0 0.95,0.24 v 0 0 q 0.24,0.2 0.26,0.6 v 0 0 q 0.01,0.14 0.01,0.41 v 0 4.9 0 q 0,0.32 -0.02,0.48 v 0 0 q -0.02,0.16 -0.13,0.37 v 0 0 q -0.19,0.37 -1.08,0.37 v 0 0 q -0.88,0 -1.08,-0.38 v 0 0 Q 9,13.05 8.98,12.89 v 0 0 Q 8.96,12.74 8.96,12.4 Z m 2.3,-7.51 v 0 0 q -0.1,0.21 -0.37,0.29 v 0 0 q -0.26,0.08 -0.7,0.08 v 0 0 q -0.45,0 -0.71,-0.08 v 0 0 Q 9.21,5.1 9.11,4.89 v 0 0 Q 9,4.68 8.98,4.52 v 0 0 Q 8.96,4.35 8.96,4.03 v 0 0 q 0,-0.32 0.02,-0.48 v 0 0 Q 9,3.39 9.1,3.19 v 0 0 Q 9.3,2.81 10.19,2.81 v 0 0 q 0.88,0 1.07,0.38 v 0 0 q 0.11,0.21 0.13,0.37 v 0 0 q 0.02,0.16 0.02,0.49 v 0 0 q 0,0.32 -0.02,0.48 v 0 0 q -0.02,0.16 -0.13,0.36 z m 1.27,5.79 v -6.66 0 q 0,-0.32 0.02,-0.48 v 0 0 q 0.02,-0.17 0.12,-0.38 v 0 0 q 0.2,-0.37 1.09,-0.37 v 0 0 q 0.86,0 1.07,0.37 v 0 0 q 0.11,0.21 0.13,0.38 v 0 0 q 0.02,0.17 0.02,0.49 v 0 6.48 0 q 0,0.51 0.08,0.64 v 0 0 q 0.09,0.13 0.38,0.13 v 0 0 q 0.28,0 0.38,0.03 v 0 0 q 0.1,0.02 0.24,0.11 v 0 0 q 0.28,0.19 0.28,1 v 0 0 q 0,0.88 -0.28,1.08 v 0 0 q -0.37,0.25 -1.74,0.08 v 0 0 q -1.08,-0.14 -1.4,-0.71 v 0 0 Q 12.53,12.18 12.53,10.68 Z M 23.06,7.24 v 0 0 q 0.66,-1 1.58,-1 v 0 0 q 1.43,0 2.13,1.22 v 0 0 q 0.15,-0.21 0.37,-0.44 v 0 0 q 0.22,-0.23 0.69,-0.5 v 0 0 q 0.48,-0.28 0.98,-0.28 v 0 0 q 1.12,0 1.88,0.87 v 0 0 q 0.75,0.86 0.75,2.84 v 0 2.45 0 q 0,0.33 -0.02,0.49 v 0 0 q -0.02,0.16 -0.13,0.37 v 0 0 q -0.18,0.38 -1.08,0.38 v 0 0 q -0.88,0 -1.08,-0.4 v 0 0 q -0.09,-0.21 -0.11,-0.37 v 0 0 q -0.03,-0.16 -0.03,-0.48 v 0 -2.45 0 q 0,-1.22 -0.86,-1.22 v 0 0 q -0.49,0 -0.67,0.32 v 0 0 q -0.17,0.33 -0.17,0.91 v 0 2.45 0 q 0,0.34 -0.02,0.49 v 0 0 q -0.03,0.16 -0.14,0.37 v 0 0 q -0.19,0.38 -1.09,0.38 v 0 0 q -0.88,0 -1.08,-0.4 v 0 0 q -0.1,-0.21 -0.12,-0.37 v 0 0 q -0.02,-0.16 -0.02,-0.48 v 0 -2.45 0 q 0,-1.22 -0.87,-1.22 v 0 0 q -0.84,0 -0.84,1.22 v 0 2.48 0 q 0,0.32 -0.02,0.48 v 0 0 q -0.02,0.16 -0.13,0.37 v 0 0 q -0.21,0.37 -1.09,0.37 v 0 0 q -0.88,0 -1.08,-0.38 v 0 0 q -0.1,-0.21 -0.12,-0.37 v 0 0 Q 20.65,12.74 20.65,12.4 v 0 -4.92 0 q 0,-0.33 0.02,-0.49 v 0 0 Q 20.69,6.83 20.8,6.64 v 0 0 q 0.21,-0.38 1,-0.38 v 0 0 q 0.78,0 1.02,0.25 v 0 0 q 0.24,0.25 0.24,0.73 z m 9.5,5.16 v -4.91 0 q 0,-0.32 0.03,-0.48 v 0 0 Q 32.61,6.85 32.7,6.64 v 0 0 q 0.2,-0.37 1.1,-0.37 v 0 0 q 0.67,0 0.95,0.24 v 0 0 q 0.24,0.2 0.25,0.6 v 0 0 q 0.01,0.14 0.01,0.41 v 0 4.9 0 q 0,0.32 -0.02,0.48 v 0 0 q -0.02,0.16 -0.13,0.37 v 0 0 q -0.18,0.37 -1.08,0.37 v 0 0 q -0.88,0 -1.08,-0.38 v 0 0 q -0.09,-0.21 -0.11,-0.37 v 0 0 Q 32.56,12.74 32.56,12.4 Z m 2.31,-7.51 v 0 0 Q 34.76,5.1 34.5,5.18 v 0 0 q -0.27,0.08 -0.71,0.08 v 0 0 q -0.44,0 -0.71,-0.08 v 0 0 Q 32.82,5.1 32.71,4.89 v 0 0 Q 32.61,4.68 32.59,4.52 v 0 0 Q 32.56,4.35 32.56,4.03 v 0 0 q 0,-0.32 0.03,-0.48 v 0 0 Q 32.61,3.39 32.7,3.19 v 0 0 q 0.2,-0.38 1.1,-0.38 v 0 0 q 0.88,0 1.06,0.38 v 0 0 q 0.11,0.21 0.13,0.37 v 0 0 q 0.02,0.16 0.02,0.49 v 0 0 q 0,0.32 -0.02,0.48 v 0 0 q -0.02,0.16 -0.12,0.36 z m 1.26,5.79 v -6.66 0 q 0,-0.32 0.03,-0.48 v 0 0 q 0.02,-0.17 0.11,-0.38 v 0 0 q 0.2,-0.37 1.1,-0.37 v 0 0 q 0.85,0 1.06,0.37 v 0 0 q 0.11,0.21 0.13,0.38 v 0 0 q 0.02,0.17 0.02,0.49 v 0 6.48 0 q 0,0.51 0.09,0.64 v 0 0 q 0.08,0.13 0.37,0.13 v 0 0 q 0.29,0 0.38,0.03 v 0 0 q 0.1,0.02 0.24,0.11 v 0 0 q 0.28,0.19 0.28,1 v 0 0 q 0,0.88 -0.28,1.08 v 0 0 q -0.36,0.25 -1.73,0.08 v 0 0 q -1.08,-0.14 -1.4,-0.71 v 0 0 q -0.4,-0.69 -0.4,-2.19 z m 4.58,0 v -6.66 0 q 0,-0.32 0.02,-0.48 v 0 0 q 0.02,-0.17 0.12,-0.38 v 0 0 q 0.2,-0.37 1.09,-0.37 v 0 0 q 0.86,0 1.07,0.37 v 0 0 q 0.11,0.21 0.13,0.38 v 0 0 q 0.02,0.17 0.02,0.49 v 0 6.48 0 q 0,0.51 0.09,0.64 v 0 0 q 0.08,0.13 0.37,0.13 v 0 0 q 0.28,0 0.38,0.03 v 0 0 q 0.1,0.02 0.24,0.11 v 0 0 q 0.28,0.19 0.28,1 v 0 0 q 0,0.88 -0.28,1.08 v 0 0 q -0.36,0.25 -1.74,0.08 v 0 0 q -1.07,-0.14 -1.4,-0.71 v 0 0 q -0.39,-0.69 -0.39,-2.19 z"
           id="path1"
           style="fill:#ffffff" /></g></g><g
       id="g618"
       transform="matrix(1.6035071,0,0,1.6069085,-75.075415,21.738406)"
       style="display:none;stroke-width:0.622976"
       inkscape:label="circle logo"><path
         id="path615"
         style="color:#000000;display:inline;opacity:1;fill:#44aa00;fill-opacity:1;stroke:none;stroke-width:0.446568;stroke-linecap:round;stroke-linejoin:round;stroke-opacity:1;-inkscape-stroke:none"
         d="m 122.53423,75.097197 c -7.09477,0 -13.71945,2.02796 -19.33683,5.525965 0.008,0.0043 0.0134,0.0094 0.0203,0.01374 -5.621969,-3.506232 -12.254266,-5.539713 -19.358079,-5.539713 -10.433295,0 -19.851749,4.379576 -26.535028,11.389089 a 49.26345,49.26345 0 0 0 1.707681,3.812224 c 6.015177,-6.949825 14.897351,-11.347303 24.827256,-11.347303 18.15132,0 32.82451,14.673088 32.82451,32.824411 0,1.28265 -0.0812,2.5456 -0.22373,3.78957 a 49.26345,49.26345 0 0 0 5.33321,-1.93312 c -0.74369,-0.28695 -1.25547,-0.99519 -1.25547,-1.85636 0,-1.12543 0.87064,-1.99686 1.99606,-1.99686 1.12544,0 1.99649,0.87137 1.99649,1.9968 0,0.25159 -0.0495,0.48769 -0.12964,0.70696 a 49.26345,49.26345 0 0 0 3.8039,-2.06924 c -0.62337,-2.55758 -2.93327,-4.48779 -5.67066,-4.48779 -0.84908,0 -1.65587,0.18951 -2.38716,0.52118 -0.0644,-0.44078 -0.14249,-0.87685 -0.22243,-1.31243 0.80771,-0.31458 1.68582,-0.49342 2.60975,-0.49342 3.26579,1e-5 5.98937,2.156 6.84837,5.13159 a 49.26345,49.26345 0 0 0 3.21983,-2.37391 c -1.69965,-3.88097 -5.57744,-6.61095 -10.06848,-6.61095 -1.22605,0 -2.40271,0.21197 -3.50598,0.58648 -0.12277,-0.41474 -0.25382,-0.82529 -0.39073,-1.23379 1.22449,-0.407423 2.53178,-0.637358 3.89686,-0.637358 4.94959,0 9.18362,2.905198 11.12827,7.104918 a 49.26345,49.26345 0 0 0 2.98866,-2.60468 c -2.75182,-4.972255 -8.04964,-8.353507 -14.11684,-8.353507 -1.86096,0 -3.64208,0.333962 -5.30755,0.918171 -0.1805,-0.394719 -0.36616,-0.786222 -0.56012,-1.173302 1.8347,-0.654728 3.80365,-1.029539 5.86745,-1.029539 6.45462,0 12.05869,3.494996 15.06574,8.692447 a 49.26345,49.26345 0 0 0 2.76231,-2.82951 c -3.79566,-5.837818 -10.36403,-9.716205 -17.82796,-9.716205 -2.75312,0 -5.37784,0.543097 -7.79519,1.500686 -0.24135,-0.375945 -0.48756,-0.748266 -0.74209,-1.114688 2.63248,-1.074424 5.51328,-1.670668 8.53744,-1.670668 7.77569,0 14.61563,3.91416 18.66747,9.88273 a 49.26345,49.26345 0 0 0 2.39429,-3.188303 c -4.823,-6.39096 -12.45603,-10.547695 -21.06167,-10.547695 -3.9137,0 -7.62766,0.862184 -10.9716,2.396624 -0.29797,-0.343441 -0.60122,-0.682089 -0.91154,-1.014193 3.59933,-1.709006 7.6268,-2.667102 11.88292,-2.667101 8.91343,0 16.80918,4.209018 21.87004,10.732693 a 49.26345,49.26345 0 0 0 1.99381,-3.637525 c -5.78722,-6.698481 -14.33403,-10.949178 -23.86376,-10.949178 -5.35485,0 -10.3994,1.344522 -14.82024,3.707143 -0.35491,-0.304566 -0.71529,-0.602274 -1.08176,-0.893328 4.7095,-2.608827 10.12824,-4.097744 15.90178,-4.097744 9.76885,0 18.52567,4.254497 24.53453,11.009495 a 49.26345,49.26345 0 0 0 1.65036,-3.841431 c -6.66017,-6.796103 -15.9337,-11.022073 -26.1848,-11.022073 z m -38.674802,5.137928 c -9.69178,0 -18.370216,4.393463 -24.159643,11.290188 a 49.26345,49.26345 0 0 0 2.045443,3.623088 c 5.048068,-6.708589 13.053955,-11.059266 22.114108,-11.059266 15.313675,0 27.686814,12.372936 27.686814,27.686605 0,1.69004 -0.15871,3.34146 -0.44743,4.9472 a 49.26345,49.26345 0 0 0 4.0291,-0.87016 c 0.17315,-1.33578 0.27234,-2.69463 0.27234,-4.07695 0,-17.396273 -14.14446,-31.540705 -31.540732,-31.540705 z m 1.25e-4,5.13868 c -8.748084,0 -16.49307,4.294026 -21.29996,10.866059 a 49.26345,49.26345 0 0 0 2.408716,3.22766 c 4.01923,-6.165731 10.964026,-10.240451 18.891154,-10.240451 12.476028,0 22.548747,10.072776 22.548747,22.548787 0,1.90191 -0.25957,3.73759 -0.70056,5.50061 a 49.26345,49.26345 0 0 0 4.03374,-0.28227 c 0.3397,-1.68761 0.52009,-3.43239 0.52009,-5.21862 0,-14.558609 -11.843312,-26.401775 -26.401927,-26.401775 z m 1.27e-4,5.137938 c -7.605195,0 -14.2743,4.030855 -18.033676,10.054347 a 49.26345,49.26345 0 0 0 2.784646,2.79336 c 2.960848,-5.367381 8.66758,-8.994438 15.24894,-8.994438 9.63839,0 17.41069,7.772238 17.41069,17.410608 0,1.93106 -0.32452,3.78137 -0.90099,5.51511 a 49.26345,49.26345 0 0 0 2.50867,0.18358 49.26345,49.26345 0 0 0 1.47301,-0.1029 c 0.48895,-1.7864 0.77258,-3.65676 0.77258,-5.5957 0,-11.72097 -9.542902,-21.263967 -21.26387,-21.263967 z m -2.44e-4,5.137938 c -6.196854,0 -11.586479,3.529356 -14.284941,8.676629 a 49.26345,49.26345 0 0 0 3.031004,2.54407 c 1.885993,-4.34291 6.200386,-7.36743 11.253847,-7.36743 6.800723,0 12.272992,5.47207 12.272992,12.2728 0,1.78856 -0.38678,3.48061 -1.068379,5.00995 a 49.26345,49.26345 0 0 0 3.963393,0.407 c 0.609019,-1.69655 0.958255,-3.51493 0.958255,-5.41686 0,-8.88333 -7.24284,-16.126159 -16.126171,-16.126159 z m 1.27e-4,5.137939 c -4.596696,0 -8.549275,2.86023 -10.18291,6.88716 a 49.26345,49.26345 0 0 0 3.278434,2.32034 c 0.784846,-3.08954 3.558144,-5.35422 6.904386,-5.35423 3.963076,1e-5 7.134927,3.17193 7.134927,7.13498 0,1.43162 -0.418829,2.75649 -1.134388,3.86928 a 49.26345,49.26345 0 0 0 3.90009,0.85476 c 0.68945,-1.43448 1.087567,-3.03316 1.087567,-4.72432 0,-6.04566 -4.942442,-10.98797 -10.988106,-10.98797 z m 1.26e-4,5.13794 c -2.818537,0 -5.196867,2.04057 -5.733547,4.7115 a 49.26345,49.26345 0 0 0 4.046878,2.21782 c -0.19462,-0.30921 -0.309851,-0.67665 -0.309851,-1.07919 0,-1.12543 0.871021,-1.99686 1.99643,-1.99686 1.125439,0 1.996863,0.87137 1.996863,1.9968 0,0.95757 -0.633739,1.72526 -1.515138,1.93464 a 49.26345,49.26345 0 0 0 4.167921,1.56234 c 0.74199,-0.98073 1.200485,-2.18472 1.200485,-3.49689 0,-3.20803 -2.642004,-5.85016 -5.850041,-5.85016 z"
         transform="matrix(1.3950189,-0.00217833,0.00217833,1.3950189,4.7273856,9.9459878)" /><path
         id="path176-9"
         style="display:inline;fill:#f6e500;fill-opacity:1;fill-rule:nonzero;stroke:none;stroke-width:25.4576;stroke-linejoin:round;stroke-dasharray:none;stroke-opacity:1"
         inkscape:label="sun"
         d="m 142.07298,73.947941 a 38.910662,38.910662 0 0 0 -0.45217,0.04754 37.897776,16.211944 65.175496 0 1 -3.61011,9.569442 34.41795,14.723341 80.639243 0 1 -3.78892,-3.692798 35.337831,35.337831 0 0 0 -0.18552,0.0801 34.2316,14.803489 50.87818 0 1 0.27492,5.600175 37.897776,16.211944 65.175496 0 1 -10.42572,-3.431315 38.910662,38.910662 0 0 0 -0.17363,0.139526 37.692586,16.300196 35.414433 0 1 1.73168,10.568864 34.2316,14.803489 50.87818 0 1 -5.52835,-1.428337 34.053519,14.880906 20.602513 0 1 3.24218,4.977474 37.692586,16.300196 35.414433 0 1 -11.07012,2.177645 37.4965,16.385439 5.138766 0 1 7.11791,8.601023 34.053519,14.880906 20.602513 0 1 -5.58829,1.61489 14.876437,34.063746 80.082621 0 1 5.29787,2.7032 37.4965,16.385439 5.138766 0 1 -0.28888,0.51883 c 2.49721,-0.14898 5.0037,-0.10623 7.49877,0.0889 0.06,-5.04203 1.82246,-10.07914 5.05034,-13.965039 4.17749,-5.224885 10.88217,-8.115039 17.52503,-8.030518 2.21428,0.02817 4.42148,0.386805 6.52621,1.099675 0.40542,0.144027 0.80826,0.295154 1.20717,0.455786 0.39894,0.16062 0.79456,0.33058 1.18494,0.511597 6.52267,2.944779 11.28902,9.313069 12.4628,16.349909 0.22011,1.19042 0.32213,2.39491 0.32763,3.59874 1.27144,-0.13324 2.54597,-0.23431 3.82354,-0.27698 1.50924,-0.0534 3.01949,-0.0314 4.52634,0.0481 a 37.4965,16.385439 5.138766 0 1 7.73854,-6.68538 38.910662,38.910662 0 0 0 -0.0723,-0.28319 16.380519,37.507761 64.618874 0 1 -9.72086,-3.67006 14.876437,34.063746 80.082621 0 1 3.54501,-3.836458 35.337831,35.337831 0 0 0 -0.16589,-0.385506 14.79474,34.251847 49.850794 0 1 -5.41775,0.224275 16.380519,37.507761 64.618874 0 1 3.21169,-10.028845 38.910662,38.910662 0 0 0 -0.28991,-0.360185 16.290562,37.71488 34.387047 0 1 -9.86916,1.634009 14.79474,34.251847 49.850794 0 1 1.11156,-4.910294 35.337831,35.337831 0 0 0 -0.38086,-0.256832 l -5.1e-4,5.16e-4 a 14.719054,34.427972 20.131536 0 1 -4.46071,2.815333 16.290562,37.71488 34.387047 0 1 -2.28875,-10.242786 38.910662,38.910662 0 0 0 -0.48008,-0.160714 16.207223,37.908812 4.667789 0 1 -7.64863,6.243547 14.719054,34.427972 20.131536 0 1 -1.44849,-4.849833 35.337831,35.337831 0 0 0 -0.40772,-0.0677 34.41795,14.723341 80.639243 0 1 -2.47169,4.7625 16.207223,37.908812 4.667789 0 1 -7.16907,-7.86877 z" /><path
         id="circle510"
         style="display:inline;opacity:1;fill:#ffcc00;stroke-width:9.34457;stroke-linecap:round;stroke-linejoin:round"
         inkscape:label="core"
         d="m 148.49998,93.577751 a 18.655999,18.655999 0 0 0 -18.65623,18.656229 18.655999,18.655999 0 0 0 0.0196,0.27285 c 6.67784,0.98788 13.17276,3.19159 18.99781,6.6182 5.62239,-3.29761 11.85971,-5.51077 18.28674,-6.581 a 18.655999,18.655999 0 0 0 0.008,-0.31005 18.655999,18.655999 0 0 0 -18.65571,-18.656229 z" /><path
         id="path609"
         style="display:none;opacity:1;fill:#00defe;fill-opacity:1;stroke:none;stroke-width:0.0560675;stroke-linecap:round;stroke-linejoin:round;stroke-dasharray:none;stroke-opacity:1"
         d="m 164.87521,39.570194 c -0.15633,-0.0203 -0.30988,0.03819 -0.46457,0.05219 -0.84112,0.24847 -1.31616,1.106589 -1.30328,1.947684 -1.85037,11.045026 -3.74588,22.086913 -5.56814,33.133895 0.0893,1.382108 2.148,1.708479 2.84065,0.596863 0.65471,-0.608406 0.94112,-1.700007 1.85157,-1.970939 0.53662,-0.03633 0.96947,0.480751 0.79427,1.000972 0.0885,2.15289 -0.14,4.524244 1.11983,6.403227 0.99435,1.24063 3.29361,0.497017 3.42149,-1.072803 4.08199,-11.086817 8.19809,-22.163991 12.25869,-33.256884 0.18188,-1.210721 -1.03818,-1.945426 -2.03554,-2.246892 -4.09357,-2.054772 -8.46844,-3.523741 -12.91497,-4.587317 z m -32.91376,0.451136 c -4.84988,1.122721 -9.5582,2.865744 -13.98364,5.146456 -0.94468,0.706599 -0.60026,2.03366 -0.12764,2.918168 3.59509,9.699355 7.21582,19.391879 10.82931,29.085046 0.50037,1.217599 0.87202,2.504211 1.45263,3.678845 0.88056,1.117446 2.84939,0.282789 2.86546,-1.076936 0.20134,-0.957008 -0.54521,-1.973302 -0.009,-2.867009 0.52934,-0.416463 1.07206,0.235276 1.3162,0.67076 0.75691,1.017515 2.5098,1.450398 3.37809,0.338998 0.91597,-1.578172 1.34586,-3.420789 1.42834,-5.227588 -1.82058,-10.564283 -3.60765,-21.137254 -5.44928,-31.696257 -0.24668,-0.679515 -1.01321,-1.016735 -1.69964,-0.970483 z m 18.74305,6.65179 c -1.20624,6.01e-4 -2.41316,0.01981 -3.61839,0.0083 -0.0733,2.15e-4 -0.14636,2.89e-4 -0.21962,5.17e-4 -1.61741,0.02263 -3.24704,0.05235 -4.84725,0.244946 -0.9497,0.335271 -0.90717,1.324425 -0.71314,2.02675 0.74492,6.770189 1.53559,13.536648 2.30787,20.304704 0.54674,0.870221 1.247,1.678538 1.83348,2.535246 0.6644,0.838685 1.45052,1.752171 2.63343,2.092378 1.12798,0.158689 1.97456,-0.767673 2.14199,-1.602486 0.11861,-0.450834 0.79492,-0.758301 1.23972,-0.395841 0.83273,0.406967 1.83657,-0.299975 1.84588,-1.029912 0.81495,-7.515476 1.67008,-15.128969 2.50062,-22.682853 0.23885,-0.757951 -0.64816,-1.367089 -1.49086,-1.399398 -1.20192,-0.08507 -2.40749,-0.10292 -3.61373,-0.102319 z m 34.84128,5.98103 c -0.55502,0.02487 -1.02706,0.366809 -1.22628,0.887285 -2.5773,5.708518 -5.20675,11.397317 -7.80314,17.098698 -0.92601,2.046099 -1.88333,4.080383 -2.7895,6.133992 -0.1875,0.616028 0.41165,1.08509 0.41858,1.662948 -0.29963,0.81961 -0.53262,1.948848 0.26717,2.569352 0.92248,0.709311 2.08245,0.157419 3.07733,-0.04754 0.76588,-0.200473 1.44713,-0.645877 2.22622,-0.803052 0.58294,0.377355 1.49212,0.720728 2.01383,0.06098 2.36358,-3.175715 4.5818,-6.455903 6.88899,-9.672278 2.13803,-3.048822 4.32439,-6.069342 6.43216,-9.135876 0.32912,-0.932862 -0.50158,-1.68982 -1.14411,-2.224671 -2.36633,-2.47368 -5.07569,-4.609997 -7.93337,-6.482291 -0.13796,-0.04484 -0.28331,-0.06242 -0.42788,-0.04754 z m -69.51152,9.976136 c -0.75267,0.138098 -1.25635,0.780184 -1.89549,1.14825 -2.05566,1.491953 -3.95106,3.20936 -5.67252,5.072559 -0.37399,0.701812 0.17947,1.411668 0.6227,1.922363 3.58358,5.088757 7.20779,10.148912 10.81588,15.220259 0.36764,0.448621 0.63448,1.00093 1.06763,1.382862 0.64294,0.322099 1.37072,0.667026 2.10323,0.544153 0.84605,-0.271993 1.10474,-1.335073 0.82476,-2.101164 -0.16369,-1.094994 -0.70889,-2.079973 -0.97979,-3.145545 0.1029,-0.305091 0.49193,-0.321178 0.68782,-0.101802 0.43415,0.272692 0.96601,0.711721 1.49241,0.378271 0.56033,-0.261526 0.71831,-1.03475 0.34468,-1.514636 -0.91364,-1.890489 -1.76017,-3.814589 -2.65151,-5.716447 -1.96388,-4.242884 -3.9009,-8.500261 -5.8813,-12.734106 -0.20261,-0.267625 -0.55269,-0.379354 -0.8785,-0.355017 z m -19.837031,3.327445 c -0.08745,-0.0031 -0.174982,-8.34e-4 -0.260449,0.0052 -0.994839,-0.0063 -1.360412,1.111224 -1.926498,1.736328 -2.133058,2.996882 -4.056443,6.164437 -5.534546,9.535335 -0.197614,1.067373 0.806072,1.762452 1.552877,2.30787 6.064667,5.030512 12.142027,10.065271 18.233517,15.069364 0.66517,0.411321 1.43497,-0.01742 1.9451,-0.478007 2.17519,0.02569 4.52336,0.321777 6.50399,-0.789099 1.08196,-0.782468 0.7261,-2.445755 -0.1881,-3.211174 -0.42722,-0.379279 -0.64551,-0.90405 -0.86765,-1.404048 C 109.429,81.206643 103.19358,73.686846 96.926383,66.199577 96.721667,66.027353 96.459572,65.967074 96.197229,65.957731 Z m 104.657691,0.638204 c -1.05182,0.107183 -1.4777,1.192725 -2.11873,1.83503 -6.22979,7.548916 -12.47881,15.083663 -18.69653,22.641512 -0.64316,1.038481 0.41006,2.352447 1.53944,2.288749 0.71854,0.08702 1.61258,-0.564358 2.18901,0.100253 0.34653,0.63906 -0.45649,1.060046 -0.80563,1.470194 -0.9265,0.71436 -0.8975,2.261384 0.0785,2.916618 0.81988,0.63092 2.06576,0.511044 2.72955,-0.290938 4.25637,-3.590574 8.56253,-7.122499 12.83643,-10.693404 3.13412,-2.626205 6.31169,-5.208156 9.41855,-7.862053 0.63904,-0.951518 -0.0637,-2.031691 -0.53434,-2.879927 -1.5236,-3.278104 -3.48842,-6.338524 -5.66012,-9.220626 -0.26547,-0.232509 -0.6281,-0.329338 -0.97617,-0.305408 z M 91.559269,89.561975 c -0.04429,-1.62e-4 -0.0887,0.0029 -0.132291,0.0083 -0.499368,0.0462 -0.934115,0.362088 -1.065052,0.858863 -0.908579,2.919169 -1.637325,5.91602 -1.911511,8.966377 0.120613,0.866555 1.061192,1.127865 1.74563,1.421615 6.306461,2.90644 12.630335,5.77669 18.943545,8.66924 0.77865,0.15874 1.56643,-0.0997 2.33836,-0.17725 0.87392,-0.37268 0.68096,-1.76113 -0.1757,-2.0314 -0.51692,-0.30345 -1.17748,-0.35037 -1.63504,-0.74104 -0.19065,-0.30889 0.046,-0.70675 0.41289,-0.66249 0.73431,-0.11838 1.68054,-0.24251 1.96371,-1.0573 0.23405,-0.81553 -0.52656,-1.42824 -1.16479,-1.76372 -6.30134,-4.480629 -12.626662,-8.929908 -18.937345,-13.398662 -0.116471,-0.06489 -0.249549,-0.09202 -0.382406,-0.0925 z m 110.217041,3.353284 c -0.0502,-6.5e-4 -0.10032,0.0017 -0.14986,0.0078 -0.78869,0.19466 -1.32808,0.860977 -2.01279,1.257288 -4.93311,3.518814 -9.88578,7.015463 -14.80685,10.548193 -0.61759,0.68397 0.13391,1.83457 0.99839,1.70067 0.36841,0.0658 0.52475,0.72201 0.0806,0.80771 -1.47328,0.89392 -3.15337,1.74106 -3.97702,3.33829 -0.24346,0.81805 0.64318,1.48271 1.39733,1.40405 0.80066,0.1089 1.71102,0.29876 2.41019,-0.23358 6.15009,-2.84192 12.31339,-5.66031 18.45521,-8.51679 0.66452,-0.50823 0.45518,-1.42059 0.31522,-2.12028 -0.33426,-2.625676 -0.97148,-5.210059 -1.81849,-7.714262 -0.18368,-0.306768 -0.54026,-0.474493 -0.89194,-0.47904 z m 12.74858,10.754381 c -1.43853,0.33644 -2.77317,1.01324 -4.17597,1.47123 -6.19949,2.32141 -12.41774,4.60416 -18.60559,6.94945 -1.06787,0.70932 -0.44278,2.50875 0.76223,2.63239 3.71668,0.99023 7.22913,2.62966 10.55078,4.54236 1.69561,0.24886 3.35179,-0.4285 5.02708,-0.59789 2.04658,-0.37939 4.12595,-0.63618 6.14691,-1.1188 1.12147,-0.65982 0.92322,-2.0972 1.18856,-3.18378 0.47878,-3.21797 0.82157,-6.48642 0.63149,-9.73894 -0.20512,-0.62543 -0.88851,-0.99707 -1.52549,-0.95602 z M 85.234591,105.5827 c -0.642199,0.0889 -1.158364,0.73634 -1.037146,1.38855 -0.07546,2.70996 0.254836,5.41801 0.737939,8.07961 0.111826,0.62531 0.67725,1.042 1.293978,1.07487 2.633601,0.39518 5.244363,0.94047 7.887891,1.27279 1.085032,-0.30282 2.01107,-1.03361 3.029789,-1.48105 1.798931,-0.9116 3.697178,-1.55091 5.640998,-2.11666 0.84484,-0.46102 0.48414,-1.84395 -0.40876,-2.00712 -5.62328,-2.03589 -11.223813,-4.1386 -16.841349,-6.18825 -0.100059,-0.0193 -0.201399,-0.0305 -0.30334,-0.0227 z m 0.605647,15.54789 c -0.07173,1.8e-4 -0.143762,0.001 -0.21549,0.004 -0.611459,0.19642 -0.935179,0.98692 -0.613916,1.55236 0.281655,0.89279 0.509143,1.81468 0.906921,2.66288 0.500638,0.62862 1.479055,0.31101 1.859318,-0.28628 0.729923,-0.80381 1.62729,-1.43519 2.396753,-2.19263 0.410695,-0.71396 -0.344594,-1.58715 -1.104842,-1.49345 -1.077102,-0.0448 -2.152814,-0.24922 -3.228744,-0.2465 z m 125.480192,0.0527 c -0.0677,-0.001 -0.13474,0.003 -0.2005,0.0129 -0.93489,0.14161 -1.93533,0.12774 -2.88665,0.33745 -0.7096,0.3538 -0.56478,1.4507 0.0858,1.78748 0.75769,0.52458 1.35012,1.26274 2.10219,1.78336 0.72142,0.2717 1.36639,-0.45555 1.43144,-1.12758 0.16602,-0.66894 0.52593,-1.31166 0.52762,-2.00815 -0.0949,-0.48826 -0.58612,-0.7752 -1.05989,-0.78548 z" /><path
         id="path597"
         style="display:inline;opacity:1;fill:#00aec7;fill-opacity:1;stroke:none;stroke-width:0.0401912;stroke-linecap:round;stroke-linejoin:round;stroke-dasharray:none;stroke-opacity:1"
         inkscape:label="skyy"
         d="m 107.47003,19.162754 -7.516135,1.18e-4 a 49.26345,49.26345 0 0 0 -3.079024,0.21523 l 2.386161,25.501162 c 0.07172,0.05141 0.14485,0.101027 0.207558,0.163687 0.99406,1.473295 1.68886,3.258978 3.17268,4.332009 0.62955,0.186221 0.77323,-0.586613 0.95766,-1.002384 0.1572,-0.954655 1.11574,-1.688527 2.08021,-1.557767 0.37624,0.02544 0.67082,0.192994 0.90096,0.435187 l 2.60993,-27.891559 a 49.26345,49.26345 0 0 0 -1.72,-0.195683 z m 6.66836,1.085046 -4.76493,28.009326 c 0.4594,-0.479625 0.88023,-0.998134 1.27557,-1.529758 0.63315,-1.26122 2.73665,-1.040692 3.20908,0.238756 0.15611,1.170833 -1.9e-4,2.377517 0.16633,3.555698 0.10273,0.610507 0.15401,1.31254 0.4954,1.819982 0.23944,0.254604 0.49274,0.199572 0.73559,0.0556 L 125.60824,24.478672 A 49.26345,49.26345 0 0 0 114.13839,20.2478 Z M 91.939203,20.31908 A 49.26345,49.26345 0 0 0 80.47733,24.500808 l 10.47219,28.241304 c 0.122543,-0.04509 0.233646,-0.130409 0.3242,-0.281395 0.109133,-0.363723 -0.05134,-0.833968 -0.06735,-1.233655 -0.337559,-0.894303 0.106083,-1.990319 1.013454,-2.335864 0.853684,-0.379441 1.648581,0.301006 2.153749,0.924635 0.265651,0.427758 0.606221,0.650243 1.103575,0.444023 0.503673,-1.044922 0.757567,-2.185635 0.955724,-3.322053 -0.0039,-0.06165 0.0019,-0.126403 0.0025,-0.189659 z m 37.945527,6.653372 -11.3926,24.821013 c 0.64541,0.559667 0.57648,1.532659 0.31502,2.278669 -0.21909,0.416007 -0.16507,0.773065 0.2102,1.078666 1.33753,-0.08464 2.6075,-0.556118 3.83419,-1.064942 0.69514,-0.475108 1.58493,-0.215732 2.14279,0.349703 L 139.0158,34.665465 a 49.26345,49.26345 0 0 0 -9.13107,-7.693013 z M 76.162839,26.89264 a 49.26345,49.26345 0 0 0 -9.104019,7.719363 l 15.976892,22.527044 c 0.531797,0.107967 1.071118,0.386383 1.572071,0.510692 0.432763,-0.08031 0.672147,-0.516591 0.507133,-0.95345 -0.134989,-1.431432 -0.740807,-2.741515 -1.224222,-4.075959 -0.591503,-1.096787 0.596162,-2.450694 1.756707,-2.200607 0.602559,0.28434 1.179835,0.630115 1.759904,0.971066 z m 65.945191,11.440518 -18.73339,22.601014 c 0.17933,0.536557 0.86573,0.3008 1.29537,0.267255 0.91162,-0.355091 2.02016,0.112572 2.3992,1.016887 0.42624,0.876705 -0.22671,1.748637 -0.86708,2.301272 -0.41444,0.274044 -0.64087,0.614398 -0.43328,1.107296 0.24477,0.125784 0.49665,0.233502 0.75146,0.332713 l 21.43261,-17.76447 a 49.26345,49.26345 0 0 0 -5.84489,-9.861967 z m -78.128815,-0.0505 a 49.26345,49.26345 0 0 0 -5.937746,9.750959 l 17.835603,14.783772 c 0.22705,-0.330997 0.552243,-0.591249 0.947878,-0.669008 1.626122,0.03361 3.301261,0.237435 4.89639,-0.222024 0.417793,-0.08213 0.796117,-0.230008 0.812004,-0.717377 -0.09757,-0.397413 -0.498731,-0.734714 -0.726563,-1.097252 -0.370425,-0.256131 -0.568269,-0.652043 -0.624729,-1.074127 z M 149.61508,52.449211 129.56307,66.67077 c 0.11252,0.01462 0.22499,0.03398 0.33739,0.0472 1.33497,-0.130623 2.27008,1.684739 1.44306,2.711617 -1.33868,0.983493 -2.96515,1.592231 -4.12624,2.821831 -0.37572,0.303 -0.63164,0.730976 -0.89344,1.149548 0.77534,0.07853 1.54917,0.171873 2.31847,0.296634 l 23.29151,-10.690697 a 49.26345,49.26345 0 0 0 -2.31874,-10.557694 z m -93.181704,-0.12476 a 49.26345,49.26345 0 0 0 -2.35498,10.516687 l 23.664231,10.861444 c 0.672266,-0.105618 1.34718,-0.19195 2.024097,-0.261331 -0.510867,-0.327359 -1.117941,-0.533262 -1.661657,-0.786435 -1.020914,-0.09218 -1.623648,-1.259353 -1.363109,-2.194365 0.224133,-0.959542 1.32951,-1.083359 2.137099,-1.222804 0.371338,-0.0073 0.647328,-0.146503 0.785264,-0.436999 z m -2.664988,14.757318 a 49.26345,49.26345 0 0 0 -0.07684,1.052286 49.26345,49.26345 0 0 0 0.901427,8.914083 l 9.533214,1.621834 c 0.56651,-0.335684 1.137674,-0.6627 1.716633,-0.971934 2.536023,-1.38444 5.234985,-2.426154 8.014499,-3.166932 z m 98.426592,0.192219 -19.6159,7.273984 c 3.4668,0.942329 6.80037,2.367733 9.87588,4.222826 l 8.8187,-1.500199 a 49.26345,49.26345 0 0 0 0.94493,-8.982693 49.26345,49.26345 0 0 0 -0.0236,-1.013918 z M 55.417523,80.86861 a 49.26345,49.26345 0 0 0 1.175495,3.729156 c 1.113571,-1.189664 2.32848,-2.280922 3.61872,-3.280482 z m 95.018917,0.2232 -4.07317,0.381115 c 1.07428,0.848271 2.10336,1.752904 3.07741,2.717133 a 49.26345,49.26345 0 0 0 0.99576,-3.098248 z"
         inkscape:transform-center-y="-89.539458"
         transform="matrix(1.3950189,-0.00217833,0.00217833,1.3950189,4.7273856,9.9459878)" /></g><g
       transform="matrix(2.1474994,0,0,2.1474994,-3.8407439,38.963099)"
       stroke-width="0.465655"
       id="g4"
       style="display:none"><path
         d="m 94.414,98.544 c -5.8406,0.0091 -11.292,1.6871 -15.912,4.574 0.0066,0.004 0.01104,0.008 0.01673,0.0113 -4.6327,-2.8792 -10.095,-4.5447 -15.943,-4.5356 -8.589,0.01341 -16.337,3.6309 -21.83,9.41 a 40.555,40.555 0 0 0 1.4107,3.1362 c 4.943,-5.7291 12.249,-9.3606 20.424,-9.3734 14.943,-0.0233 27.041,12.037 27.064,26.98 0.0016,1.0559 -0.06357,2.0957 -0.17931,3.12 a 40.555,40.555 0 0 0 4.388,-1.5983 c -0.6126,-0.23527 -1.0348,-0.81766 -1.0359,-1.5266 -0.0014,-0.92649 0.71417,-1.645 1.6407,-1.6464 0.9265,-0.001 1.6447,0.71478 1.6461,1.6413 3.23e-4,0.20711 -0.04012,0.40154 -0.10582,0.58216 a 40.555,40.555 0 0 0 3.1288,-1.7084 c -0.51647,-2.1047 -2.4205,-3.6907 -4.674,-3.6872 -0.69899,10e-4 -1.3629,0.15813 -1.9645,0.43212 -0.05358,-0.36279 -0.11843,-0.72167 -0.1848,-1.0802 0.66453,-0.26001 1.3872,-0.40837 2.1478,-0.40956 2.6885,-0.004 4.9334,1.7672 5.6444,4.2157 a 40.555,40.555 0 0 0 2.6476,-1.9584 c -1.4042,-3.1928 -4.6,-5.4352 -8.2972,-5.4294 -1.0093,0.002 -1.9777,0.17759 -2.8855,0.48731 -0.1016,-0.34127 -0.21001,-0.67908 -0.32325,-1.0152 1.0075,-0.33698 2.0834,-0.52795 3.2072,-0.5297 4.0747,-0.006 7.564,2.3798 9.1703,5.8347 a 40.555,40.555 0 0 0 2.457,-2.1481 c -2.2718,-4.0898 -6.6375,-6.8665 -11.632,-6.8587 -1.532,0.002 -2.9978,0.27961 -4.3682,0.76269 -0.1491,-0.32471 -0.30245,-0.64677 -0.46262,-0.96518 1.5095,-0.54135 3.13,-0.85244 4.829,-0.85509 5.3137,-0.008 9.9316,2.8617 12.414,7.1365 a 40.555,40.555 0 0 0 2.2704,-2.3329 c -3.1322,-4.801 -8.5445,-7.9854 -14.689,-7.9758 -2.2665,0.004 -4.4265,0.45401 -6.4153,1.2454 -0.19917,-0.30918 -0.40234,-0.61537 -0.61235,-0.9167 2.1658,-0.88788 4.5366,-1.3824 7.0262,-1.3863 6.4012,-0.01 12.037,3.2035 15.38,8.1118 a 40.555,40.555 0 0 0 1.967,-2.6278 c -3.9787,-5.255 -10.268,-8.6672 -17.352,-8.6561 -3.2219,0.005 -6.2782,0.71959 -9.0291,1.9871 -0.24574,-0.28235 -0.49582,-0.56075 -0.75171,-0.83375 2.9609,-1.4115 6.2752,-2.2054 9.779,-2.2109 7.3378,-0.0115 13.843,3.4434 18.018,8.8074 a 40.555,40.555 0 0 0 1.6367,-2.9971 c -4.7728,-5.507 -11.814,-8.9953 -19.66,-8.983 -4.4083,0.007 -8.5594,1.1202 -12.196,3.0709 -0.29256,-0.25027 -0.58962,-0.49489 -0.89169,-0.73403 3.8737,-2.1537 8.3326,-3.3864 13.086,-3.3938 8.042,-0.0126 15.256,3.4786 20.212,9.0318 a 40.555,40.555 0 0 0 1.3537,-3.1645 c -5.4916,-5.5862 -13.131,-9.0532 -21.57,-9.0401 z m -31.832,4.2794 c -7.9786,0.0125 -15.117,3.6405 -19.874,9.3255 a 40.555,40.555 0 0 0 1.6885,2.98 c 4.1471,-5.5292 10.732,-9.1211 18.191,-9.1328 12.607,-0.0197 22.809,10.15 22.828,22.757 0.0022,1.3913 -0.12636,2.751 -0.36198,4.0733 a 40.555,40.555 0 0 0 3.3158,-0.72152 c 0.14083,-1.0999 0.22074,-2.2187 0.21896,-3.3566 -0.02236,-14.321 -11.685,-25.947 -26.006,-25.925 z m 0.0067,4.2303 c -7.2017,0.0113 -13.572,3.5562 -17.521,8.9727 a 40.555,40.555 0 0 0 1.9871,2.654 c 3.3008,-5.081 9.0128,-8.4444 15.539,-8.4546 10.271,-0.016 18.576,8.2632 18.592,18.534 0.0024,1.5657 -0.20888,3.0772 -0.56965,4.5292 a 40.555,40.555 0 0 0 3.3203,-0.23755 c 0.27748,-1.3897 0.42374,-2.8263 0.42145,-4.2968 -0.01872,-11.985 -9.7837,-21.72 -21.769,-21.701 z m 0.0067,4.2297 c -6.2608,0.01 -11.746,3.3367 -14.833,8.3002 a 40.555,40.555 0 0 0 2.296,2.296 c 2.4306,-4.4224 7.1239,-7.4157 12.542,-7.4241 7.9346,-0.0124 14.343,6.376 14.355,14.311 0.0025,1.5897 -0.26229,3.1134 -0.73463,4.5414 a 40.555,40.555 0 0 0 2.0655,0.1479 40.555,40.555 0 0 0 1.2125,-0.0866 c 0.40022,-1.4712 0.63131,-3.0114 0.62882,-4.6076 -0.01507,-9.6491 -7.8834,-17.493 -17.532,-17.478 z m 0.0064,4.2297 c -5.1015,0.008 -9.5338,2.9204 -11.749,7.1612 a 40.555,40.555 0 0 0 2.4985,2.0905 c 1.547,-3.5776 5.0949,-6.0731 9.2551,-6.0796 5.5986,-0.009 10.111,4.489 10.119,10.088 0.0023,1.4724 -0.31394,2.8658 -0.87308,4.1257 a 40.555,40.555 0 0 0 3.2633,0.32996 c 0.49918,-1.3974 0.78435,-2.8948 0.7819,-4.4606 -0.01142,-7.313 -5.9833,-13.266 -13.296,-13.255 z m 0.0067,4.2297 c -3.7841,0.006 -7.0344,2.3656 -8.374,5.6828 a 40.555,40.555 0 0 0 2.7019,1.906 c 0.64214,-2.5444 2.9223,-4.4123 5.677,-4.4166 3.2625,-0.005 5.8778,2.6021 5.8829,5.8646 0.0018,1.1786 -0.34125,2.2698 -0.92889,3.1868 a 40.555,40.555 0 0 0 3.2118,0.69865 c 0.56573,-1.1818 0.89142,-2.4984 0.88925,-3.8906 -0.0078,-4.977 -4.0829,-9.0393 -9.0599,-9.0315 z m 0.0067,4.2297 c -2.3203,0.004 -4.2756,1.6866 -4.714,3.886 a 40.555,40.555 0 0 0 3.3344,1.8206 c -0.16062,-0.2543 -0.25595,-0.55664 -0.25647,-0.88802 -0.0014,-0.92649 0.71449,-1.645 1.641,-1.6464 0.9265,-10e-4 1.645,0.71477 1.6464,1.6413 0.0012,0.78831 -0.5195,1.4211 -1.2448,1.5946 a 40.555,40.555 0 0 0 3.4332,1.2808 c 0.60957,-0.80832 0.98547,-1.8001 0.98378,-2.8803 -0.0041,-2.641 -2.1825,-4.8126 -4.8235,-4.8085 z"
         color="#000000"
         fill="#44aa00"
         style="stroke-width:0.465655;-inkscape-stroke:none"
         id="path1-3" /><path
         d="m 75.471,74.648 a 22.962,22.962 0 0 0 -0.26684,0.02807 22.364,9.567 65.175 0 1 -2.1304,5.6471 20.311,8.6886 80.639 0 1 -2.2359,-2.1792 20.854,20.854 0 0 0 -0.10948,0.0473 20.201,8.7359 50.878 0 1 0.16224,3.3048 22.364,9.567 65.175 0 1 -6.1525,-2.0249 22.962,22.962 0 0 0 -0.10247,0.08231 22.243,9.6191 35.414 0 1 1.0219,6.2369 20.201,8.7359 50.878 0 1 -3.2624,-0.8429 20.096,8.7816 20.603 0 1 1.9133,2.9373 22.243,9.6191 35.414 0 1 -6.5327,1.2851 22.128,9.6694 5.1388 0 1 4.2004,5.0757 20.096,8.7816 20.603 0 1 -3.2978,0.95298 8.7789,20.102 80.083 0 1 3.1264,1.5952 22.128,9.6694 5.1388 0 1 -0.17048,0.30618 c 1.4737,-0.08792 2.9528,-0.06273 4.4252,0.0525 0.03544,-2.9754 1.0755,-5.9479 2.9803,-8.2411 2.4652,-3.0833 6.4218,-4.7889 10.342,-4.739 1.3067,0.01664 2.6092,0.22827 3.8513,0.64895 0.23925,0.08499 0.47697,0.17418 0.71238,0.26897 0.23542,0.09478 0.46889,0.19508 0.69926,0.30191 3.8492,1.7378 6.6619,5.4958 7.3546,9.6484 0.1299,0.7025 0.1901,1.4133 0.19334,2.1237 0.75031,-0.07858 1.5024,-0.13826 2.2564,-0.16345 0.89064,-0.03154 1.7819,-0.01854 2.6711,0.02842 a 22.128,9.6694 5.1388 0 1 4.5667,-3.9452 22.962,22.962 0 0 0 -0.0426,-0.16712 9.6665,22.134 64.619 0 1 -5.7365,-2.1658 8.7789,20.102 80.083 0 1 2.092,-2.264 20.854,20.854 0 0 0 -0.0979,-0.22749 8.7307,20.213 49.851 0 1 -3.1971,0.13235 9.6665,22.134 64.619 0 1 1.8953,-5.9182 22.962,22.962 0 0 0 -0.17108,-0.21255 9.6134,22.256 34.387 0 1 -5.824,0.96426 8.7307,20.213 49.851 0 1 0.65596,-2.8977 20.854,20.854 0 0 0 -0.22476,-0.15156 l -2.94e-4,3.03e-4 a 8.686,20.317 20.132 0 1 -2.6324,1.6614 9.6134,22.256 34.387 0 1 -1.3506,-6.0445 22.962,22.962 0 0 0 -0.28331,-0.09484 9.5643,22.371 4.6678 0 1 -4.5136,3.6845 8.686,20.317 20.132 0 1 -0.85479,-2.862 20.854,20.854 0 0 0 -0.2406,-0.03994 20.311,8.6886 80.639 0 1 -1.4586,2.8105 9.5643,22.371 4.6678 0 1 -4.2306,-4.6435 z"
         fill="#f6e500"
         id="path2"
         style="stroke-width:0.465655" /><path
         d="m 79.264,86.232 a 11.009,11.009 0 0 0 -11.009,11.009 11.009,11.009 0 0 0 0.01161,0.16102 c 3.9407,0.58297 7.7735,1.8834 11.211,3.9055 3.3179,-1.946 6.9987,-3.252 10.791,-3.8836 a 11.009,11.009 0 0 0 0.0043,-0.18296 11.009,11.009 0 0 0 -11.009,-11.009 z"
         fill="#ffcc00"
         stroke-linecap="round"
         stroke-linejoin="round"
         stroke-width="6.98473"
         id="path3" /><path
         d="m 79.896,7.6729 c -0.11255,0.00234 -0.2249,4.982e-4 -0.33745,0.0026 l -5.5821,10.412 c 0.51576,15.04 1.052,30.075 1.5808,45.112 0.41433,2.1397 0.49142,6.8139 0.93586,8.9204 0.50351,2.0622 1.6176,3.0464 2.5141,3.883 0.85481,0.39019 1.7547,-1.467 1.8815,-3.5197 0.0899,-1.1085 1.0236,2.1168 1.3606,3.0081 0.63106,1.0007 0.64717,-6.5639 0.65422,-8.3587 0.5528,-16.541 1.1301,-33.275 1.6965,-49.924 -1.6105,-3.1126 -3.1901,-6.2815 -4.7041,-9.5353 z m 7.1014,14.078 c -1.1338,15.6 -2.379,35.598 -3.4907,51.202 -0.214,2.3347 -0.5753,4.1933 0.55914,3.6804 0.76533,-1.0487 0.76154,-0.31258 1.7808,-3.268 1.333,-1.9094 2.3124,0.64576 2.3229,1.5937 0.26924,1.8277 0.10897,0.36379 0.40618,3.035 0.22725,2.0424 1.7977,1.7551 1.8846,-0.71469 2.0052,-12.609 5.2645,-25.495 7.2709,-38.104 -3.1271,-5.4104 -7.6148,-11.625 -10.734,-17.424 z m -16.257,2.3719 -9.1617,17.089 c 2.0046,10.727 4.0146,21.452 6.025,32.175 0.33804,1.6356 0.95549,3.6843 1.3477,5.2622 0.59488,1.501 1.1012,0.49379 1.1121,-1.3327 0.13601,-1.2855 -0.25416,-0.72805 0.10852,-1.9286 0.35761,-0.55944 2.0975,1.2779 2.2624,1.8629 0.51136,1.3668 0.89393,0.46046 1.4805,-1.0325 0.38992,-1.9597 0.58937,-2.3295 1.0113,-4.6421 -1.2299,-14.191 -2.7122,-32.605 -3.9563,-46.789 -0.04834,-0.26477 -0.13141,-0.4785 -0.22892,-0.66456 z m 29.002,20.172 c -1.5923,6.2107 -2.8197,10.132 -4.4096,16.345 -0.83674,3.2849 -3.2897,14.213 -4.114,17.51 -0.19077,0.98901 1.1092,0.09036 1.2702,1.0067 0.14748,1.4761 -0.30437,1.4666 -0.13177,2.5544 0.543,1.1388 1.5282,0.24179 2.2164,-0.08733 0.66018,-0.21886 1.3352,-0.38482 1.8738,-0.63717 0.35063,0.60582 2.64,-5.7894 3.0592,-6.8487 1.9193,-5.0985 1.9212,-5.2832 3.807,-10.447 0.91531,-2.5533 1.6025,-6.0214 2.5228,-8.5669 -1.9165,-3.5414 -3.9902,-7.1708 -6.0942,-10.829 z m -40.888,1.9999 -8.0135,14.947 c 3.3232,7.379 5.2152,10.58 8.5478,17.949 0.42878,0.82311 1.7246,2.3404 2.2298,3.0412 0.74989,0.59098 1.5987,1.6812 2.4531,1.4557 0.98678,-0.49904 0.60148,-0.54935 0.27492,-1.9549 -0.78601,-2.0319 -0.55169,-1.207 -0.86765,-3.1621 0.12001,-0.55977 1.4438,-0.58906 1.6722,-0.18655 0.50636,0.50033 2.5683,2.1755 3.1822,1.5637 0.65354,-0.47984 -0.60447,-4.0732 -1.0402,-4.9537 -1.0656,-3.4686 -2.0527,-6.9988 -3.0923,-10.488 -1.7854,-6.0678 -3.5604,-12.144 -5.3464,-18.211 z m 50.162,14.93 c -0.0358,0.06628 -0.0691,0.14728 -0.10697,0.20671 -3.6763,6.9762 -7.3637,13.939 -11.033,20.924 -0.37954,0.9597 -1.269,3.5356 -0.60254,3.4768 0.42402,0.08049 2.4622,-1.8834 2.8024,-1.2692 0.20449,0.59059 -0.15467,1.3118 -0.3607,1.6909 -0.54674,0.66017 -1.0088,2.4482 -1.0852,3.4199 0.48383,0.58305 0.60357,0.74603 0.99529,0.0052 2.5118,-3.3182 6.6851,-7.9123 9.2072,-11.212 1.6775,-2.2013 3.3716,-4.3762 5.041,-6.5903 -1.422,-3.5248 -3.0547,-7.07 -4.8576,-10.652 z m -60.959,5.2095 -4.1496,7.7401 c -0.33768,0.90004 -0.59897,1.7094 -0.89607,2.5611 3.661,3.3956 7.3236,6.7933 10.998,10.171 0.50121,0.34683 2.5002,1.4731 2.8846,1.0847 2.1197,0.25054 3.2709,0.29447 4.9465,-0.34468 0.81527,-0.65981 0.11266,-2.1311 -0.57619,-2.7766 -0.32191,-0.31981 -1.4708,-1.9752 -1.6381,-2.3968 -3.8308,-5.1795 -7.7197,-10.876 -11.569,-16.039 z m 66.946,9.6775 c -0.0387,-8.66e-4 -0.0764,0.0098 -0.11266,0.03414 -4.3781,3.6289 -10.87,11.003 -15.238,14.646 -0.54811,0.70536 2.5835,1.354 3.3507,1.2159 0.32696,0.06784 0.8721,1.4742 0.0202,1.5854 -1.3075,0.9219 -3.1876,1.6353 -3.9186,3.2825 2.1414,0.86653 2.3336,0.81959 3.0029,0.73846 0.71059,0.11231 2.7999,-1.1569 3.4205,-1.7058 5.4582,-2.9309 7.7695,-3.571 13.22,-6.5169 0.0665,-0.05917 0.12047,-0.12494 0.16846,-0.19378 -0.0875,-0.45708 -0.16147,-0.89265 -0.28111,-1.4046 -0.53123,-3.0019 -1.2929,-5.9932 -2.2376,-8.9876 h 5.2e-4 c -3e-5,0 -0.81638,-2.6799 -1.3958,-2.6939 z m -72.491,4.686 c -0.03293,-1.22e-4 -0.0663,0.0017 -0.0987,0.0061 -0.37129,0.03431 -0.69485,0.26937 -0.7922,0.63872 -0.67554,2.1704 -1.2167,4.3988 -1.4206,6.6668 0.08968,0.64428 0.78871,0.83837 1.2976,1.0568 4.6889,2.161 11.611,5.9429 16.305,8.0936 0.64978,-0.2771 1.2152,-0.82328 0.57826,-1.0242 -0.38434,-0.22562 -2.661,-1.7482 -2.4061,-2.8169 0.54597,-0.08801 3.2275,0.08231 3.438,-0.52348 0.17402,-0.60635 -2.0623,-1.8171 -2.5368,-2.0665 -4.6851,-3.3314 -9.3882,-6.6396 -14.08,-9.9622 -0.0866,-0.04826 -0.18544,-0.06836 -0.28422,-0.0687 z m 15.291,16.462 c -0.57394,0.0577 1.0825,0.41557 0,0 z m 61.295,-5.7185 c -0.1382,0.0026 -0.43497,0.35685 -0.86196,0.53123 -0.56932,0.2325 -1.6475,0.71261 -2.4753,0.98288 -3.6585,1.3699 -8.1296,3.4033 -11.781,4.7873 -0.63018,0.41858 0.53998,0.79365 1.2511,0.86661 2.1933,0.58436 4.2658,1.5523 6.226,2.681 1.0006,0.14686 1.9786,-0.25299 2.9673,-0.35295 1.2077,-0.22388 2.4346,-0.3751 3.6272,-0.65991 0.66181,-0.38936 0.54467,-1.2377 0.70125,-1.879 0.28255,-1.899 0.62489,-4.9106 0.42995,-6.8234 -0.01,-0.0966 -0.0381,-0.1348 -0.0842,-0.13384 z m -79.2,1.7746 c -0.45126,0.05242 -0.81433,0.4347 -0.72915,0.81959 -0.05302,1.5992 0.17885,3.1975 0.51831,4.7682 0.07858,0.36902 0.47614,0.61416 0.9095,0.63356 1.8506,0.2332 3.6852,0.55527 5.5428,0.75138 0.76243,-0.1787 1.8924,0.14952 2.8246,0.0165 2.0786,-0.29651 4.672,-1.4624 6.0379,-1.7963 0.59366,-0.27206 1.6904,-0.49282 1.063,-0.58911 -3.9514,-1.2014 -12.007,-3.3809 -15.954,-4.5904 -0.07031,-0.01144 -0.14127,-0.01802 -0.21291,-0.01343 z m 78.41,8.2424 c -0.19881,0.0128 -0.42073,0.1603 -0.63252,0.17053 v 5.1e-4 c -1.0166,0.095 -4.1428,0.43954 -5.1568,0.56328 -0.75639,0.20879 0.28836,1.0823 0.98185,1.2811 0.80766,0.30956 2.7661,0.95575 3.5677,1.263 0.5115,0.10666 0.96912,-0.0554 1.2506,-0.28732 0.1642,-0.62899 0.74439,-2.1433 0.31522,-2.8096 -0.0955,-0.14823 -0.20678,-0.18911 -0.32607,-0.18138 z m -70.552,0.0253 c -0.01794,-0.002 -0.03948,-8.7e-4 -0.06511,5.2e-4 -1.162,-0.0264 -6.4197,0.90584 -7.5804,0.90744 v -5.2e-4 c -0.07738,1.1e-4 -0.15516,7.4e-4 -0.23254,0.003 -0.2502,0.0439 -0.43481,0.14614 -0.57464,0.26458 0.05757,0.39091 0.12682,0.77751 0.19637,1.1638 0.19752,0.36055 0.40299,0.71992 0.69402,1.0594 0.54011,0.37096 1.5964,0.18349 2.0066,-0.16899 0.78747,-0.47434 1.8064,-0.76276 2.5854,-1.294 0.48934,-0.33373 3.5267,-1.8882 2.9704,-1.9348 z"
         fill="#00defe"
         id="path4"
         style="stroke-width:0.465655" /></g><path
       id="path754"
       style="display:inline;fill:#ffffff;fill-opacity:1;fill-rule:nonzero;stroke:none;stroke-width:40.8646;stroke-linejoin:round;stroke-dasharray:none;stroke-opacity:1"
       inkscape:label="sun"
       d="m 169.54102,64.724609 c -3.56893,0.23768 -6.26418,3.771939 -6.19141,7.232422 -0.63624,6.128748 -2.01166,12.298483 -5.04883,17.714844 -0.6794,0.283342 -1.14788,-0.04997 -1.54306,-0.597585 -2.04892,-2.098901 -3.83787,-4.446973 -6.10962,-6.314669 -3.43712,-1.961486 -8.47728,0.47337 -9.00169,4.414518 -0.20026,3.708955 1.02096,7.274511 0.80725,11.001766 -0.26641,0.884081 -1.29532,0.450678 -1.93999,0.390501 -5.08666,-0.757945 -9.86896,-2.920884 -14.22549,-5.590051 -2.14784,-1.310522 -4.17648,-2.847476 -6.45224,-3.92948 -3.10261,-1.048752 -7.09373,0.597397 -7.99258,3.882502 -0.82936,2.597961 0.42036,5.220625 1.51185,7.533263 2.37922,5.59988 4.2039,11.59111 4.08229,17.73267 -0.43873,0.57887 -1.01424,0.51132 -1.62677,0.26875 -2.94649,-0.75143 -5.75258,-1.9729 -8.67792,-2.77851 -3.14749,-0.41884 -6.24526,2.27673 -6.43359,5.41211 -0.1679,1.63498 0.47676,3.45319 1.52361,4.7899 1.37927,1.52722 2.70213,3.1141 3.81612,4.85198 0.56383,0.83774 1.0914,1.69882 1.62902,2.55343 -0.0231,0.71289 -0.54352,0.97958 -1.15544,1.16414 -5.50041,2.23171 -11.556872,2.60454 -17.426592,2.32414 -2.290479,-0.1101 -4.536531,-0.42211 -6.820313,-0.12305 -3.351089,0.9091 -5.48648,5.19757 -3.711501,8.31079 1.337521,2.58965 4.245295,3.65826 6.307685,5.54204 4.552799,3.55043 8.74816,7.73917 11.499519,12.86592 -0.08829,0.71886 -0.621754,0.94742 -1.269094,1.05056 -3.156387,0.92981 -6.443775,1.35457 -9.598306,2.26901 -2.154559,1.02215 -3.262228,3.59548 -3.066194,5.8191 0.135063,2.37901 1.915444,4.39045 4.09375,5.20704 0.718912,0.3002 1.457712,0.54771 2.199219,0.78515 0.165009,0.7199 -0.0071,1.22481 -0.791284,1.33936 -1.766748,0.75371 -3.890439,1.48487 -4.669118,3.42053 -1.393466,3.09338 0.226731,7.39372 3.629835,8.2955 2.571924,0.73664 5.289618,0.88185 7.800543,1.84945 0.614693,0.22583 1.377391,0.30508 1.890088,0.65454 0.473105,0.57319 0.05521,1.1003 -0.24782,1.63335 -3.095535,5.48979 -7.825252,9.84608 -12.829501,13.57858 -1.884661,1.38967 -4.198346,2.73085 -4.802274,5.17205 -0.682332,2.45096 0.397848,5.27072 2.634949,6.52774 1.727988,1.02959 3.870201,1.13386 5.742017,0.81709 4.797173,-0.45382 9.669523,-0.24129 14.402332,0.66689 2.29414,0.49398 4.54403,1.21374 6.66601,2.2207 0.3539,0.56914 0.1312,1.07737 -0.24462,1.56026 -1.90655,3.09418 -4.29192,5.86152 -6.28057,8.89516 -1.44456,3.36699 1.20594,7.55559 4.77451,7.99775 2.58451,0.38176 4.86367,-1.20618 7.27206,-1.8403 1.24964,-0.38392 2.51369,-0.7218 3.78917,-1.00935 0.65528,0.27882 0.74618,0.84066 0.66992,1.48633 -0.0121,5.89933 -1.66698,11.67471 -3.91998,17.08232 -0.76725,1.99083 -2.12994,3.94818 -1.78366,6.18282 0.31692,2.98586 2.8538,5.82579 5.98526,5.78159 2.94823,-0.007 5.17225,-2.19145 7.54285,-3.62875 4.04723,-2.5684 8.4371,-4.67 13.11108,-5.8008 0.67148,0.27442 0.75421,0.84832 0.68062,1.50175 0.18416,7.47779 0.98848,14.90885 2.64468,22.2028 1.87878,7.32254 5.47702,14.15963 10.38954,19.86577 3.65831,4.24484 8.16342,7.90091 13.17132,10.58357 5.25655,2.8929 11.01178,4.78444 16.91879,5.67853 3.95142,0.61677 7.92183,0.67351 11.93903,0.53413 6.03563,-0.30779 11.89643,-1.98463 17.39079,-4.52279 6.31152,-2.88981 12.03531,-7.29239 16.51367,-12.47071 4.62915,-5.35109 8.11473,-11.82082 9.87001,-18.7294 1.56053,-5.77939 2.16645,-11.8138 2.56553,-17.81943 0.54191,-0.45247 1.06557,-0.4378 1.57043,0.0589 1.50543,0.99121 3.29179,1.87008 5.14446,1.43535 3.48634,-0.5825 6.42528,-4.15265 5.67924,-7.73832 -0.39991,-2.3444 -1.61925,-4.46795 -1.98992,-6.81775 -0.4153,-0.64789 0.2111,-1.45994 0.94345,-1.31704 4.82268,0.23765 9.5184,1.5796 13.96308,3.41317 2.44223,0.86991 4.75113,2.53212 7.45294,2.31925 2.31037,-0.31336 4.30238,-1.85216 5.70822,-3.64852 1.22608,-1.48134 1.92246,-3.44838 1.53175,-5.37041 -0.29423,-1.9931 -1.76663,-3.48735 -2.68723,-5.20542 -3.21592,-5.25146 -5.87171,-11.01419 -6.61329,-17.18385 0.33038,-0.63775 0.91283,-0.65921 1.54955,-0.54803 3.07399,0.16307 6.1497,0.8439 9.17604,0.8712 4.04566,-0.58567 6.71787,-5.60065 4.80699,-9.25643 -1.29575,-2.88973 -4.34474,-4.33797 -6.21422,-6.78159 -0.53421,-0.35614 -1.16556,-1.20828 -0.44727,-1.71679 5.64754,-3.37721 12.25982,-4.51586 18.70789,-5.21874 1.83837,-0.22283 3.90585,-0.56225 5.09513,-2.14711 2.36988,-2.77738 1.96131,-7.6333 -1.35443,-9.53275 -2.74401,-1.68571 -5.71533,-2.99011 -8.34457,-4.86895 -3.58391,-2.45115 -6.93961,-5.32801 -9.49855,-8.86136 -0.16822,-0.87729 0.72248,-1.35766 1.15809,-1.99962 4.39506,-5.17148 10.42297,-8.52962 16.39074,-11.56093 2.56295,-1.45375 3.53422,-4.87509 2.45568,-7.55328 -0.70916,-2.00544 -2.5008,-3.54854 -4.59903,-3.92451 -2.59833,-0.60007 -5.27719,-0.5085 -7.86962,-1.18682 -4.40734,-0.84372 -8.78056,-2.17168 -12.65305,-4.48578 -0.28831,-0.66562 0.0539,-1.13373 0.56324,-1.54949 1.95687,-2.05909 4.21146,-3.84502 6.0117,-6.04425 2.12083,-3.63007 -0.36852,-8.97094 -4.51143,-9.67704 -3.23468,-0.43949 -6.39286,0.84145 -9.62799,0.69236 -0.69226,0.22039 -1.58931,-0.33445 -1.27536,-1.11884 0.57991,-3.83127 1.82224,-7.55131 3.55237,-11.01857 1.372,-2.90028 3.17446,-5.56109 4.77271,-8.3328 0.92303,-1.54602 1.1887,-3.44622 0.58508,-5.14277 -0.93833,-2.94503 -4.05907,-5.23838 -7.1997,-4.65194 -2.80039,0.44501 -5.16151,2.19111 -7.88193,2.90826 -4.03482,1.4182 -8.26381,2.43319 -12.56095,2.44875 -0.58576,-0.43465 -0.53082,-1.01005 -0.28494,-1.62739 0.65957,-2.64408 1.72056,-5.22015 1.95736,-7.949347 -0.21969,-4.278934 -5.35421,-7.448994 -9.26151,-5.61653 -2.68667,1.130958 -4.50453,3.599397 -7.11788,4.859926 -0.43386,0.422719 -1.28415,0.846188 -1.67584,0.143892 -2.59276,-5.94419 -2.97449,-12.557177 -2.72365,-18.957696 0.0684,-2.117417 0.15012,-4.515161 -1.36815,-6.196601 -1.63226,-1.897615 -4.1484,-2.832971 -6.61719,-2.429688 -2.24906,0.365877 -4.0382,1.993271 -5.21407,3.867668 -2.26147,3.369132 -5.05722,6.379249 -8.15897,8.991707 -1.30197,1.068057 -2.67043,2.056007 -4.10938,2.931641 -0.72915,-0.08092 -0.97379,-0.602545 -1.06071,-1.267634 -0.71799,-2.613137 -1.08453,-5.347857 -2.13985,-7.853083 -2.20248,-3.604045 -8.1672,-3.955764 -10.70095,-0.541406 -1.79979,2.596422 -2.38004,5.809092 -4.0332,8.485255 -0.15879,0.797814 -1.25386,1.013182 -1.68638,0.311634 -5.37425,-4.054782 -8.91721,-9.950201 -11.94763,-15.845328 -0.90469,-1.789738 -2.21667,-3.599379 -4.26386,-4.129235 -0.86202,-0.292441 -1.78094,-0.401652 -2.6889,-0.355516 z" /><g
       id="g11"
       transform="matrix(2.7119795,0,0,2.7119795,8.1644443,9.626712)"
       style="display:inline;stroke-width:0.368736"><g
         id="g9"
         inkscape:label="seed logo"
         transform="matrix(0.85445055,0,0,0.85445055,-48.17511,-27.543493)"
         style="display:inline;stroke-width:0.431548"><path
           id="path5"
           style="display:inline;fill:#f6e500;fill-opacity:1;fill-rule:nonzero;stroke:none;stroke-width:17.635;stroke-linejoin:round;stroke-dasharray:none;stroke-opacity:1"
           inkscape:label="sun"
           d="m 126.51463,58.531633 c -0.18942,0.01853 -0.37874,0.03817 -0.56793,0.05891 -0.45686,5.418882 -2.01515,9.54995 -4.53564,12.024072 -1.61224,-1.15022 -3.21137,-2.708556 -4.76095,-4.63951 -0.0776,0.0332 -0.15512,0.06661 -0.23254,0.100252 0.46273,2.594157 0.57878,4.959781 0.3452,7.03678 -3.72197,0.675752 -8.24898,-0.814438 -13.09895,-4.311881 -0.0732,0.05818 -0.14623,0.116579 -0.2191,0.175183 2.46794,5.167819 3.21747,9.741566 2.17609,13.278776 -2.1153,-0.185974 -4.45131,-0.78918 -6.946338,-1.793689 1.830188,2.125125 3.201198,4.229476 4.074158,6.253365 -2.984378,2.483676 -7.798458,3.430862 -13.909728,2.736784 4.99347,3.335456 8.0819,7.067414 8.94312,10.806575 -1.94566,0.94135 -4.3074,1.62388 -7.02024,2.02882 2.4061,0.85016 4.46468,1.88128 6.12624,3.06854 -1.62968,1.15724 -3.63893,2.15831 -5.98155,2.98018 2.71422,0.43981 5.07943,1.15798 7.03058,2.13476 -0.83541,3.79079 -3.89726,7.55095 -8.86612,10.88822 6.10351,-0.64108 10.92152,0.37192 13.921098,2.92695 -0.85886,2.04761 -2.21509,4.17179 -4.030228,6.31228 2.487118,-0.99513 4.818078,-1.58426 6.931348,-1.75183 1.0653,3.60562 0.34691,8.24616 -2.08566,13.47256 0.0727,0.0601 0.14556,0.1201 0.21859,0.17983 3.59423,-2.60851 7.02955,-4.09573 10.09964,-4.37234 0.20098,-3.01852 0.72355,-6.02301 1.49965,-8.92917 0.30672,-1.10956 0.65084,-2.2097 1.02061,-3.30161 -1.3102,-1.11734 -2.62996,-3.32113 -3.70642,-4.68969 -2.97844,-5.10134 -4.49049,-10.2409 -4.29285,-15.64506 0.20722,-5.666197 2.35053,-11.37031 5.68717,-16.031051 5.76955,-6.69919 10.87047,-9.884946 20.50737,-10.718659 v -5.16e-4 c 2.78212,0.03539 5.55553,0.486662 8.20002,1.382344 0.5094,0.180969 1.01601,0.370231 1.51722,0.572058 0.50125,0.20181 1.61392,0.576658 2.10439,0.804096 7.9811,4.450005 13.08591,11.781353 15.04288,20.381688 0.27656,1.49571 0.40548,3.00913 0.41238,4.52169 0.007,-7.3e-4 0.0145,-0.001 0.0207,-0.001 -0.0558,0.98798 -0.1463,1.97332 -0.31781,2.9502 -0.90205,5.71839 -4.68073,11.82494 -8.66372,15.90568 1.73818,4.75146 2.7481,9.75459 2.87372,14.82184 0.96177,0.61766 2.36476,1.07492 3.34574,1.90305 0.15952,-0.10625 0.31834,-0.21357 0.47645,-0.32194 -0.8008,-2.25272 -1.28321,-4.36224 -1.43712,-6.28437 3.35334,-0.88401 7.6119,-0.12332 12.40803,2.2164 0.12148,-0.15135 0.84819,-0.79594 0.96787,-0.94878 -3.21325,-4.74607 -4.63168,-9.17043 -4.11862,-12.84676 2.00395,-0.23434 4.2918,-0.11432 6.80682,0.35708 0.0692,-0.16269 0.13739,-0.32582 0.20464,-0.48937 -1.87375,-1.61793 -3.38009,-3.27874 -4.485,-4.94492 2.49863,-2.60268 6.68661,-4.17028 12.17807,-4.55838 0.0299,-0.11994 0.0594,-0.24001 0.0884,-0.36019 -4.68305,-2.27126 -7.94646,-5.08986 -9.52397,-8.22585 1.5806,-3.01426 4.79527,-5.705062 9.38961,-7.859467 -0.0299,-0.118797 -0.0602,-0.237482 -0.091,-0.356051 -5.49648,-0.43868 -9.69671,-2.024584 -12.21372,-4.611605 1.09431,-1.628227 2.59023,-3.247032 4.45399,-4.81986 -0.0686,-0.161987 -0.13823,-0.323565 -0.20878,-0.484725 -2.51248,0.437911 -4.80014,0.532571 -6.8063,0.281636 -0.53798,-3.623178 0.85162,-7.962652 4.0349,-12.600264 -0.12054,-0.151616 -0.24198,-0.302514 -0.36432,-0.452686 -4.78315,2.253087 -9.03888,2.957735 -12.39976,2.053105 0.14143,-1.89016 0.61031,-3.96135 1.39681,-6.170166 -0.15898,-0.108351 -0.31866,-0.215668 -0.47904,-0.321944 -1.90915,1.57896 -3.79233,2.767687 -5.60534,3.538285 -2.30341,-2.822283 -3.29378,-7.25544 -2.87528,-12.870532 -0.20075,-0.06849 -0.40195,-0.135669 -0.60358,-0.201538 -2.9994,4.273928 -6.29569,6.964738 -9.61026,7.844999 -0.80677,-1.7224 -1.4174,-3.768001 -1.81901,-6.093685 -0.17088,-0.02942 -0.34193,-0.05785 -0.51315,-0.08527 -0.87051,2.362537 -1.91384,4.37296 -3.10524,5.983614 -3.45466,-1.266643 -6.56111,-4.676057 -9.00772,-9.886218 z"
           sodipodi:nodetypes="cccccccccccccccccccccccccccacccccccccccccccccccccccccccccccccccccccccccc" /><g
           id="g8"
           transform="translate(-14.090666)"
           style="stroke-width:0.431548"><path
             id="path6"
             style="display:inline;opacity:0.876404;fill:#000000;fill-opacity:1;stroke:none;stroke-width:0.0388389;stroke-linecap:round;stroke-linejoin:round;stroke-dasharray:none;stroke-opacity:1"
             d="m 147.95784,102.86458 c -17.61002,17.4252 -19.27319,33.68074 -17.81126,43.43454 0.99271,13.85702 12.57682,18.37902 18.70305,18.08012 5.83806,0.74542 18.48104,-3.61737 19.41747,-18.14623 1.39182,-9.76383 -0.38796,-26.00718 -18.12217,-43.30502 l -0.18209,0.43946 -0.79964,30.41475 -1.02113,-30.47911 -0.18341,-0.43762 z" /><path
             id="path7"
             style="display:inline;opacity:0.876404;fill:#4d4d4d;fill-opacity:1;stroke:none;stroke-width:0.0388389;stroke-linecap:round;stroke-linejoin:round;stroke-dasharray:none;stroke-opacity:1"
             d="m 147.97114,110.86914 -0.39067,1.17776 c -0.004,0.0287 -0.008,0.0568 -0.0118,0.0715 0.14,-0.4191 0.25983,-0.83443 0.40417,-1.25482 z m -0.40274,1.25483 c -4.83917,14.94688 -4.96785,28.57378 -4.27831,36.79932 0.20139,3.67677 0.70464,6.55594 1.35662,8.80415 -5.25998,-9.30479 -4.58809,-20.25928 -5.33731,-30.41635 l -0.10814,-0.2479 c -1.20877,11.35869 0.90377,21.15651 2.71042,26.90248 1.03598,3.6563 2.24864,6.08234 3.39191,7.62134 -6.41216,-4.8162 -8.18969,-14.76947 -10.93546,-23.19124 l -0.125,-0.15092 c 1.42817,10.12135 5.0042,17.19422 7.52382,21.04345 2.91551,4.81753 5.40052,5.54685 6.60166,4.9678 -4.5e-4,7.1e-4 -6.1e-4,0.001 -10e-4,0.002 0.32039,0.18756 0.72633,0.22833 1.17819,0.10265 0.18358,-0.005 0.35379,-0.0479 0.5075,-0.11564 1.14682,0.69513 3.7084,0.0839 6.70122,-4.94266 2.49185,-3.86733 6.01666,-10.96571 7.37215,-21.09737 l -0.13294,0.15129 c -2.68496,8.44089 -4.39104,18.40599 -10.76769,23.26835 1.13271,-1.54706 2.32733,-3.98187 3.33655,-7.64472 1.76526,-5.75881 3.80614,-15.57138 2.51661,-26.92108 l -0.10687,0.2494 c -0.67572,10.16247 0.074,21.11219 -5.11892,30.45464 0.63535,-2.25292 1.11962,-5.13576 1.29374,-8.81429 0.63065,-8.23021 0.40286,-21.85576 -4.54302,-36.76733 2.66423,16.85132 7.98431,33.94606 -1.31437,50.50468 -9.47264,-16.51305 -4.26576,-33.67083 -1.7192,-50.56483 z m 3.03348,0.0657 c -0.004,-0.0289 -0.008,-0.0575 -0.0122,-0.0721 l -0.39906,-1.17419 -5.5e-4,-1e-5 c 0.14658,0.41947 0.27325,0.8341 0.41275,1.25193 z m 8.47417,14.87784 0.001,-0.003 -0.002,-6.1e-4 c 2.4e-4,10e-4 4.9e-4,0.002 6e-4,0.004 z m 5.04448,11.14565 0.003,-0.004 -0.003,5.2e-4 c -2e-4,0.001 -3.6e-4,0.002 -5.3e-4,0.003 z m -29.8834,0.0367 -6.3e-4,-0.004 -0.003,8e-5 z m 4.96402,-11.18197 c 1.7e-4,-0.001 5e-4,-0.002 5.3e-4,-0.004 l -0.002,5.3e-4 z" /><path
             id="path8"
             style="display:inline;opacity:1;fill:#ffcc00;stroke-width:0.0388389;stroke-linecap:round;stroke-linejoin:round"
             d="m 149.1872,82.073034 c -12.92635,-1.38e-4 -23.4055,10.478302 -23.40626,23.404646 0.005,5.69736 2.08772,11.19732 5.85797,15.46878 1.52782,-2.99827 1.76106,-3.37996 3.25764,-5.77904 1.30654,-2.09445 4.86399,-7.45583 7.70493,-10.60536 1.34632,-1.53495 3.92221,-3.4692 5.22853,-3.98617 0,0 1.40254,-0.4341 2.05257,-0.20949 0.72412,0.25022 2.88731,1.87366 2.88731,1.87366 2.666,1.98862 3.5531,3.99527 7.1441,8.08248 2.48598,3.46255 4.70878,7.02969 6.65334,10.88524 3.77756,-4.27559 6.0241,-10.0248 6.02615,-15.7301 -7.7e-4,-12.926344 -10.47991,-23.404784 -23.40628,-23.404646 z"
             sodipodi:nodetypes="cccsccsscccc" /></g></g><g
         inkscape:label="Layer 1"
         id="g10"
         style="stroke-width:0.368736" /></g></g></svg>
