<?xml version="1.0" encoding="UTF-8" standalone="no"?>
<!-- Created with Inkscape (http://www.inkscape.org/) -->

<svg
   width="3500"
   height="1440"
   viewBox="0 0 926.04165 381"
   version="1.1"
   id="svg1"
   xml:space="preserve"
   sodipodi:docname="logo_drop.svg"
   inkscape:version="1.3 (0e150ed6c4, 2023-07-21)"
   xmlns:inkscape="http://www.inkscape.org/namespaces/inkscape"
   xmlns:sodipodi="http://sodipodi.sourceforge.net/DTD/sodipodi-0.dtd"
   xmlns="http://www.w3.org/2000/svg"
   xmlns:svg="http://www.w3.org/2000/svg"><sodipodi:namedview
     id="namedview1"
     pagecolor="#ffffff"
     bordercolor="#000000"
     borderopacity="0.25"
     inkscape:showpageshadow="false"
     inkscape:pageopacity="0.0"
     inkscape:pagecheckerboard="0"
     inkscape:deskcolor="#d1d1d1"
     inkscape:document-units="px"
     inkscape:zoom="0.18062044"
     inkscape:cx="672.68134"
     inkscape:cy="573.02485"
     inkscape:window-width="1824"
     inkscape:window-height="1046"
     inkscape:window-x="-11"
     inkscape:window-y="-11"
     inkscape:window-maximized="1"
     inkscape:current-layer="layer1"
     showguides="true"><sodipodi:guide
       position="95.565273,129.73021"
       orientation="0,-1"
       id="guide6"
       inkscape:locked="false" /><sodipodi:guide
       position="80.248422,230.80738"
       orientation="1,0"
       id="guide7"
       inkscape:locked="false" /><sodipodi:guide
       position="83.660687,55.440647"
       orientation="0,-1"
       id="guide8"
       inkscape:locked="false" /><sodipodi:guide
       position="138.28079,325.55935"
       orientation="0,-1"
       id="guide9"
       inkscape:locked="false" /><sodipodi:guide
       position="252.22759,223.03879"
       orientation="1,0"
       id="guide10"
       inkscape:locked="false" /><sodipodi:guide
       position="356.81415,154.67941"
       orientation="1,0"
       id="guide11"
       inkscape:locked="false" /><sodipodi:guide
       position="429.93588,255.88674"
       orientation="0,-1"
       id="guide12"
       inkscape:locked="false" /><sodipodi:guide
       position="873.4217,279.74167"
       orientation="1,0"
       id="guide13"
       inkscape:locked="false" /><sodipodi:guide
       position="67.031582,196.49006"
       orientation="0,-1"
       id="guide14"
       inkscape:locked="false" /></sodipodi:namedview><defs
     id="defs1" /><g
     inkscape:label="Layer 1"
     inkscape:groupmode="layer"
     id="layer1"><path
       id="path17"
       style="display:none;fill:#666666;stroke:none;stroke-width:0.0899999;stroke-linecap:round;stroke-linejoin:round"
       d="m 257.26233,228.07497 -20.49694,68.86194 14.61668,-25.60774 c -0.14211,-0.1972 -0.206,-0.5098 -0.11007,-0.91984 0.0234,-0.0997 0.0493,-0.19925 0.0873,-0.29455 0.0326,-0.0861 0.0153,-0.0292 0.0279,-0.094 0.0164,-0.11245 0.0405,-0.22117 0.0749,-0.32918 0.007,-0.0434 0.0222,-0.1389 0.0196,-0.14676 0.021,-0.11722 0.0478,-0.23337 0.0909,-0.34469 0.044,-0.11667 0.0664,-0.24198 0.10593,-0.36018 0.0603,-0.20427 0.13105,-0.4054 0.22635,-0.59635 0.0872,-0.18128 0.1805,-0.35955 0.2651,-0.54208 0.0745,-0.14976 0.16285,-0.29374 0.22375,-0.44959 0.0646,-0.16497 0.13555,-0.32677 0.21705,-0.48421 0.0912,-0.18608 0.182,-0.37283 0.29197,-0.5488 0.11502,-0.19378 0.22354,-0.39115 0.33021,-0.58963 0.0975,-0.17382 0.1988,-0.34508 0.2744,-0.5302 0.0791,-0.17733 0.14488,-0.36035 0.23048,-0.53485 0.0822,-0.16268 0.17688,-0.31907 0.25528,-0.48369 0.0327,-0.066 0.0679,-0.1307 0.10129,-0.19637 l 2.68149,-7.64088 c 0.0474,-0.17068 0.0858,-0.34357 0.14211,-0.5116 0.0327,-0.0908 0.0684,-0.18091 0.0915,-0.27491 0.0506,-0.20534 0.12626,-0.3676 0.21549,-0.49351 l 0.18759,-0.53485 0.49609,-7.35976 z" /><path
       id="path1-3"
       style="display:inline;fill:#ffffff;fill-opacity:1;stroke-width:0.465655;-inkscape-stroke:none"
       d="m 78.36683,2.4443257 c -0.644308,0.096048 -1.213362,0.4951384 -1.492902,1.0470045 L 50.501735,55.591535 c -0.01719,0.06414 -0.03028,0.128824 -0.03922,0.193712 -2.498761,4.719614 -4.968242,9.454175 -7.376918,14.221069 -4.557549,8.995123 -8.477977,15.720565 -8.517048,24.562374 0.04784,17.20309 11.158865,32.61379 27.979637,38.80703 1.003056,0.39663 2.016729,0.76688 3.048851,1.08502 0.247359,0.0721 0.495384,0.14199 0.744044,0.20984 0.477961,0.13755 0.954813,0.27884 1.438037,0.39897 3.389421,0.82172 6.884428,1.21464 10.382213,1.2051 0.04203,0.003 0.08406,0.006 0.126093,0.009 0.06658,-0.001 0.133156,-0.003 0.199728,-0.005 0.128875,-0.001 0.25759,-0.007 0.38646,-0.009 23.432852,-0.30626 42.444892,-18.18768 43.102852,-40.539603 0.17889,-2.475903 -0.005,-4.960462 -0.38334,-7.423842 l 0.0279,0.82201 c -0.0345,-0.271299 -0.0718,-0.542267 -0.1119,-0.812866 l 0.0546,-0.183845 c -0.31924,-2.029459 -0.73474,-4.046241 -1.20823,-6.020216 -0.20403,-0.79738 -0.43604,-1.591882 -0.69159,-2.379403 l 0.007,0.0053 -0.11551,-0.308735 c -0.1264,-0.37757 -0.26371,-0.750815 -0.40378,-1.123286 -0.12149,-0.350223 -0.86638,-2.42261 -1.75832,-4.894523 -2.4e-4,2.55e-4 -4.9e-4,4.67e-4 -7.3e-4,7.22e-4 l 1.50879,4.207028 c -0.0413,-0.102328 -0.0937,-0.19901 -0.1362,-0.300794 l -1.43924,-3.844632 c -0.0138,0.01179 -0.0324,0.0094 -0.0467,0.01997 0.009,-0.244152 -0.0425,-0.482259 -0.14943,-0.697121 L 81.715512,3.5919158 C 81.344155,2.8671336 80.414879,2.5542508 79.544259,2.8608655 L 79.884276,2.7407885 79.28726,2.5278262 C 79.000881,2.4258384 78.683438,2.3970403 78.36683,2.4443257 Z M 121.65978,100.2525 c 4e-5,0.002 -3e-5,0.004 0,0.006 l 4.8e-4,-0.006 z m 0,0.006 h -4.8e-4 c 3e-5,0.002 -3e-5,0.004 0,0.006 z m -4.8e-4,0.006 -0.006,0.0693 -0.0888,0.25267 c 0.0165,-0.0238 0.0338,-0.0453 0.0522,-0.0635 0.0106,-0.0486 0.0217,-0.0969 0.044,-0.13211 -8.2e-4,-0.0422 -1.9e-4,-0.0841 -9.6e-4,-0.12633 z"
       transform="matrix(2.1474994,0,0,2.1474994,-3.840744,38.9631)"
       sodipodi:nodetypes="ccccccccccccccccccccccccccccccccccccccccccccccccccc" /><g
       id="g24"
       transform="matrix(2.179558,0,0,2.179558,208.84065,92.419893)"
       style="fill:#ff00ff"><g
         data-v-423bf9ae=""
         id="2faa8fa5-323a-48de-9766-71be4383c051"
         fill="#6d6162"
         transform="matrix(5.469462,0,0,5.469462,61.415069,-0.2598003)"
         style="display:inline;fill:#ff00ff"><path
           d="m 0.35,9.95 v 0 q 0,-1.68 1.18,-2.77 v 0 0 Q 2.7,6.09 4.21,6.09 v 0 0 q 1.52,0 2.68,1.09 v 0 0 q 1.16,1.08 1.16,2.76 v 0 0 q 0,1.16 -0.6,2.07 v 0 0 q -0.6,0.9 -1.46,1.33 v 0 0 Q 5.12,13.76 4.2,13.76 v 0 0 q -0.92,0 -1.79,-0.45 v 0 0 Q 1.54,12.85 0.95,11.96 v 0 0 Q 0.35,11.07 0.35,9.95 Z m 2.93,1.01 v 0 0 q 0.44,0.34 0.91,0.34 v 0 0 q 0.46,0 0.92,-0.35 v 0 0 Q 5.57,10.6 5.57,9.91 v 0 0 q 0,-0.68 -0.43,-1.02 v 0 0 Q 4.7,8.55 4.2,8.55 v 0 0 q -0.5,0 -0.94,0.35 v 0 0 Q 2.83,9.25 2.83,9.93 v 0 0 q 0,0.68 0.45,1.03 z m 5.68,1.44 v -4.91 0 q 0,-0.32 0.02,-0.48 v 0 0 Q 9,6.85 9.1,6.64 v 0 0 Q 9.3,6.27 10.19,6.27 v 0 0 q 0.67,0 0.95,0.24 v 0 0 q 0.24,0.2 0.26,0.6 v 0 0 q 0.01,0.14 0.01,0.41 v 0 4.9 0 q 0,0.32 -0.02,0.48 v 0 0 q -0.02,0.16 -0.13,0.37 v 0 0 q -0.19,0.37 -1.08,0.37 v 0 0 q -0.88,0 -1.08,-0.38 v 0 0 Q 9,13.05 8.98,12.89 v 0 0 Q 8.96,12.74 8.96,12.4 Z m 2.3,-7.51 v 0 0 q -0.1,0.21 -0.37,0.29 v 0 0 q -0.26,0.08 -0.7,0.08 v 0 0 q -0.45,0 -0.71,-0.08 v 0 0 Q 9.21,5.1 9.11,4.89 v 0 0 Q 9,4.68 8.98,4.52 v 0 0 Q 8.96,4.35 8.96,4.03 v 0 0 q 0,-0.32 0.02,-0.48 v 0 0 Q 9,3.39 9.1,3.19 v 0 0 Q 9.3,2.81 10.19,2.81 v 0 0 q 0.88,0 1.07,0.38 v 0 0 q 0.11,0.21 0.13,0.37 v 0 0 q 0.02,0.16 0.02,0.49 v 0 0 q 0,0.32 -0.02,0.48 v 0 0 q -0.02,0.16 -0.13,0.36 z m 1.27,5.79 v -6.66 0 q 0,-0.32 0.02,-0.48 v 0 0 q 0.02,-0.17 0.12,-0.38 v 0 0 q 0.2,-0.37 1.09,-0.37 v 0 0 q 0.86,0 1.07,0.37 v 0 0 q 0.11,0.21 0.13,0.38 v 0 0 q 0.02,0.17 0.02,0.49 v 0 6.48 0 q 0,0.51 0.08,0.64 v 0 0 q 0.09,0.13 0.38,0.13 v 0 0 q 0.28,0 0.38,0.03 v 0 0 q 0.1,0.02 0.24,0.11 v 0 0 q 0.28,0.19 0.28,1 v 0 0 q 0,0.88 -0.28,1.08 v 0 0 q -0.37,0.25 -1.74,0.08 v 0 0 q -1.08,-0.14 -1.4,-0.71 v 0 0 Q 12.53,12.18 12.53,10.68 Z M 23.06,7.24 v 0 0 q 0.66,-1 1.58,-1 v 0 0 q 1.43,0 2.13,1.22 v 0 0 q 0.15,-0.21 0.37,-0.44 v 0 0 q 0.22,-0.23 0.69,-0.5 v 0 0 q 0.48,-0.28 0.98,-0.28 v 0 0 q 1.12,0 1.88,0.87 v 0 0 q 0.75,0.86 0.75,2.84 v 0 2.45 0 q 0,0.33 -0.02,0.49 v 0 0 q -0.02,0.16 -0.13,0.37 v 0 0 q -0.18,0.38 -1.08,0.38 v 0 0 q -0.88,0 -1.08,-0.4 v 0 0 q -0.09,-0.21 -0.11,-0.37 v 0 0 q -0.03,-0.16 -0.03,-0.48 v 0 -2.45 0 q 0,-1.22 -0.86,-1.22 v 0 0 q -0.49,0 -0.67,0.32 v 0 0 q -0.17,0.33 -0.17,0.91 v 0 2.45 0 q 0,0.34 -0.02,0.49 v 0 0 q -0.03,0.16 -0.14,0.37 v 0 0 q -0.19,0.38 -1.09,0.38 v 0 0 q -0.88,0 -1.08,-0.4 v 0 0 q -0.1,-0.21 -0.12,-0.37 v 0 0 q -0.02,-0.16 -0.02,-0.48 v 0 -2.45 0 q 0,-1.22 -0.87,-1.22 v 0 0 q -0.84,0 -0.84,1.22 v 0 2.48 0 q 0,0.32 -0.02,0.48 v 0 0 q -0.02,0.16 -0.13,0.37 v 0 0 q -0.21,0.37 -1.09,0.37 v 0 0 q -0.88,0 -1.08,-0.38 v 0 0 q -0.1,-0.21 -0.12,-0.37 v 0 0 Q 20.65,12.74 20.65,12.4 v 0 -4.92 0 q 0,-0.33 0.02,-0.49 v 0 0 Q 20.69,6.83 20.8,6.64 v 0 0 q 0.21,-0.38 1,-0.38 v 0 0 q 0.78,0 1.02,0.25 v 0 0 q 0.24,0.25 0.24,0.73 z m 9.5,5.16 v -4.91 0 q 0,-0.32 0.03,-0.48 v 0 0 Q 32.61,6.85 32.7,6.64 v 0 0 q 0.2,-0.37 1.1,-0.37 v 0 0 q 0.67,0 0.95,0.24 v 0 0 q 0.24,0.2 0.25,0.6 v 0 0 q 0.01,0.14 0.01,0.41 v 0 4.9 0 q 0,0.32 -0.02,0.48 v 0 0 q -0.02,0.16 -0.13,0.37 v 0 0 q -0.18,0.37 -1.08,0.37 v 0 0 q -0.88,0 -1.08,-0.38 v 0 0 q -0.09,-0.21 -0.11,-0.37 v 0 0 Q 32.56,12.74 32.56,12.4 Z m 2.31,-7.51 v 0 0 Q 34.76,5.1 34.5,5.18 v 0 0 q -0.27,0.08 -0.71,0.08 v 0 0 q -0.44,0 -0.71,-0.08 v 0 0 Q 32.82,5.1 32.71,4.89 v 0 0 Q 32.61,4.68 32.59,4.52 v 0 0 Q 32.56,4.35 32.56,4.03 v 0 0 q 0,-0.32 0.03,-0.48 v 0 0 Q 32.61,3.39 32.7,3.19 v 0 0 q 0.2,-0.38 1.1,-0.38 v 0 0 q 0.88,0 1.06,0.38 v 0 0 q 0.11,0.21 0.13,0.37 v 0 0 q 0.02,0.16 0.02,0.49 v 0 0 q 0,0.32 -0.02,0.48 v 0 0 q -0.02,0.16 -0.12,0.36 z m 1.26,5.79 v -6.66 0 q 0,-0.32 0.03,-0.48 v 0 0 q 0.02,-0.17 0.11,-0.38 v 0 0 q 0.2,-0.37 1.1,-0.37 v 0 0 q 0.85,0 1.06,0.37 v 0 0 q 0.11,0.21 0.13,0.38 v 0 0 q 0.02,0.17 0.02,0.49 v 0 6.48 0 q 0,0.51 0.09,0.64 v 0 0 q 0.08,0.13 0.37,0.13 v 0 0 q 0.29,0 0.38,0.03 v 0 0 q 0.1,0.02 0.24,0.11 v 0 0 q 0.28,0.19 0.28,1 v 0 0 q 0,0.88 -0.28,1.08 v 0 0 q -0.36,0.25 -1.73,0.08 v 0 0 q -1.08,-0.14 -1.4,-0.71 v 0 0 q -0.4,-0.69 -0.4,-2.19 z m 4.58,0 v -6.66 0 q 0,-0.32 0.02,-0.48 v 0 0 q 0.02,-0.17 0.12,-0.38 v 0 0 q 0.2,-0.37 1.09,-0.37 v 0 0 q 0.86,0 1.07,0.37 v 0 0 q 0.11,0.21 0.13,0.38 v 0 0 q 0.02,0.17 0.02,0.49 v 0 6.48 0 q 0,0.51 0.09,0.64 v 0 0 q 0.08,0.13 0.37,0.13 v 0 0 q 0.28,0 0.38,0.03 v 0 0 q 0.1,0.02 0.24,0.11 v 0 0 q 0.28,0.19 0.28,1 v 0 0 q 0,0.88 -0.28,1.08 v 0 0 q -0.36,0.25 -1.74,0.08 v 0 0 q -1.07,-0.14 -1.4,-0.71 v 0 0 q -0.39,-0.69 -0.39,-2.19 z"
           id="path1"
           style="fill:#ff00ff" /></g></g><g
       transform="matrix(2.1474994,0,0,2.1474994,-3.8407439,38.963099)"
       stroke-width="0.465655"
       id="g8"
       style="display:inline"><path
         d="m 94.414,98.544 c -5.8406,0.0091 -11.292,1.6871 -15.912,4.574 0.0066,0.004 0.01104,0.008 0.01673,0.0113 -4.6327,-2.8792 -10.095,-4.5447 -15.943,-4.5356 -8.589,0.01341 -16.337,3.6309 -21.83,9.41 a 40.555,40.555 0 0 0 1.4107,3.1362 c 4.943,-5.7291 12.249,-9.3606 20.424,-9.3734 14.943,-0.0233 27.041,12.037 27.064,26.98 0.0016,1.0559 -0.06357,2.0957 -0.17931,3.12 a 40.555,40.555 0 0 0 4.388,-1.5983 c -0.6126,-0.23527 -1.0348,-0.81766 -1.0359,-1.5266 -0.0014,-0.92649 0.71417,-1.645 1.6407,-1.6464 0.9265,-0.001 1.6447,0.71478 1.6461,1.6413 3.23e-4,0.20711 -0.04012,0.40154 -0.10582,0.58216 a 40.555,40.555 0 0 0 3.1288,-1.7084 c -0.51647,-2.1047 -2.4205,-3.6907 -4.674,-3.6872 -0.69899,10e-4 -1.3629,0.15813 -1.9645,0.43212 -0.05358,-0.36279 -0.11843,-0.72167 -0.1848,-1.0802 0.66453,-0.26001 1.3872,-0.40837 2.1478,-0.40956 2.6885,-0.004 4.9334,1.7672 5.6444,4.2157 a 40.555,40.555 0 0 0 2.6476,-1.9584 c -1.4042,-3.1928 -4.6,-5.4352 -8.2972,-5.4294 -1.0093,0.002 -1.9777,0.17759 -2.8855,0.48731 -0.1016,-0.34127 -0.21001,-0.67908 -0.32325,-1.0152 1.0075,-0.33698 2.0834,-0.52795 3.2072,-0.5297 4.0747,-0.006 7.564,2.3798 9.1703,5.8347 a 40.555,40.555 0 0 0 2.457,-2.1481 c -2.2718,-4.0898 -6.6375,-6.8665 -11.632,-6.8587 -1.532,0.002 -2.9978,0.27961 -4.3682,0.76269 -0.1491,-0.32471 -0.30245,-0.64677 -0.46262,-0.96518 1.5095,-0.54135 3.13,-0.85244 4.829,-0.85509 5.3137,-0.008 9.9316,2.8617 12.414,7.1365 a 40.555,40.555 0 0 0 2.2704,-2.3329 c -3.1322,-4.801 -8.5445,-7.9854 -14.689,-7.9758 -2.2665,0.004 -4.4265,0.45401 -6.4153,1.2454 -0.19917,-0.30918 -0.40234,-0.61537 -0.61235,-0.9167 2.1658,-0.88788 4.5366,-1.3824 7.0262,-1.3863 6.4012,-0.01 12.037,3.2035 15.38,8.1118 a 40.555,40.555 0 0 0 1.967,-2.6278 c -3.9787,-5.255 -10.268,-8.6672 -17.352,-8.6561 -3.2219,0.005 -6.2782,0.71959 -9.0291,1.9871 -0.24574,-0.28235 -0.49582,-0.56075 -0.75171,-0.83375 2.9609,-1.4115 6.2752,-2.2054 9.779,-2.2109 7.3378,-0.0115 13.843,3.4434 18.018,8.8074 a 40.555,40.555 0 0 0 1.6367,-2.9971 c -4.7728,-5.507 -11.814,-8.9953 -19.66,-8.983 -4.4083,0.007 -8.5594,1.1202 -12.196,3.0709 -0.29256,-0.25027 -0.58962,-0.49489 -0.89169,-0.73403 3.8737,-2.1537 8.3326,-3.3864 13.086,-3.3938 8.042,-0.0126 15.256,3.4786 20.212,9.0318 a 40.555,40.555 0 0 0 1.3537,-3.1645 c -5.4916,-5.5862 -13.131,-9.0532 -21.57,-9.0401 z m -31.832,4.2794 c -7.9786,0.0125 -15.117,3.6405 -19.874,9.3255 a 40.555,40.555 0 0 0 1.6885,2.98 c 4.1471,-5.5292 10.732,-9.1211 18.191,-9.1328 12.607,-0.0197 22.809,10.15 22.828,22.757 0.0022,1.3913 -0.12636,2.751 -0.36198,4.0733 a 40.555,40.555 0 0 0 3.3158,-0.72152 c 0.14083,-1.0999 0.22074,-2.2187 0.21896,-3.3566 -0.02236,-14.321 -11.685,-25.947 -26.006,-25.925 z m 0.0067,4.2303 c -7.2017,0.0113 -13.572,3.5562 -17.521,8.9727 a 40.555,40.555 0 0 0 1.9871,2.654 c 3.3008,-5.081 9.0128,-8.4444 15.539,-8.4546 10.271,-0.016 18.576,8.2632 18.592,18.534 0.0024,1.5657 -0.20888,3.0772 -0.56965,4.5292 a 40.555,40.555 0 0 0 3.3203,-0.23755 c 0.27748,-1.3897 0.42374,-2.8263 0.42145,-4.2968 -0.01872,-11.985 -9.7837,-21.72 -21.769,-21.701 z m 0.0067,4.2297 c -6.2608,0.01 -11.746,3.3367 -14.833,8.3002 a 40.555,40.555 0 0 0 2.296,2.296 c 2.4306,-4.4224 7.1239,-7.4157 12.542,-7.4241 7.9346,-0.0124 14.343,6.376 14.355,14.311 0.0025,1.5897 -0.26229,3.1134 -0.73463,4.5414 a 40.555,40.555 0 0 0 2.0655,0.1479 40.555,40.555 0 0 0 1.2125,-0.0866 c 0.40022,-1.4712 0.63131,-3.0114 0.62882,-4.6076 -0.01507,-9.6491 -7.8834,-17.493 -17.532,-17.478 z m 0.0064,4.2297 c -5.1015,0.008 -9.5338,2.9204 -11.749,7.1612 a 40.555,40.555 0 0 0 2.4985,2.0905 c 1.547,-3.5776 5.0949,-6.0731 9.2551,-6.0796 5.5986,-0.009 10.111,4.489 10.119,10.088 0.0023,1.4724 -0.31394,2.8658 -0.87308,4.1257 a 40.555,40.555 0 0 0 3.2633,0.32996 c 0.49918,-1.3974 0.78435,-2.8948 0.7819,-4.4606 -0.01142,-7.313 -5.9833,-13.266 -13.296,-13.255 z m 0.0067,4.2297 c -3.7841,0.006 -7.0344,2.3656 -8.374,5.6828 a 40.555,40.555 0 0 0 2.7019,1.906 c 0.64214,-2.5444 2.9223,-4.4123 5.677,-4.4166 3.2625,-0.005 5.8778,2.6021 5.8829,5.8646 0.0018,1.1786 -0.34125,2.2698 -0.92889,3.1868 a 40.555,40.555 0 0 0 3.2118,0.69865 c 0.56573,-1.1818 0.89142,-2.4984 0.88925,-3.8906 -0.0078,-4.977 -4.0829,-9.0393 -9.0599,-9.0315 z m 0.0067,4.2297 c -2.3203,0.004 -4.2756,1.6866 -4.714,3.886 a 40.555,40.555 0 0 0 3.3344,1.8206 c -0.16062,-0.2543 -0.25595,-0.55664 -0.25647,-0.88802 -0.0014,-0.92649 0.71449,-1.645 1.641,-1.6464 0.9265,-10e-4 1.645,0.71477 1.6464,1.6413 0.0012,0.78831 -0.5195,1.4211 -1.2448,1.5946 a 40.555,40.555 0 0 0 3.4332,1.2808 c 0.60957,-0.80832 0.98547,-1.8001 0.98378,-2.8803 -0.0041,-2.641 -2.1825,-4.8126 -4.8235,-4.8085 z"
         color="#000000"
         fill="#44aa00"
         style="stroke-width:0.465655;-inkscape-stroke:none"
         id="path5" /><path
         d="m 75.471,74.648 a 22.962,22.962 0 0 0 -0.26684,0.02807 22.364,9.567 65.175 0 1 -2.1304,5.6471 20.311,8.6886 80.639 0 1 -2.2359,-2.1792 20.854,20.854 0 0 0 -0.10948,0.0473 20.201,8.7359 50.878 0 1 0.16224,3.3048 22.364,9.567 65.175 0 1 -6.1525,-2.0249 22.962,22.962 0 0 0 -0.10247,0.08231 22.243,9.6191 35.414 0 1 1.0219,6.2369 20.201,8.7359 50.878 0 1 -3.2624,-0.8429 20.096,8.7816 20.603 0 1 1.9133,2.9373 22.243,9.6191 35.414 0 1 -6.5327,1.2851 22.128,9.6694 5.1388 0 1 4.2004,5.0757 20.096,8.7816 20.603 0 1 -3.2978,0.95298 8.7789,20.102 80.083 0 1 3.1264,1.5952 22.128,9.6694 5.1388 0 1 -0.17048,0.30618 c 1.4737,-0.08792 2.9528,-0.06273 4.4252,0.0525 0.03544,-2.9754 1.0755,-5.9479 2.9803,-8.2411 2.4652,-3.0833 6.4218,-4.7889 10.342,-4.739 1.3067,0.01664 2.6092,0.22827 3.8513,0.64895 0.23925,0.08499 0.47697,0.17418 0.71238,0.26897 0.23542,0.09478 0.46889,0.19508 0.69926,0.30191 3.8492,1.7378 6.6619,5.4958 7.3546,9.6484 0.1299,0.7025 0.1901,1.4133 0.19334,2.1237 0.75031,-0.07858 1.5024,-0.13826 2.2564,-0.16345 0.89064,-0.03154 1.7819,-0.01854 2.6711,0.02842 a 22.128,9.6694 5.1388 0 1 4.5667,-3.9452 22.962,22.962 0 0 0 -0.0426,-0.16712 9.6665,22.134 64.619 0 1 -5.7365,-2.1658 8.7789,20.102 80.083 0 1 2.092,-2.264 20.854,20.854 0 0 0 -0.0979,-0.22749 8.7307,20.213 49.851 0 1 -3.1971,0.13235 9.6665,22.134 64.619 0 1 1.8953,-5.9182 22.962,22.962 0 0 0 -0.17108,-0.21255 9.6134,22.256 34.387 0 1 -5.824,0.96426 8.7307,20.213 49.851 0 1 0.65596,-2.8977 20.854,20.854 0 0 0 -0.22476,-0.15156 l -2.94e-4,3.03e-4 a 8.686,20.317 20.132 0 1 -2.6324,1.6614 9.6134,22.256 34.387 0 1 -1.3506,-6.0445 22.962,22.962 0 0 0 -0.28331,-0.09484 9.5643,22.371 4.6678 0 1 -4.5136,3.6845 8.686,20.317 20.132 0 1 -0.85479,-2.862 20.854,20.854 0 0 0 -0.2406,-0.03994 20.311,8.6886 80.639 0 1 -1.4586,2.8105 9.5643,22.371 4.6678 0 1 -4.2306,-4.6435 z"
         fill="#f6e500"
         id="path6"
         style="stroke-width:0.465655" /><path
         d="m 79.264,86.232 a 11.009,11.009 0 0 0 -11.009,11.009 11.009,11.009 0 0 0 0.01161,0.16102 c 3.9407,0.58297 7.7735,1.8834 11.211,3.9055 3.3179,-1.946 6.9987,-3.252 10.791,-3.8836 a 11.009,11.009 0 0 0 0.0043,-0.18296 11.009,11.009 0 0 0 -11.009,-11.009 z"
         fill="#ffcc00"
         stroke-linecap="round"
         stroke-linejoin="round"
         stroke-width="6.98473"
         id="path7" /><path
         d="m 79.896,7.6729 c -0.11255,0.00234 -0.2249,4.982e-4 -0.33745,0.0026 l -5.5821,10.412 c 0.51576,15.04 1.052,30.075 1.5808,45.112 0.41433,2.1397 0.49142,6.8139 0.93586,8.9204 0.50351,2.0622 1.6176,3.0464 2.5141,3.883 0.85481,0.39019 1.7547,-1.467 1.8815,-3.5197 0.0899,-1.1085 1.0236,2.1168 1.3606,3.0081 0.63106,1.0007 0.64717,-6.5639 0.65422,-8.3587 0.5528,-16.541 1.1301,-33.275 1.6965,-49.924 -1.6105,-3.1126 -3.1901,-6.2815 -4.7041,-9.5353 z m 7.1014,14.078 c -1.1338,15.6 -2.379,35.598 -3.4907,51.202 -0.214,2.3347 -0.5753,4.1933 0.55914,3.6804 0.76533,-1.0487 0.76154,-0.31258 1.7808,-3.268 1.333,-1.9094 2.3124,0.64576 2.3229,1.5937 0.26924,1.8277 0.10897,0.36379 0.40618,3.035 0.22725,2.0424 1.7977,1.7551 1.8846,-0.71469 2.0052,-12.609 5.2645,-25.495 7.2709,-38.104 -3.1271,-5.4104 -7.6148,-11.625 -10.734,-17.424 z m -16.257,2.3719 -9.1617,17.089 c 2.0046,10.727 4.0146,21.452 6.025,32.175 0.33804,1.6356 0.95549,3.6843 1.3477,5.2622 0.59488,1.501 1.1012,0.49379 1.1121,-1.3327 0.13601,-1.2855 -0.25416,-0.72805 0.10852,-1.9286 0.35761,-0.55944 2.0975,1.2779 2.2624,1.8629 0.51136,1.3668 0.89393,0.46046 1.4805,-1.0325 0.38992,-1.9597 0.58937,-2.3295 1.0113,-4.6421 -1.2299,-14.191 -2.7122,-32.605 -3.9563,-46.789 -0.04834,-0.26477 -0.13141,-0.4785 -0.22892,-0.66456 z m 29.002,20.172 c -1.5923,6.2107 -2.8197,10.132 -4.4096,16.345 -0.83674,3.2849 -3.2897,14.213 -4.114,17.51 -0.19077,0.98901 1.1092,0.09036 1.2702,1.0067 0.14748,1.4761 -0.30437,1.4666 -0.13177,2.5544 0.543,1.1388 1.5282,0.24179 2.2164,-0.08733 0.66018,-0.21886 1.3352,-0.38482 1.8738,-0.63717 0.35063,0.60582 2.64,-5.7894 3.0592,-6.8487 1.9193,-5.0985 1.9212,-5.2832 3.807,-10.447 0.91531,-2.5533 1.6025,-6.0214 2.5228,-8.5669 -1.9165,-3.5414 -3.9902,-7.1708 -6.0942,-10.829 z m -40.888,1.9999 -8.0135,14.947 c 3.3232,7.379 5.2152,10.58 8.5478,17.949 0.42878,0.82311 1.7246,2.3404 2.2298,3.0412 0.74989,0.59098 1.5987,1.6812 2.4531,1.4557 0.98678,-0.49904 0.60148,-0.54935 0.27492,-1.9549 -0.78601,-2.0319 -0.55169,-1.207 -0.86765,-3.1621 0.12001,-0.55977 1.4438,-0.58906 1.6722,-0.18655 0.50636,0.50033 2.5683,2.1755 3.1822,1.5637 0.65354,-0.47984 -0.60447,-4.0732 -1.0402,-4.9537 -1.0656,-3.4686 -2.0527,-6.9988 -3.0923,-10.488 -1.7854,-6.0678 -3.5604,-12.144 -5.3464,-18.211 z m 50.162,14.93 c -0.0358,0.06628 -0.0691,0.14728 -0.10697,0.20671 -3.6763,6.9762 -7.3637,13.939 -11.033,20.924 -0.37954,0.9597 -1.269,3.5356 -0.60254,3.4768 0.42402,0.08049 2.4622,-1.8834 2.8024,-1.2692 0.20449,0.59059 -0.15467,1.3118 -0.3607,1.6909 -0.54674,0.66017 -1.0088,2.4482 -1.0852,3.4199 0.48383,0.58305 0.60357,0.74603 0.99529,0.0052 2.5118,-3.3182 6.6851,-7.9123 9.2072,-11.212 1.6775,-2.2013 3.3716,-4.3762 5.041,-6.5903 -1.422,-3.5248 -3.0547,-7.07 -4.8576,-10.652 z m -60.959,5.2095 -4.1496,7.7401 c -0.33768,0.90004 -0.59897,1.7094 -0.89607,2.5611 3.661,3.3956 7.3236,6.7933 10.998,10.171 0.50121,0.34683 2.5002,1.4731 2.8846,1.0847 2.1197,0.25054 3.2709,0.29447 4.9465,-0.34468 0.81527,-0.65981 0.11266,-2.1311 -0.57619,-2.7766 -0.32191,-0.31981 -1.4708,-1.9752 -1.6381,-2.3968 -3.8308,-5.1795 -7.7197,-10.876 -11.569,-16.039 z m 66.946,9.6775 c -0.0387,-8.66e-4 -0.0764,0.0098 -0.11266,0.03414 -4.3781,3.6289 -10.87,11.003 -15.238,14.646 -0.54811,0.70536 2.5835,1.354 3.3507,1.2159 0.32696,0.06784 0.8721,1.4742 0.0202,1.5854 -1.3075,0.9219 -3.1876,1.6353 -3.9186,3.2825 2.1414,0.86653 2.3336,0.81959 3.0029,0.73846 0.71059,0.11231 2.7999,-1.1569 3.4205,-1.7058 5.4582,-2.9309 7.7695,-3.571 13.22,-6.5169 0.0665,-0.05917 0.12047,-0.12494 0.16846,-0.19378 -0.0875,-0.45708 -0.16147,-0.89265 -0.28111,-1.4046 -0.53123,-3.0019 -1.2929,-5.9932 -2.2376,-8.9876 h 5.2e-4 c -3e-5,0 -0.81638,-2.6799 -1.3958,-2.6939 z m -72.491,4.686 c -0.03293,-1.22e-4 -0.0663,0.0017 -0.0987,0.0061 -0.37129,0.03431 -0.69485,0.26937 -0.7922,0.63872 -0.67554,2.1704 -1.2167,4.3988 -1.4206,6.6668 0.08968,0.64428 0.78871,0.83837 1.2976,1.0568 4.6889,2.161 11.611,5.9429 16.305,8.0936 0.64978,-0.2771 1.2152,-0.82328 0.57826,-1.0242 -0.38434,-0.22562 -2.661,-1.7482 -2.4061,-2.8169 0.54597,-0.08801 3.2275,0.08231 3.438,-0.52348 0.17402,-0.60635 -2.0623,-1.8171 -2.5368,-2.0665 -4.6851,-3.3314 -9.3882,-6.6396 -14.08,-9.9622 -0.0866,-0.04826 -0.18544,-0.06836 -0.28422,-0.0687 z m 15.291,16.462 c -0.57394,0.0577 1.0825,0.41557 0,0 z m 61.295,-5.7185 c -0.1382,0.0026 -0.43497,0.35685 -0.86196,0.53123 -0.56932,0.2325 -1.6475,0.71261 -2.4753,0.98288 -3.6585,1.3699 -8.1296,3.4033 -11.781,4.7873 -0.63018,0.41858 0.53998,0.79365 1.2511,0.86661 2.1933,0.58436 4.2658,1.5523 6.226,2.681 1.0006,0.14686 1.9786,-0.25299 2.9673,-0.35295 1.2077,-0.22388 2.4346,-0.3751 3.6272,-0.65991 0.66181,-0.38936 0.54467,-1.2377 0.70125,-1.879 0.28255,-1.899 0.62489,-4.9106 0.42995,-6.8234 -0.01,-0.0966 -0.0381,-0.1348 -0.0842,-0.13384 z m -79.2,1.7746 c -0.45126,0.05242 -0.81433,0.4347 -0.72915,0.81959 -0.05302,1.5992 0.17885,3.1975 0.51831,4.7682 0.07858,0.36902 0.47614,0.61416 0.9095,0.63356 1.8506,0.2332 3.6852,0.55527 5.5428,0.75138 0.76243,-0.1787 1.8924,0.14952 2.8246,0.0165 2.0786,-0.29651 4.672,-1.4624 6.0379,-1.7963 0.59366,-0.27206 1.6904,-0.49282 1.063,-0.58911 -3.9514,-1.2014 -12.007,-3.3809 -15.954,-4.5904 -0.07031,-0.01144 -0.14127,-0.01802 -0.21291,-0.01343 z m 78.41,8.2424 c -0.19881,0.0128 -0.42073,0.1603 -0.63252,0.17053 v 5.1e-4 c -1.0166,0.095 -4.1428,0.43954 -5.1568,0.56328 -0.75639,0.20879 0.28836,1.0823 0.98185,1.2811 0.80766,0.30956 2.7661,0.95575 3.5677,1.263 0.5115,0.10666 0.96912,-0.0554 1.2506,-0.28732 0.1642,-0.62899 0.74439,-2.1433 0.31522,-2.8096 -0.0955,-0.14823 -0.20678,-0.18911 -0.32607,-0.18138 z m -70.552,0.0253 c -0.01794,-0.002 -0.03948,-8.7e-4 -0.06511,5.2e-4 -1.162,-0.0264 -6.4197,0.90584 -7.5804,0.90744 v -5.2e-4 c -0.07738,1.1e-4 -0.15516,7.4e-4 -0.23254,0.003 -0.2502,0.0439 -0.43481,0.14614 -0.57464,0.26458 0.05757,0.39091 0.12682,0.77751 0.19637,1.1638 0.19752,0.36055 0.40299,0.71992 0.69402,1.0594 0.54011,0.37096 1.5964,0.18349 2.0066,-0.16899 0.78747,-0.47434 1.8064,-0.76276 2.5854,-1.294 0.48934,-0.33373 3.5267,-1.8882 2.9704,-1.9348 z"
         fill="#00defe"
         id="path8"
         style="stroke-width:0.465655" /></g></g></svg>
