<?xml version="1.0" encoding="UTF-8"?>
<!-- Created with Inkscape (http://www.inkscape.org/) -->
<svg width="512" height="512" version="1.1" viewBox="0 0 512 512" xmlns="http://www.w3.org/2000/svg" xmlns:xlink="http://www.w3.org/1999/xlink">
 <g transform="translate(5.1545 6.8466)">
  <path id="path196" d="m250.62 57.545a191.84 191.84 0 0 0-25.752 1.8448l24.617 261.22c0.37409 0.22185 0.76785 0.4088 1.14 0.63388 0.38475-0.23251 0.78156-0.44274 1.1684-0.67173l24.13-261.3a191.84 191.84 0 0 0-25.303-1.7266zm-42.796 5.3217a191.84 191.84 0 0 0-47.408 17.758l84.887 237.65c1.0849 0.59663 2.1753 1.1834 3.2451 1.807zm91.921 1.1258-46.75 255.88c1.136-0.65824 2.2673-1.3209 3.4201-1.9489l90.128-234.62a191.84 191.84 0 0 0-46.798-19.314zm-156.88 27.034a191.84 191.84 0 0 0-37.077 32.583l131.86 190.73c2.0075 0.95788 3.9972 1.9432 5.9603 2.9896zm220.76 3.3728-105.43 222.6c2.1031-1.1097 4.2328-2.17 6.386-3.1788l134.81-185.53a191.84 191.84 0 0 0-35.766-33.893zm-269.75 45.085a191.84 191.84 0 0 0-22.053 41.746l148.39 126.04c4.7289 1.5726 9.3606 3.4013 13.912 5.4304zm317.13 4.6973-142.63 167.92c4.9227-2.1432 9.9539-4.0326 15.076-5.6433l148.33-120.1a191.84 191.84 0 0 0-20.776-42.176zm-345.2 54.607a191.84 191.84 0 0 0-6.5232 43.685l120.72 57.176c10.606 0.54334 21.154 2.2035 31.414 4.9432zm371.22 5.369-144.21 99.697c1.1582-0.28443 2.3123-0.58495 3.4768-0.84202 9.7613-2.1797 19.73-3.3436 29.721-3.5336l116.41-51.821a191.84 191.84 0 0 0-5.3926-43.501zm-377.5 55.544a191.84 191.84 0 0 0 6.14 39.636l53.354 9.7351c14.307-5.3456 29.411-8.5512 44.659-9.3851zm381.82 5.1892-98.567 35.208c15.491 1.4097 30.761 5.1743 45.104 11.211l46.623-7.3841a191.84 191.84 0 0 0 6.8401-39.035zm-370.8 49.243a191.84 191.84 0 0 0 7.5592 18.009c7.0779-5.6278 14.674-10.583 22.654-14.83zm358.52 4.3567-23.174 1.8874c6.0235 3.529 11.808 7.4535 17.247 11.821a191.84 191.84 0 0 0 5.9271-13.709z" fill="#00aec7" style="mix-blend-mode:normal"/>
  <g id="g178" transform="matrix(3.8129 0 0 3.86 -1057 -805.09)">
   <path d="m343 245.91a32.43 32.43 0 0 0-1.5328 0.10859 32.429 32.43 0 0 1 3.0222-0.0707 32.43 32.43 0 0 0-1.4894-0.0379zm1.5581 0.0399a32.429 32.43 0 0 1 4.4989 0.53568 32.43 32.43 0 0 0-4.4989-0.53568zm-5.4091 0.23526a32.43 32.43 0 0 0-2.2784 0.38366 32.429 32.43 0 0 1 2.2784-0.38366zm10.022 0.32031a32.429 32.43 0 0 1 4.298 1.151 32.43 32.43 0 0 0-4.298-1.151zm-14.559 0.55558a32.43 32.43 0 0 0-2.197 0.70216 32.429 32.43 0 0 1 2.197-0.70216zm7.9807 0.23527a29.7 12.837 73.623 0 1-5.8399 8.4295 29.7 12.837 73.623 0 1-9.4266-3.9017 29.7 12.837 43.623 0 1-0.84149 10.221 29.7 12.837 43.623 0 1-10.143 1.3265 29.699 12.838 13.623 0 1 4.4138 9.2837 29.699 12.838 13.623 0 1-8.0929 6.2253 12.837 29.699 73.622 0 1 8.4331 5.8254 12.837 29.699 73.622 0 1-3.8981 9.4411 12.837 29.7 43.622 0 1 10.219 0.82704 12.837 29.7 43.622 0 1 1.3446 10.125 12.837 29.7 13.622 0 1 9.2638-4.3921 12.837 29.7 13.622 0 1 6.2217 8.1237 29.7 12.837 73.623 0 1 5.8308-8.4657 29.7 12.837 73.623 0 1 9.4484 3.9234 29.7 12.837 43.623 0 1 0.8198-10.245 29.7 12.837 43.623 0 1 10.143-1.3247 29.699 12.838 13.623 0 1-4.412-9.2837 29.699 12.838 13.623 0 1 8.1237-6.2181 12.837 29.699 73.622 0 1-8.4657-5.8344 12.837 29.699 73.622 0 1 3.9252-9.4484 12.837 29.7 43.622 0 1-10.246-0.8198 12.837 29.7 43.622 0 1-1.3356-10.113 12.837 29.7 13.622 0 1-9.271 4.3831 12.837 29.7 13.622 0 1-6.2145-8.0893zm11.09 0.4307a32.429 32.43 0 0 1 4.0428 1.73 32.43 32.43 0 0 0-4.0428-1.73zm-23.432 0.84332a32.43 32.43 0 0 0-2.0829 1.0134 32.429 32.43 0 0 1 2.0829-1.0134zm27.69 0.99532a32.429 32.43 0 0 1 3.737 2.2748 32.43 32.43 0 0 0-3.737-2.2748zm-31.8 1.1238a32.43 32.43 0 0 0-1.902 1.2885 32.429 32.43 0 0 1 1.902-1.2885zm35.765 1.312a32.429 32.43 0 0 1 3.3461 2.7616 32.43 32.43 0 0 0-3.3461-2.7616zm-39.536 1.3754a32.43 32.43 0 0 0-1.6848 1.5328 32.429 32.43 0 0 1 1.6848-1.5328zm43.309 1.7934a32.429 32.43 0 0 1 0.5248 0.52661 32.43 32.43 0 0 0-0.5248-0.52661zm1.0695 1.0967a32.429 32.43 0 0 1 0.54471 0.60262 32.43 32.43 0 0 0-0.54471-0.60262zm-47.72 0.2986a32.43 32.43 0 0 0-1.4514 1.759 32.429 32.43 0 0 1 1.4514-1.759zm48.795 0.91751a32.429 32.43 0 0 1 0.49044 0.59901 32.43 32.43 0 0 0-0.49044-0.59901zm0.98086 1.227a32.429 32.43 0 0 1 0.48317 0.65148 32.43 32.43 0 0 0-0.48317-0.65148zm0.92113 1.274a32.429 32.43 0 0 1 0.4687 0.70035 32.43 32.43 0 0 0-0.4687-0.70035zm-53.55 0.21173a32.43 32.43 0 0 0-1.198 1.9689 32.429 32.43 0 0 1 1.198-1.9689zm54.428 1.1365a32.429 32.43 0 0 1 0.4126 0.68948 32.43 32.43 0 0 0-0.4126-0.68948zm0.79988 1.3736a32.429 32.43 0 0 1 0.38727 0.72568 32.43 32.43 0 0 0-0.38727-0.72568zm0.73293 1.4116a32.429 32.43 0 0 1 0.34565 0.7293 32.43 32.43 0 0 0-0.34565-0.7293zm-58.266 0.0742a32.43 32.43 0 0 0-0.91027 2.1264 32.429 32.43 0 0 1 0.91027-2.1264zm58.925 1.3645a32.429 32.43 0 0 1 0.32212 0.77636 32.43 32.43 0 0 0-0.32212-0.77636zm0.59719 1.4912a32.429 32.43 0 0 1 0.26421 0.74196 32.43 32.43 0 0 0-0.26421-0.74196zm-61.24 1.4369a32.43 32.43 0 0 0-0.59718 2.2332 32.429 32.43 0 0 1 0.59718-2.2332zm61.761 0.0796a32.429 32.43 0 0 1 0.22802 0.75102 32.43 32.43 0 0 0-0.22802-0.75102zm0.43794 1.5093a32.429 32.43 0 0 1 0.19906 0.79626 32.43 32.43 0 0 0-0.19906-0.79626zm0.36918 1.56a32.429 32.43 0 0 1 0.15563 0.78539 32.43 32.43 0 0 0-0.15563-0.78539zm-63.656 1.3355a32.43 32.43 0 0 0-0.27508 2.3037 32.429 32.43 0 0 1 0.27508-2.3037zm63.943 0.20632a32.429 32.43 0 0 1 0.12126 0.81797 32.43 32.43 0 0 0-0.12126-0.81797zm0.22078 1.6269a32.429 32.43 0 0 1 0.0707 0.72205 32.43 32.43 0 0 0-0.0707-0.72205zm0.13571 1.5943a32.429 32.43 0 0 1 0.0344 0.72569 32.43 32.43 0 0 0-0.0344-0.72569zm-64.74 1.1781a32.43 32.43 0 0 0-0.0543 0.76549 32.43 32.43 0 0 0 0.10858 1.5328 32.429 32.43 0 0 1-0.0543-2.2983zm64.796 0.38548a32.429 32.43 0 0 1-2e-3 0.52118 32.43 32.43 0 0 0 0.0106-0.14117 32.43 32.43 0 0 0-9e-3 -0.38001zm-64.575 4.2328a32.43 32.43 0 0 0 0.38365 2.2712 32.429 32.43 0 0 1-0.38365-2.2712zm64.262 0.64606a32.429 32.43 0 0 1-0.0379 0.24973 32.43 32.43 0 0 0 0.0379-0.24973zm-63.386 3.889a32.43 32.43 0 0 0 0.70217 2.197 32.429 32.43 0 0 1-0.70217-2.197zm62.418 0.64062a32.429 32.43 0 0 1-0.0724 0.2407 32.43 32.43 0 0 0 0.0724-0.2407zm-60.909 3.7207a32.43 32.43 0 0 0 1.0152 2.0884 32.429 32.43 0 0 1-1.0152-2.0884zm59.291 0.65872a32.429 32.43 0 0 1-0.0724 0.15203 32.43 32.43 0 0 0 0.0724-0.15203zm-57.175 3.4438a32.43 32.43 0 0 0 1.3066 1.9309 32.429 32.43 0 0 1-1.3066-1.9309zm54.957 0.63883a32.429 32.43 0 0 1-0.0688 0.10493 32.43 32.43 0 0 0 0.0688-0.10493zm-52.273 3.1289a32.43 32.43 0 0 0 1.5473 1.7029 32.429 32.43 0 0 1-1.5473-1.7029zm49.493 0.5972a32.429 32.43 0 0 1-0.0489 0.0543 32.43 32.43 0 0 0 0.0489-0.0543zm-2.1879 2.1933a32.429 32.43 0 0 1-1.7138 1.56 32.43 32.43 0 0 0 1.7138-1.56zm-44.107 0.56282a32.43 32.43 0 0 0 1.7662 1.4568 32.429 32.43 0 0 1-1.7662-1.4568zm40.539 2.3852a32.429 32.43 0 0 1-1.9038 1.2885 32.43 32.43 0 0 0 1.9038-1.2885zm-36.916 0.46328a32.43 32.43 0 0 0 1.9834 1.2071 32.429 32.43 0 0 1-1.9834-1.2071zm32.976 1.9382a32.429 32.43 0 0 1-2.0757 1.008 32.43 32.43 0 0 0 2.0757-1.008zm-28.978 0.36917a32.43 32.43 0 0 0 2.1336 0.9139 32.429 32.43 0 0 1-2.1336-0.9139zm24.728 1.4496a32.429 32.43 0 0 1-2.1843 0.70034 32.43 32.43 0 0 0 2.1843-0.70034zm-20.431 0.26964a32.43 32.43 0 0 0 2.235 0.59902 32.429 32.43 0 0 1-2.235-0.59902zm15.989 0.92114a32.429 32.43 0 0 1-2.2965 0.38726 32.43 32.43 0 0 0 2.2965-0.38726zm-11.508 0.16648a32.43 32.43 0 0 0 2.3128 0.27507 32.429 32.43 0 0 1-2.3128-0.27507zm6.9329 0.38366a32.429 32.43 0 0 1-2.3254 0.056 32.43 32.43 0 0 0 0.76732 0.0543 32.43 32.43 0 0 0 1.5581-0.11035z" fill="#fff"/>
   <path d="m343 250.8a27.537 27.537 0 0 0-1.3015 0.0922 27.536 27.537 0 0 1 2.5662-0.06 27.537 27.537 0 0 0-1.2647-0.0322zm1.323 0.0339a27.536 27.537 0 0 1 3.8201 0.45486 27.537 27.537 0 0 0-3.8201-0.45486zm-4.593 0.19977a27.537 27.537 0 0 0-1.9346 0.32577 27.536 27.537 0 0 1 1.9346-0.32577zm8.51 0.27198a27.536 27.537 0 0 1 3.6496 0.97733 27.537 27.537 0 0 0-3.6496-0.97733zm-12.362 0.47176a27.537 27.537 0 0 0-1.8655 0.59622 27.536 27.537 0 0 1 1.8655-0.59622zm6.7766 0.19977a25.219 10.901 73.623 0 1-4.9588 7.1577 25.219 10.901 73.623 0 1-8.0044-3.313 25.219 10.901 43.623 0 1-0.71453 8.679 25.219 10.901 43.623 0 1-8.613 1.1264 25.219 10.901 13.623 0 1 3.7479 7.883 25.219 10.901 13.623 0 1-6.8719 5.2861 10.901 25.219 73.622 0 1 7.1608 4.9465 10.901 25.219 73.622 0 1-3.31 8.0167 10.901 25.219 43.622 0 1 8.6775 0.70226 10.901 25.219 43.622 0 1 1.1417 8.5976 10.901 25.219 13.622 0 1 7.8661-3.7294 10.901 25.219 13.622 0 1 5.283 6.898 25.219 10.901 73.623 0 1 4.9511-7.1885 25.219 10.901 73.623 0 1 8.0229 3.3315 25.219 10.901 43.623 0 1 0.69611-8.699 25.219 10.901 43.623 0 1 8.613-1.1248 25.219 10.901 13.623 0 1-3.7464-7.883 25.219 10.901 13.623 0 1 6.898-5.2799 10.901 25.219 73.622 0 1-7.1884-4.9542 10.901 25.219 73.622 0 1 3.333-8.0229 10.901 25.219 43.622 0 1-8.7005-0.69611 10.901 25.219 43.622 0 1-1.134-8.5868 10.901 25.219 13.622 0 1-7.8723 3.7218 10.901 25.219 13.622 0 1-5.2769-6.8688zm9.4166 0.36572a27.536 27.537 0 0 1 3.4329 1.469 27.537 27.537 0 0 0-3.4329-1.469zm-19.897 0.71609a27.537 27.537 0 0 0-1.7687 0.86052 27.536 27.537 0 0 1 1.7687-0.86052zm23.512 0.84515a27.536 27.537 0 0 1 3.1732 1.9316 27.537 27.537 0 0 0-3.1732-1.9316zm-27.002 0.95427a27.537 27.537 0 0 0-1.615 1.0941 27.536 27.537 0 0 1 1.615-1.0941zm30.369 1.1141a27.536 27.537 0 0 1 2.8413 2.3449 27.537 27.537 0 0 0-2.8413-2.3449zm-33.571 1.1678a27.537 27.537 0 0 0-1.4306 1.3016 27.536 27.537 0 0 1 1.4306-1.3016zm36.775 1.5228a27.536 27.537 0 0 1 0.44562 0.44716 27.537 27.537 0 0 0-0.44562-0.44716zm0.90816 0.93121a27.536 27.537 0 0 1 0.46253 0.5117 27.537 27.537 0 0 0-0.46253-0.5117zm-40.52 0.25355a27.537 27.537 0 0 0-1.2324 1.4936 27.536 27.537 0 0 1 1.2324-1.4936zm41.433 0.77908a27.536 27.537 0 0 1 0.41644 0.50864 27.537 27.537 0 0 0-0.41644-0.50864zm0.83287 1.0419a27.536 27.537 0 0 1 0.41028 0.55319 27.537 27.537 0 0 0-0.41028-0.55319zm0.78216 1.0818a27.536 27.537 0 0 1 0.39799 0.59469 27.537 27.537 0 0 0-0.39799-0.59469zm-45.471 0.17979a27.537 27.537 0 0 0-1.0172 1.6719 27.536 27.537 0 0 1 1.0172-1.6719zm46.216 0.96502a27.536 27.537 0 0 1 0.35035 0.58546 27.537 27.537 0 0 0-0.35035-0.58546zm0.6792 1.1663a27.536 27.537 0 0 1 0.32884 0.6162 27.537 27.537 0 0 0-0.32884-0.6162zm0.62235 1.1986a27.536 27.537 0 0 1 0.2935 0.61927 27.537 27.537 0 0 0-0.2935-0.61927zm-49.476 0.063a27.537 27.537 0 0 0-0.77293 1.8056 27.536 27.537 0 0 1 0.77293-1.8056zm50.035 1.1586a27.536 27.537 0 0 1 0.27352 0.65923 27.537 27.537 0 0 0-0.27352-0.65923zm0.50709 1.2662a27.536 27.537 0 0 1 0.22435 0.63002 27.537 27.537 0 0 0-0.22435-0.63002zm-52 1.2201a27.537 27.537 0 0 0-0.50708 1.8962 27.536 27.537 0 0 1 0.50708-1.8962zm52.443 0.0676a27.536 27.537 0 0 1 0.19361 0.63772 27.537 27.537 0 0 0-0.19361-0.63772zm0.37186 1.2816a27.536 27.537 0 0 1 0.16903 0.67612 27.537 27.537 0 0 0-0.16903-0.67612zm0.31348 1.3246a27.536 27.537 0 0 1 0.13215 0.6669 27.537 27.537 0 0 0-0.13215-0.6669zm-54.052 1.134a27.537 27.537 0 0 0-0.23358 1.9562 27.536 27.537 0 0 1 0.23358-1.9562zm54.296 0.17519a27.536 27.537 0 0 1 0.10297 0.69456 27.537 27.537 0 0 0-0.10297-0.69456zm0.18747 1.3814a27.536 27.537 0 0 1 0.06 0.61312 27.537 27.537 0 0 0-0.06-0.61312zm0.11524 1.3538a27.536 27.537 0 0 1 0.0292 0.6162 27.537 27.537 0 0 0-0.0292-0.6162zm-54.972 1.0004a27.537 27.537 0 0 0-0.0461 0.65 27.537 27.537 0 0 0 0.0922 1.3016 27.536 27.537 0 0 1-0.0461-1.9516zm55.02 0.32732a27.536 27.537 0 0 1-2e-3 0.44255 27.537 27.537 0 0 0 9e-3 -0.11987 27.537 27.537 0 0 0-8e-3 -0.32268zm-54.832 3.5942a27.537 27.537 0 0 0 0.32577 1.9285 27.536 27.537 0 0 1-0.32577-1.9285zm54.567 0.54858a27.536 27.537 0 0 1-0.0322 0.21206 27.537 27.537 0 0 0 0.0322-0.21206zm-53.823 3.3023a27.537 27.537 0 0 0 0.59623 1.8655 27.536 27.537 0 0 1-0.59623-1.8655zm53.001 0.54397a27.536 27.537 0 0 1-0.0615 0.20438 27.537 27.537 0 0 0 0.0615-0.20438zm-51.719 3.1594a27.537 27.537 0 0 0 0.86206 1.7733 27.536 27.537 0 0 1-0.86206-1.7733zm50.345 0.55934a27.536 27.537 0 0 1-0.0615 0.12909 27.537 27.537 0 0 0 0.0615-0.12909zm-48.549 2.9242a27.537 27.537 0 0 0 1.1095 1.6396 27.536 27.537 0 0 1-1.1095-1.6396zm46.665 0.54245a27.536 27.537 0 0 1-0.0584 0.0891 27.537 27.537 0 0 0 0.0584-0.0891zm-44.386 2.6569a27.537 27.537 0 0 0 1.3138 1.446 27.536 27.537 0 0 1-1.3138-1.446zm42.026 0.5071a27.536 27.537 0 0 1-0.0415 0.0461 27.537 27.537 0 0 0 0.0415-0.0461zm-1.8578 1.8624a27.536 27.537 0 0 1-1.4552 1.3246 27.537 27.537 0 0 0 1.4552-1.3246zm-37.453 0.4779a27.537 27.537 0 0 0 1.4998 1.237 27.536 27.537 0 0 1-1.4998-1.237zm34.423 2.0253a27.536 27.537 0 0 1-1.6166 1.0941 27.537 27.537 0 0 0 1.6166-1.0941zm-31.346 0.39338a27.537 27.537 0 0 0 1.6842 1.025 27.536 27.537 0 0 1-1.6842-1.025zm28.001 1.6458a27.536 27.537 0 0 1-1.7625 0.85592 27.537 27.537 0 0 0 1.7625-0.85592zm-24.606 0.31347a27.537 27.537 0 0 0 1.8117 0.77602 27.536 27.537 0 0 1-1.8117-0.77602zm20.997 1.2309a27.536 27.537 0 0 1-1.8547 0.59468 27.537 27.537 0 0 0 1.8547-0.59468zm-17.349 0.22896a27.537 27.537 0 0 0 1.8978 0.50864 27.536 27.537 0 0 1-1.8978-0.50864zm13.576 0.78216a27.536 27.537 0 0 1-1.95 0.32884 27.537 27.537 0 0 0 1.95-0.32884zm-9.7716 0.14137a27.537 27.537 0 0 0 1.9638 0.23357 27.536 27.537 0 0 1-1.9638-0.23357zm5.8869 0.32577a27.536 27.537 0 0 1-1.9746 0.0476 27.537 27.537 0 0 0 0.65156 0.0461 27.537 27.537 0 0 0 1.323-0.0937z" fill="#f6e500"/>
   <path d="m340.32 294.64c-7.1109-1.2273-12.523-5.9957-14.203-12.515-0.57863-2.2448-0.57092-5.5837 0.0179-7.7413 0.93115-3.4122 3.3995-7.0214 6.162-9.0102 3.2011-2.3046 6.7413-3.4417 10.722-3.444 8.2185-5e-3 15.068 5.198 16.946 12.871 0.50857 2.0786 0.45657 5.5164-0.11457 7.5704-1.9887 7.1524-8.5254 12.125-16.254 12.365-1.268 0.0394-2.7421-4e-3 -3.2758-0.0959z" fill="#fff"/>
   <path d="m340.89 291.87c-5.5982-1.0186-9.8587-4.9763-11.182-10.387-0.45554-1.8632-0.44947-4.6344 0.0141-6.4251 0.73307-2.832 2.6763-5.8277 4.8512-7.4783 2.5202-1.9127 5.3072-2.8565 8.4411-2.8584 6.4702-4e-3 11.863 4.3142 13.341 10.682 0.40039 1.7252 0.35945 4.5785-0.0902 6.2833-1.5656 5.9364-6.7118 10.064-12.797 10.263-0.99827 0.0327-2.1588-3e-3 -2.579-0.0796z" fill="#fc0"/>
  </g>
  <path id="path199" d="m328.72 299.31c-6.3649 0.0414-12.785 0.28495-16.121 0.71429-20.53 2.6416-39.661 9.2064-56.329 19.324-2.7984 1.6986-5.204 3.0738-5.3832 3.0842-2e-3 9e-5 -0.017 0.0145-0.0194 0.0145h-5e-3c-0.16566-2e-3 -2.1142-1.1174-4.3377-2.4787-17.769-10.879-37-17.456-58.926-20.156-6.1522-0.75778-25.647-0.63673-31.916 0.1986-26.68 3.5557-50.165 13.233-70.416 29.016l-2.1854 1.7029 2.9518 5.3406c1.6211 2.9368 3.1438 5.6684 3.387 6.0691 0.4167 0.68689 0.55768 0.63482 2.4834-0.89876 5.9785-4.761 12.228-8.8434 18.713-12.403a81.942 39.942 4.3065 0 0-6.1684 9.8297c-2.8036 1.8612-5.5371 3.8011-8.1221 5.8751l-3.3491 2.6868 4.0208 5.3832c2.2113 2.9607 4.146 5.3808 4.3046 5.3784 0.15864-2e-3 1.5784-1.052 3.1552-2.3274 0.45969-0.37174 0.96672-0.71753 1.4381-1.0832a81.942 39.942 4.3065 0 0 2.8051 4.4939c-0.48657 0.37712-1.0101 0.7625-1.4569 1.1305l-2.7531 2.2706 4.6452 5c4.5571 4.9071 4.6615 4.9917 5.4636 4.3567 1.3506-1.0692 2.7017-2.0473 4.0539-3.0274a81.942 39.942 4.3065 0 0 4.6026 3.1315c-1.6237 1.1088-3.0896 2.1618-4.0397 2.9801l-1.4854 1.2819 3.7796 3.6613c2.0799 2.0122 4.3397 4.1216 5.0189 4.6878l1.2346 1.0265 3.1599-2.2753c2.1196-1.5255 4.3199-2.8696 6.5563-4.1296a81.942 39.942 4.3065 0 0 6.5894 2.5071c-0.57112 0.2769-1.1521 0.5235-1.7171 0.81835-3.885 2.0276-9.9906 5.9526-9.9906 6.4238 0 0.2784 8.8746 7.0753 10.549 8.0795 0.69699 0.41806 1.134 0.28265 3.4484-1.0691 12.457-7.2754 28.496-8.897 42.564-4.2999 15.729 5.1399 28.149 17.573 33.316 33.344l1.2157 3.7134 1.5657 0.21749c0.86209 0.12134 3.3743 0.3616 5.5818 0.53453 2.2075 0.17317 4.7281 0.33968 5.6008 0.36898l1.5894 0.0521-0.57238-2.578c-1.7233-7.7919-6.0923-17.649-10.714-24.177-2.8988-4.0943-9.6936-10.984-14.125-14.461a81.942 39.942 4.3065 0 0 7.1098-0.99336c1.2 1.0522 2.4006 2.1002 3.5383 3.245 9.9261 9.9888 17.156 23.588 19.437 36.556l0.48723 2.7531 1.5657 0.16082c2.2201 0.22767 9.819 0.11722 11.604-0.12303h0.58182l-0.01-0.0615c0.01-5e-3 0.1039-0.01 0.10875-0.0145 0.48017-0.48115-1.7222-10.303-3.5336-15.752-3.7969-11.423-9.9741-21.759-17.994-30.492a81.942 39.942 4.3065 0 0 5.3075-2.001c7.6748 8.7826 13.709 19.083 17.517 30.549 1.8065 5.4404 3.837 14.116 3.8458 16.424l5e-3 0.69537v0.38789l4.4891-0.24597c2.4703-0.1366 5.6504-0.36058 7.0672-0.49669l2.5781-0.24598-0.21774-1.5705c-2.6738-19.442-10.826-37.314-22.819-51.963a81.942 39.942 4.3065 0 0 4.2526-3.2072c6.9575 8.4419 12.352 17.553 16.684 28.132 2.8934 7.0658 5.9585 18.437 6.8874 25.563 0.22427 1.7207 0.38129 2.0078 1.088 2.0057 0.82094-2e-3 12.472-2.5378 12.696-2.7626 0.2388-0.23881-1.4146-9.0331-2.5686-13.671-4.0668-16.344-11.473-31.515-22.219-45.582a78.019 36.123 0 0 0 9.7067 4.4087c10.142 15.353 16.913 32.985 20.047 52.512l0.19399 1.211 3.5241-0.95553c6.1703-1.6785 12.877-3.9671 20.123-6.8685 3.873-1.5508 7.1395-2.9276 7.2611-3.0606 0.37005-0.40466-5.8026 0.21337-8.2166 0.8231-1.2461 0.31478-3.8706 1.36-5.8326 2.3226-1.7519 0.85951-2.9364 1.363-3.2781 1.4475-0.18698 0.0194-0.33883 2e-3 -0.4352-0.0521-0.16179-0.44935-0.72039-3.3242-0.84674-4.2999 7e-3 -0.27119 0.0402-0.46516 0.0852-0.60549 0.48538-0.64879 5.1664-2.7182 8.2592-3.6093 3.8133-1.0986 10.948-1.4036 14.877-0.63387l2.8619 0.56291 4.0161-2.0199c3.3617-1.6888 10.599-5.7013 11.022-6.1116 0.28976-0.28138-3.4783-2.2251-7.001-3.6093-7.2701-2.8567-16.594-3.9197-23.95-2.7294-3.3324 0.53922-8.75 2.1213-11.514 3.3586-0.9596 0.42958-1.4931 0.58151-1.8448 0.65751-0.23275 5e-3 -0.44602-0.0145-0.58654-0.10415h-5e-3c-0.12691-0.2721-0.42801-1.0819-0.8136-2.2422l-0.75686-2.2706c0.0407-0.0584 0.0899-0.11795 0.21749-0.1986l2.8713-1.1116c14.913-5.7626 31.729-4.681 45.109 2.8997 1.666 0.94393 3.1624 1.7171 3.3254 1.7171 0.49354 0 11.074-8.0313 11.074-8.4059 0-0.65867-7.5154-5.3476-11.878-7.4125-3.7306-1.7657-7.2797-3.0478-10.87-4.035a78.019 36.123 0 0 0 11.192-1.5988c4.8604 2.0909 9.514 4.7203 13.846 7.9092 2.3271 1.7131 2.3877 1.7326 3.1883 1.0501 0.44847-0.38226 2.7493-2.4898 5.1135-4.6783l4.2952-3.9782-2.3794-1.859c-1.5761-1.2315-3.2394-2.4014-4.9385-3.5383a78.019 36.123 0 0 0 5.7474-2.3321c0.48926 0.35741 0.99503 0.66732 1.4806 1.0359l3.9073 2.9659 4.6263-5.0331c4.429-4.8161 4.5934-5.0513 3.8884-5.6197-0.3427-0.27629-0.68846-0.50447-1.0312-0.7758a78.019 36.123 0 0 0 4.1911-3.7228c0.42551 0.25173 0.87408 0.5204 0.95078 0.47305 0.38517-0.23808 6.2802-8.0222 7.3983-9.7682 0.55267-0.86308 0.48706-1.0439-1.632-2.7294a78.019 36.123 0 0 0 0.41156-2.9139 78.019 36.123 0 0 0-0.4352-3.7323c0.48531 0.3638 0.98954 0.68815 1.4711 1.0596 2.1713 1.6746 4.0036 2.9851 4.0728 2.9139 0.3912-0.40221 3.8747-6.5384 5.1466-9.0681l1.4901-2.9659-3.316-2.526c-20.506-15.604-43.852-24.927-70.785-28.269-3.1222-0.38734-9.4298-0.54748-15.795-0.50614zm-27.99 76.741a78.019 36.123 0 0 0 10.998 1.5279c-2.1967 0.61404-4.362 1.3498-6.509 2.2138-2.0111 0.80932-3.655 1.427-3.7133 1.3955-0.0194-0.0145-0.0523-0.0664-0.0756-0.0899-0.34055-0.48584-1.8745-3.7586-1.9631-4.1864 0.0194-0.0862 0.13805-0.19569 0.23662-0.29799 0.15355-0.12377 0.5703-0.33724 1.0265-0.56294zm-129.28 18.132c-5.4923 0.11166-11.022 1.2014-16.348 3.3491-1.8225 0.73494-4.0906 1.7865-5.0378 2.3416l-1.7219 1.0123 2.2327 1.3529c1.2292 0.74518 4.6442 2.6091 7.5875 4.1391l5.35 2.7815 2.8666-0.57238c3.5647-0.7113 10.946-0.48046 14.527 0.45412 3.3377 0.871 8.3382 3.2256 11.216 5.2838 2.6522 1.8971 6.013 5.3109 7.7909 7.9139l1.1921 1.7455 4.5222 1.0454c2.4875 0.57594 6.0691 1.3654 7.9612 1.755 1.8922 0.38953 3.5842 0.72802 3.7559 0.74739 0.75291 0.0884-1.9518-6.3345-4.3425-10.312-8.9721-14.928-25.075-23.372-41.552-23.037zm0.90351 18.879c-1.4667 0.017-1.2646 0.14919 3.0085 1.9726 1.4901 0.63584 3.8042 1.5036 5.9839 2.351 0.45504 0.17656 0.8572 0.3428 1.3103 0.51561 1.0126 0.38737 1.9846 0.80009 2.8382 1.1116 1.81 0.66059 2.4479 0.83746 3.5809 1.211 0.17026 0.0579 0.3972 0.14798 0.56291 0.20344 0.20417 0.0685 0.0581 7e-3 0.22233 0.0615 0.40287 0.12594 1.5905 0.56024 1.6651 0.56291 0.59306 0.0194-1.342-1.6879-3.8269-3.3728-0.4973-0.33719-1.1544-0.63051-1.7408-0.94606-0.22306-0.11868-0.37591-0.21338-0.61021-0.33113-0.63353-0.31704-1.253-0.61482-1.9489-0.89877-0.0535-0.0218-0.12836-0.0601-0.17971-0.0804-0.1395-0.055-0.28986-0.0884-0.43045-0.14193-2.3555-0.90741-4.8655-1.5994-7.2375-1.9394-0.0341-5e-3 -0.0698-0.0194-0.10415-0.0242-0.29315-0.0441-0.76047-0.0593-1.1731-0.0899-0.64443-0.0574-1.3357-0.17221-1.9205-0.16567z" fill="#fff"/>
  <path id="path203" d="m189.64 430.7c-4.3155-1.4457-10.251-3.7205-14.934-5.7235-2.2405-0.95829-3.0478-1.3508-3.0963-1.5053-0.0451-0.14338 2.6504-0.0601 3.8396 0.11867 2.5611 0.38517 5.2663 1.119 7.771 2.108 1.2815 0.50601 3.2656 1.5123 4.2234 2.1419 1.9324 1.2704 4.1558 3.0929 4.1558 3.4065 0 0.10124-0.15622 0.0576-1.9596-0.54654zm-4.146-1.4111c-3.0485-1.1126-7.6069-2.9038-10.13-3.9803-4.2731-1.8234-4.4793-1.9586-3.0126-1.9752 4.644-0.0526 11.497 2.0108 15.345 4.6204 2.4849 1.6848 4.4238 3.3924 3.8308 3.3736-0.27012-0.01-2.9853-0.92591-6.0338-2.0385zm28.096 7.7708c-1.8922-0.38952-5.4755-1.1795-7.963-1.7554l-4.5227-1.0472-1.191-1.7437c-1.7779-2.603-5.1373-6.0156-7.7895-7.9127-2.8775-2.0583-7.8791-4.4156-11.217-5.2866-3.5812-0.93459-10.961-1.1652-14.526-0.45385l-2.8669 0.57204-5.3516-2.7818c-2.9434-1.53-6.3573-3.3915-7.5864-4.1367l-2.2348-1.3549 1.7222-1.0092c0.94717-0.55509 3.2134-1.6106 5.0359-2.3455 21.305-8.5908 45.939-0.21337 57.902 19.691 2.3907 3.9777 5.0944 10.398 4.3414 10.31-0.17172-0.0194-1.8606-0.35543-3.7528-0.74495zm17.01 2.6542c-2.2075-0.17293-4.719-0.41382-5.5812-0.53506l-1.5675-0.2204-1.2161-3.7122c-5.1668-15.771-17.589-28.202-33.317-33.342-14.068-4.5971-30.108-2.9776-42.565 4.2979-2.3145 1.3517-2.7506 1.487-3.4476 1.0689-1.6742-1.0041-10.545-7.8004-10.545-8.0788 0-0.47126 6.1038-4.3972 9.9888-6.4247 21.799-11.377 48.315-9.3874 68.818 5.1633 4.2945 3.0478 12.184 10.994 15.337 15.446 4.622 6.5281 8.99 16.386 10.713 24.178l0.57066 2.5802-1.5868-0.0533c-0.8727-0.0293-3.3929-0.19473-5.6004-0.36782zm12.477 0.13442c-0.1039-0.36795-0.30899-1.443-0.45567-2.3891-1.2569-8.1068-6.3581-19.721-12.302-28.008-2.683-3.7409-8.8374-10.262-12.54-13.288-13.273-10.846-30.668-16.619-47.958-15.915-14.03 0.57073-25.95 4.4437-37.562 12.204l-4.4971 3.0056-1.0436-0.8209c-2.4382-1.9179-8.4949-8.1016-8.2784-8.4519 0.88212-1.4273 10.771-7.7529 16.914-10.82 23.335-11.648 51.106-11.558 74.792 0.24253 8.8358 4.402 15.992 9.6546 23.153 16.993 8.6408 8.8555 14.588 18.22 18.886 29.74 1.5636 4.1905 3.8998 13.029 4.2737 16.169l0.23904 2.0068h-6.7163c-6.0697 0-6.7346-0.0644-6.9053-0.66894zm18.868-1.7807c0-2.2511-1.8664-10.173-3.7007-15.708-10.546-31.82-38.757-55.294-72.575-60.392-4.4437-0.66976-19.345-0.78045-24.992-0.18576-7.2673 0.76538-16.531 3.32-24.494 6.7546-6.1953 2.6722-10.557 5.1889-17.917 10.338-2.1808 1.5257-4.1884 2.774-4.4614 2.774-0.44874 0-8.237-8.0352-8.5055-8.7751-0.14822-0.40863 7.5033-6.047 12.345-9.0968 23.68-14.917 51.493-19.541 78.745-13.092 32.983 7.805 60.046 31.392 72.828 63.476 2.8394 7.127 5.3703 16.575 5.9444 22.191l0.25808 2.5247-1.8628 0.23493c-1.0246 0.12909-4.056 0.35131-6.7366 0.49362l-4.8738 0.25871zm19.495-0.72583c0-0.0647-0.33326-1.9137-0.74056-4.1093-4.6268-24.94-15.714-45.238-34.236-62.681-12.665-11.927-30.63-21.345-49.12-25.751-9.1326-2.1764-10.501-2.3051-24.656-2.3191-10.853-0.01-13.679 0.10221-17.136 0.68435-18.138 3.0552-34.709 10.161-49.921 21.405l-3.9839 2.9449-0.9443-0.86488c-1.0183-0.93269-5.7919-7.2207-6.5017-8.5644-0.39483-0.74744-0.17462-1.0182 2.5213-3.1012 13.211-10.208 29.417-18.165 45.317-22.251 11.719-3.012 15.722-3.4629 30.839-3.4736 11.312-7e-3 15.907 0.36743 23.424 1.9142 24.838 5.1106 44.751 15.844 62.79 33.844 17.667 17.63 28.651 37.9 33.814 62.404 1.498 7.11 1.4926 7.5752-0.0949 8.0731-3.5921 1.1265-11.372 2.3893-11.372 1.8458zm17.801-7.2174c-7.0736-40.459-31.917-74.449-67.791-92.749-21.398-10.916-44.307-15.546-68.7-13.885-23.907 1.628-47.857 10.568-67.328 25.133-2.7049 2.0232-5.09 3.7472-5.3002 3.831-0.51525 0.20538-6.8723-11.304-6.4494-11.677 3.1975-2.8179 14.349-10.248 20.593-13.721 16.055-8.9293 37.622-15.512 55.335-16.89 6.2174-0.48354 21.215-0.47787 26.467 0.01 9.0242 0.83821 20.995 3.3859 30.615 6.5154 9.3122 3.0296 19.255 7.5813 28.855 13.21 2.644 1.5502 5.0391 2.8185 5.3225 2.8185 0.28334 0 2.7007-1.2825 5.3719-2.8499 16.827-9.874 34.338-16.099 53.304-18.949 6.8917-1.0356 25.475-1.4799 32.859-0.7857 26.878 2.5271 53.872 13.372 75.099 30.173l0.92591 0.73281-2.8315 5.19c-1.5573 2.8545-3.0405 5.4758-3.2959 5.8251-0.41292 0.5647-1.0243 0.22016-5.5116-3.1053-18.622-13.801-38.393-21.77-62.077-25.023-4.9652-0.68197-18.879-0.90937-25.548-0.41757-12.231 0.90189-25.565 3.9568-37.142 8.5093-5.1646 2.0309-17.472 8.1419-18.349 9.1107-0.69262 0.76534-0.68211 0.80595 0.53279 2.0594 2.4188 2.4955 2.417 2.4956 7.7173-0.28884 9.9759-5.2407 20.774-9.1858 31.573-11.536 8.3502-1.8168 11.449-2.1465 22.158-2.3569 14.157-0.27814 22.433 0.47465 32.245 2.9328 17.264 4.3251 32.889 11.828 46.522 22.339 1.935 1.492 3.5945 2.8957 3.6877 3.1193 0.14677 0.35201-5.7504 8.6225-7.136 10.008-0.41026 0.41026-1.4448-0.18891-5.8271-3.3749-15.393-11.191-31.706-18.046-49.479-20.791-5.368-0.82925-21.298-1.1967-27.395-0.63196-8.3563 0.77403-18.384 3.0884-27.076 6.249-5.3064 1.9295-13.952 6.0098-13.952 6.5846 0 0.68473 3.2042 3.6524 3.9435 3.6524 0.36596 0 1.7016-0.52307 2.968-1.1624 9.5266-4.809 21.839-8.2984 34.431-9.7576 7.157-0.82943 18.491-0.57534 26.076 0.58461 17.823 2.7256 32.866 9.2269 48.439 20.935 1.8738 1.4087 3.4068 2.7695 3.4068 3.0239 0 0.43013-6.2571 7.5719-7.8765 8.9902-0.68796 0.60248-0.94263 0.47334-5.0801-2.5761-13.562-9.9959-28.159-15.726-44.309-17.394-5.819-0.60106-20.514-0.25428-25.111 0.59258-9.7545 1.797-24.656 6.8432-24.656 8.3494 0 0.65858 2.1512 3.6741 2.798 3.9224 0.26058 0.10003 2.1862-0.51498 4.2793-1.3666 11.204-4.5586 21.009-6.4961 32.875-6.4961 19.583 0 35.946 5.7946 53.487 18.942l1.0475 0.78515-4.1444 3.8019c-2.2794 2.091-4.5113 4.1116-4.9598 4.49-0.80119 0.67611-0.89094 0.63714-5.1601-2.2401-8.8541-5.9672-19.014-9.9338-29.956-11.695-4.6957-0.7558-16.701-0.64572-21.789 0.19981-7.7457 1.2872-18.539 4.9146-18.539 6.2304 0 0.70743 1.8454 4.3326 2.2044 4.3303 0.15403-9.7e-4 1.6564-0.53801 3.3383-1.1934 9.1904-3.5814 13.541-4.345 24.656-4.3271 10.116 0.017 13.236 0.47967 20.698 3.074 5.693 1.9792 14.479 6.5522 17.91 9.3219l0.95565 0.77151-0.95565 0.77834c-3.0789 2.5076-9.5834 7.249-9.9447 7.249-0.2342 0-2.0058-0.85166-3.9369-1.8926-4.6745-2.5198-11.615-4.79-17.081-5.5872-5.2668-0.76817-13.464-0.59074-18.157 0.39301-4.5764 0.95931-12.423 3.644-12.423 4.2505 0 0.28277 0.36257 1.4832 0.80571 2.6676 0.93328 2.4944 0.32241 2.474 6.8394 0.22839 6.1483-2.1185 10.954-2.8822 16.294-2.5888 7.4008 0.40655 13.671 2.0027 19.588 4.9868 3.3589 1.6938 3.88 1.1004-5.2534 5.9817l-6.575 3.5139-2.8533-0.48807c-4.162-0.71194-12.199-0.31464-15.658 0.77403-3.3264 1.047-7.2569 2.8052-7.6336 3.4148-0.3372 0.54562 0.0666 4.1864 0.55126 4.9707 0.28066 0.45412 1.0428 0.23396 4.3862-1.2669 4.171-1.8724 8.0516-2.9189 10.724-2.892l1.529 0.0145-2.1024 0.9575c-5.506 2.5076-20.882 7.8277-26.401 9.1346-0.97341 0.23057-0.98549 0.20369-1.6697-3.7096zm-54.726 10.515-1.5668-0.16082-0.48402-2.7522c-2.2806-12.968-9.5118-26.567-19.438-36.556-24.461-24.615-63.935-27.871-92.106-7.5965l-3.1609 2.2749-1.2351-1.0295c-0.67926-0.56623-2.9368-2.6759-5.0167-4.6881l-3.7817-3.6586 1.4882-1.2816c3.0559-2.6318 10.708-7.4698 15.797-9.987 23.617-11.683 51.358-11.693 74.912-0.0279 20.647 10.225 36.182 27.972 43.342 49.514 1.8114 5.4496 4.0154 15.268 3.5352 15.749-0.29766 0.29826-9.8171 0.45346-12.285 0.20029zm55.103-7.5108c-4.8864-30.44-18.549-56.316-40.157-76.055-20.602-18.82-45.195-29.893-73.775-33.218-6.1188-0.71181-22.086-0.591-28.287 0.2141-24.902 3.2328-46.414 12.247-65.497 27.443-1.9258 1.5336-2.068 1.585-2.4847 0.89809-0.24312-0.40071-1.7684-3.1314-3.3895-6.0682l-2.9474-5.3396 2.1829-1.7013c20.251-15.783 43.735-25.46 70.416-29.016 6.2684-0.8354 25.766-0.95735 31.918-0.19956 21.926 2.7005 41.154 9.278 58.923 20.157 2.2254 1.3625 4.1793 2.4772 4.3421 2.4772 0.16275 0 2.5942-1.395 5.4033-3.1 16.668-10.117 35.8-16.68 56.33-19.321 6.673-0.85866 25.674-0.98203 31.918-0.20732 26.933 3.3417 50.277 12.665 70.783 28.269l3.3149 2.5225-1.4907 2.9649c-1.2719 2.5298-4.7538 8.668-5.145 9.0703-0.0693 0.0712-1.9026-1.2405-4.0738-2.9151-18.386-14.181-39.469-22.782-63.58-25.94-6.8471-0.89663-22.846-0.89896-29.994-5e-3 -10.466 1.3099-21.112 3.8986-30.403 7.3926-7.7376 2.91-21.078 9.6125-20.756 10.428 0.063 0.15936 0.94895 1.008 1.969 1.8857l1.8546 1.5958 1.5857-0.92836c8.5395-4.9996 21.127-10.014 31.36-12.493 11.397-2.7607 19.665-3.6012 32.64-3.3182 13.476 0.29398 22.536 1.8103 34.678 5.8038 14.383 4.7305 26.803 11.378 38.499 20.606 2.9446 2.3233 2.9482 2.3284 2.332 3.2907-1.1181 1.746-7.0131 9.5268-7.3983 9.7648-0.20756 0.12812-1.9398-0.99944-3.8496-2.5059-11.603-9.1528-25.896-16.201-40.327-19.886-10.165-2.5958-15.228-3.187-27.29-3.187-8.9238 0-11.321 0.12618-15.864 0.83569-11.919 1.8613-23.021 5.3613-33.183 10.462l-2.985 1.4982 1.5872 1.8957c0.87294 1.0426 1.8335 1.8957 2.1345 1.8957 0.30105 0 1.7902-0.626 3.3092-1.3911 15.012-7.5616 34.634-11.381 51.864-10.095 22.829 1.7034 41.686 9.3417 60.491 24.503 0.70503 0.56841 0.53959 0.80762-3.8894 5.6238l-4.6258 5.0301-3.9041-2.9639c-16.207-12.304-34.435-18.413-54.935-18.413-10.261 0-18.321 1.2298-27.669 4.222-3.9194 1.2545-11.54 4.2832-12.048 4.788-0.32594 0.32423 2.7117 4.4215 3.1407 4.2364 8.2866-3.5749 13.233-5.206 19.815-6.5338 12.834-2.589 25.887-2.1877 38.741 1.191 10.569 2.7783 21.732 8.3638 30.666 15.344l2.3793 1.859-4.2986 3.9791c-2.3642 2.1885-4.6656 4.2919-5.114 4.6742-0.8006 0.68243-0.85861 0.6633-3.1857-1.0498-19.559-14.398-45.585-17.792-68.325-8.9084-2.155 0.84185-3.9181 1.685-3.9181 1.8737 0 0.26555 1.7721 4.0474 2.0652 4.4074 0.0342 0.0419 1.7198-0.59108 3.7461-1.4065 8.4169-3.3872 17.115-4.8347 26.872-4.4721 9.3219 0.34642 16.875 2.1999 25.392 6.2309 4.3626 2.0649 11.878 6.7567 11.878 7.4154 0 0.37455-10.578 8.4021-11.071 8.4021-0.163 0-1.6594-0.77232-3.3255-1.7162-13.38-7.5807-30.196-8.6614-45.109-2.8988l-3.1231 1.2068 0.78869 2.3731c0.43379 1.3052 0.84654 2.4412 0.91721 2.5244 0.0707 0.0833 1.1212-0.29308 2.3344-0.83623 2.7638-1.2373 8.1821-2.8163 11.515-3.3555 7.356-1.1903 16.678-0.12837 23.948 2.7283 3.5227 1.3842 7.2923 3.3262 7.0025 3.6076-0.42267 0.41032-7.6601 4.4248-11.022 6.1135l-4.0193 2.0191-2.8614-0.56053c-3.9294-0.76975-11.063-0.46679-14.877 0.63179-3.2598 0.93913-8.4353 3.2379-8.4353 3.7466 0 0.47642 0.85783 4.8377 0.98242 4.9946 0.0557 0.0702 1.7067-0.65974 3.6688-1.6224 1.962-0.96258 4.5868-2.0077 5.8329-2.3225 2.414-0.60982 8.5868-1.2294 8.2167-0.8247-0.12158 0.13297-3.3898 1.5104-7.2629 3.0612-7.2463 2.9014-13.952 5.1906-20.123 6.8692l-3.5242 0.95868zm-18.355 4.2348c-0.085-0.26281-0.35896-1.7679-0.60893-3.3447-1.7228-10.867-5.8681-23.229-11.24-33.521-6.3774-12.218-17.121-25.336-27.842-33.995-12.123-9.7908-27.326-17.332-42.709-21.186-9.7417-2.4405-13.227-2.8198-25.982-2.8278-9.2684-5e-3 -12.56 0.13127-16.055 0.66889-18.176 2.796-35.654 10.072-50.036 20.83-2.6497 1.9821-5.0202 3.684-5.2678 3.7822-0.58958 0.23372-8.3797-10.138-7.9236-10.549 4.6401-4.1867 15.217-11.14 22.717-14.935 12.254-6.2005 23.393-9.8861 37.161-12.296 6.6448-1.1631 26.173-1.4711 33.572-0.52939 30.052 3.825 55.154 16.768 75.97 39.169 13.169 14.172 22.878 31.54 28.13 50.319 1.0586 3.785 3.2809 14.392 3.2862 15.684 2e-3 0.72717-0.53455 0.92237-5.5262 2.0068-6.0558 1.3156-7.4127 1.4441-7.6455 0.72351zm-19.321 1.149c-5e-3 -2.034-1.8253-9.9512-3.4489-15.006-10.555-32.86-39.242-56.74-73.953-61.558-6.3448-0.88082-22.26-0.5881-27.905 0.51323-14.848 2.897-27.179 8.2909-38.694 16.926-1.9395 1.4544-3.7604 2.6443-4.0465 2.6443s-2.472-2.0827-4.8577-4.6283l-4.3375-4.6283 0.92998-0.7485c9.1965-7.402 20.405-13.987 30.091-17.679 41.1-15.666 87.956-3.4082 116.31 30.427 9.299 11.096 16.682 24.939 20.581 38.59 1.5123 5.2946 2.7122 11.134 2.8175 13.712l0.086 2.1024-3.6314 0.25835c-1.9973 0.14217-5.0505 0.35811-6.785 0.48005l-3.1536 0.22161zm5e-3 0.67793c0-2.2855-2.038-10.996-3.8485-16.448-10.871-32.739-39.601-56.252-74.247-60.765-5.8555-0.76269-16.85-0.76269-22.705 0-17.368 2.2623-31.941 8.5636-46.55 20.128-0.80213 0.63499-0.90678 0.55155-5.4639-4.3555l-4.6461-5.0029 2.757-2.271c7.0653-5.8198 19.378-12.933 27.986-16.168 21.112-7.935 42.425-9.0706 63.984-3.4095 40.377 10.603 70.933 45.2 76.653 86.792l0.2158 1.5697-2.576 0.24747c-1.4168 0.13612-4.5971 0.35927-7.0675 0.4959l-4.4915 0.24839zm18.923-2.9737c-0.92889-7.1258-3.9922-18.5-6.8857-25.565-5.9051-14.42-13.758-26.123-24.899-37.105-5.6758-5.5946-9.2728-8.5176-15.998-13-13.263-8.8397-28.429-14.683-44.574-17.173-4.5509-0.70202-7.1866-0.85357-15.249-0.87674-10.337-0.0298-14.552 0.32623-22.368 1.8887-16.544 3.3074-33.756 11.296-46.439 21.554-1.5768 1.2753-2.9967 2.3217-3.1553 2.3252-0.15864 2e-3 -2.0976-2.4159-4.3089-5.3766l-4.0204-5.3831 3.3532-2.6905c17.724-14.221 40.995-23.602 64.268-25.906 5.6623-0.56063 19.3-0.47688 24.902 0.15283 23.552 2.6482 44.185 11.044 63.072 25.666 5.653 4.3762 16.441 15.166 20.803 20.807 11.023 14.254 18.584 29.65 22.716 46.253 1.154 4.6377 2.8049 13.436 2.566 13.675-0.22476 0.22475-11.876 2.7576-12.697 2.76-0.7067 2e-3 -0.86151-0.28366-1.0858-2.0044z" fill="#4a0"/>
  <use xlink:href="#path196"/>
  <use xlink:href="#g178"/>
  <use xlink:href="#path199"/>
  <use xlink:href="#path203"/>
 </g>
</svg>
